<mxfile modified="2021-09-27T15:30:35.130Z" host="app.diagrams.net" agent="5.0 (X11; Linux x86_64) AppleWebKit/537.36 (KHTML, like Gecko) Chrome/93.0.4577.82 Safari/537.36" etag="i4cwZK4jpcqt3bQtVl3s" version="15.3.5" type="github" pages="3">
  <diagram id="q9pRB2oo7dFzipD1FP0M" name="Page-3">
    <mxGraphModel dx="613" dy="545" grid="1" gridSize="10" guides="1" tooltips="1" connect="1" arrows="1" fold="1" page="1" pageScale="1" pageWidth="850" pageHeight="1100" math="0" shadow="0">
      <root>
        <mxCell id="Bbwi8fSW1S6Drep4O9ry-0" />
        <mxCell id="Bbwi8fSW1S6Drep4O9ry-1" parent="Bbwi8fSW1S6Drep4O9ry-0" />
        <mxCell id="Bbwi8fSW1S6Drep4O9ry-15" style="edgeStyle=elbowEdgeStyle;rounded=0;orthogonalLoop=1;jettySize=auto;html=1;exitX=0;exitY=0.5;exitDx=0;exitDy=0;entryX=0.5;entryY=0;entryDx=0;entryDy=0;endArrow=open;startSize=14;endSize=14;sourcePerimeterSpacing=8;targetPerimeterSpacing=8;" edge="1" parent="Bbwi8fSW1S6Drep4O9ry-1" source="Bbwi8fSW1S6Drep4O9ry-2" target="Bbwi8fSW1S6Drep4O9ry-6">
          <mxGeometry relative="1" as="geometry">
            <Array as="points">
              <mxPoint x="140" y="200" />
            </Array>
          </mxGeometry>
        </mxCell>
        <mxCell id="Bbwi8fSW1S6Drep4O9ry-2" value="(X = 1.5, 3.1, 5.3, and 6.6) g of Ru(acac)3&amp;nbsp;" style="text;whiteSpace=wrap;html=1;" vertex="1" parent="Bbwi8fSW1S6Drep4O9ry-1">
          <mxGeometry x="180" y="100" width="240" height="30" as="geometry" />
        </mxCell>
        <mxCell id="Bbwi8fSW1S6Drep4O9ry-16" style="edgeStyle=elbowEdgeStyle;rounded=0;orthogonalLoop=1;jettySize=auto;html=1;exitX=0;exitY=0.5;exitDx=0;exitDy=0;entryX=0.5;entryY=0;entryDx=0;entryDy=0;endArrow=open;startSize=14;endSize=14;sourcePerimeterSpacing=8;targetPerimeterSpacing=8;" edge="1" parent="Bbwi8fSW1S6Drep4O9ry-1" source="Bbwi8fSW1S6Drep4O9ry-4" target="Bbwi8fSW1S6Drep4O9ry-6">
          <mxGeometry relative="1" as="geometry">
            <Array as="points">
              <mxPoint x="140" y="220" />
            </Array>
          </mxGeometry>
        </mxCell>
        <mxCell id="Bbwi8fSW1S6Drep4O9ry-4" value="1.77 g of Na2EDTAÂ·2H2O" style="text;whiteSpace=wrap;html=1;" vertex="1" parent="Bbwi8fSW1S6Drep4O9ry-1">
          <mxGeometry x="180" y="140" width="170" height="30" as="geometry" />
        </mxCell>
        <mxCell id="Bbwi8fSW1S6Drep4O9ry-17" style="edgeStyle=elbowEdgeStyle;rounded=0;orthogonalLoop=1;jettySize=auto;html=1;entryX=0.5;entryY=0;entryDx=0;entryDy=0;endArrow=open;startSize=14;endSize=14;sourcePerimeterSpacing=8;targetPerimeterSpacing=8;" edge="1" parent="Bbwi8fSW1S6Drep4O9ry-1" source="Bbwi8fSW1S6Drep4O9ry-5" target="Bbwi8fSW1S6Drep4O9ry-6">
          <mxGeometry relative="1" as="geometry">
            <Array as="points">
              <mxPoint x="140" y="250" />
            </Array>
          </mxGeometry>
        </mxCell>
        <mxCell id="Bbwi8fSW1S6Drep4O9ry-5" value="0.39 g of NaOH" style="text;whiteSpace=wrap;html=1;" vertex="1" parent="Bbwi8fSW1S6Drep4O9ry-1">
          <mxGeometry x="180" y="190" width="120" height="30" as="geometry" />
        </mxCell>
        <mxCell id="J28Sa_bkbTZJZv1KAcbY-0" style="edgeStyle=elbowEdgeStyle;rounded=0;orthogonalLoop=1;jettySize=auto;html=1;exitX=0.5;exitY=1;exitDx=0;exitDy=0;entryX=0.5;entryY=0;entryDx=0;entryDy=0;endArrow=open;startSize=14;endSize=14;sourcePerimeterSpacing=8;targetPerimeterSpacing=8;" edge="1" parent="Bbwi8fSW1S6Drep4O9ry-1" source="Bbwi8fSW1S6Drep4O9ry-6" target="Bbwi8fSW1S6Drep4O9ry-23">
          <mxGeometry relative="1" as="geometry" />
        </mxCell>
        <mxCell id="Bbwi8fSW1S6Drep4O9ry-6" value="Dissolution in 8mL of D.W" style="ellipse;whiteSpace=wrap;html=1;hachureGap=4;pointerEvents=0;" vertex="1" parent="Bbwi8fSW1S6Drep4O9ry-1">
          <mxGeometry x="80" y="230" width="120" height="80" as="geometry" />
        </mxCell>
        <mxCell id="J28Sa_bkbTZJZv1KAcbY-6" style="edgeStyle=elbowEdgeStyle;rounded=0;orthogonalLoop=1;jettySize=auto;html=1;exitX=0.5;exitY=1;exitDx=0;exitDy=0;endArrow=open;startSize=14;endSize=14;sourcePerimeterSpacing=8;targetPerimeterSpacing=8;" edge="1" parent="Bbwi8fSW1S6Drep4O9ry-1" source="Bbwi8fSW1S6Drep4O9ry-23">
          <mxGeometry relative="1" as="geometry">
            <mxPoint x="140" y="550" as="targetPoint" />
          </mxGeometry>
        </mxCell>
        <mxCell id="J28Sa_bkbTZJZv1KAcbY-9" value="&lt;span style=&quot;font-size: 12px ; background-color: rgb(248 , 249 , 250)&quot;&gt;Transfering of&lt;br&gt;Red supension&lt;/span&gt;" style="edgeLabel;html=1;align=center;verticalAlign=middle;resizable=0;points=[];" vertex="1" connectable="0" parent="J28Sa_bkbTZJZv1KAcbY-6">
          <mxGeometry x="-0.4311" y="-2" relative="1" as="geometry">
            <mxPoint x="2" y="14" as="offset" />
          </mxGeometry>
        </mxCell>
        <mxCell id="Bbwi8fSW1S6Drep4O9ry-23" value="Stirring at R.T" style="shape=hexagon;perimeter=hexagonPerimeter2;whiteSpace=wrap;html=1;fixedSize=1;hachureGap=4;pointerEvents=0;" vertex="1" parent="Bbwi8fSW1S6Drep4O9ry-1">
          <mxGeometry x="80" y="380" width="120" height="80" as="geometry" />
        </mxCell>
        <mxCell id="J28Sa_bkbTZJZv1KAcbY-2" style="edgeStyle=elbowEdgeStyle;rounded=0;orthogonalLoop=1;jettySize=auto;html=1;entryX=0.5;entryY=0;entryDx=0;entryDy=0;endArrow=open;startSize=14;endSize=14;sourcePerimeterSpacing=8;targetPerimeterSpacing=8;exitX=-0.031;exitY=0.57;exitDx=0;exitDy=0;exitPerimeter=0;" edge="1" parent="Bbwi8fSW1S6Drep4O9ry-1" source="J28Sa_bkbTZJZv1KAcbY-1" target="Bbwi8fSW1S6Drep4O9ry-23">
          <mxGeometry relative="1" as="geometry">
            <Array as="points">
              <mxPoint x="140" y="360" />
            </Array>
          </mxGeometry>
        </mxCell>
        <mxCell id="J28Sa_bkbTZJZv1KAcbY-1" value="4 mL of methanol&lt;br&gt;" style="text;html=1;align=center;verticalAlign=middle;resizable=0;points=[];autosize=1;strokeColor=none;fillColor=none;" vertex="1" parent="Bbwi8fSW1S6Drep4O9ry-1">
          <mxGeometry x="180" y="330" width="110" height="20" as="geometry" />
        </mxCell>
      </root>
    </mxGraphModel>
  </diagram>
  <diagram id="Ht1M8jgEwFfnCIfOTk4-" name="Page-1">
    <mxGraphModel dx="613" dy="545" grid="1" gridSize="10" guides="1" tooltips="1" connect="1" arrows="1" fold="1" page="1" pageScale="1" pageWidth="827" pageHeight="1169" math="0" shadow="0">
      <root>
        <mxCell id="0" />
        <mxCell id="1" parent="0" />
        <mxCell id="jZVaUwOg5UY3L9NAnvdq-71" value="AWS Cloud" style="points=[[0,0],[0.25,0],[0.5,0],[0.75,0],[1,0],[1,0.25],[1,0.5],[1,0.75],[1,1],[0.75,1],[0.5,1],[0.25,1],[0,1],[0,0.75],[0,0.5],[0,0.25]];outlineConnect=0;gradientColor=none;html=1;whiteSpace=wrap;fontSize=12;fontStyle=0;shape=mxgraph.aws4.group;grIcon=mxgraph.aws4.group_aws_cloud_alt;strokeColor=#232F3E;fillColor=none;verticalAlign=top;align=left;spacingLeft=30;fontColor=#232F3E;dashed=0;labelBackgroundColor=none;" parent="1" vertex="1">
          <mxGeometry x="263" y="125" width="1097" height="757" as="geometry" />
        </mxCell>
        <mxCell id="jZVaUwOg5UY3L9NAnvdq-109" style="edgeStyle=elbowEdgeStyle;rounded=0;orthogonalLoop=1;jettySize=auto;html=1;endArrow=open;endFill=0;strokeColor=#545B64;strokeWidth=2;fontSize=14;" parent="1" target="jZVaUwOg5UY3L9NAnvdq-72" edge="1">
          <mxGeometry relative="1" as="geometry">
            <mxPoint x="240" y="382" as="sourcePoint" />
            <Array as="points">
              <mxPoint x="339" y="322" />
            </Array>
          </mxGeometry>
        </mxCell>
        <mxCell id="jZVaUwOg5UY3L9NAnvdq-110" style="edgeStyle=elbowEdgeStyle;rounded=0;orthogonalLoop=1;jettySize=auto;html=1;endArrow=open;endFill=0;strokeColor=#545B64;strokeWidth=2;fontSize=14;" parent="1" target="jZVaUwOg5UY3L9NAnvdq-74" edge="1">
          <mxGeometry relative="1" as="geometry">
            <mxPoint x="240" y="418" as="sourcePoint" />
          </mxGeometry>
        </mxCell>
        <mxCell id="jZVaUwOg5UY3L9NAnvdq-111" value="" style="edgeStyle=elbowEdgeStyle;rounded=0;orthogonalLoop=1;jettySize=auto;html=1;endArrow=open;endFill=0;strokeColor=#545B64;strokeWidth=2;fontSize=14;" parent="1" source="jZVaUwOg5UY3L9NAnvdq-74" target="jZVaUwOg5UY3L9NAnvdq-75" edge="1">
          <mxGeometry relative="1" as="geometry" />
        </mxCell>
        <mxCell id="jZVaUwOg5UY3L9NAnvdq-112" value="" style="edgeStyle=elbowEdgeStyle;rounded=0;orthogonalLoop=1;jettySize=auto;html=1;endArrow=open;endFill=0;strokeColor=#545B64;strokeWidth=2;fontSize=14;" parent="1" source="jZVaUwOg5UY3L9NAnvdq-75" target="jZVaUwOg5UY3L9NAnvdq-80" edge="1">
          <mxGeometry relative="1" as="geometry" />
        </mxCell>
        <mxCell id="jZVaUwOg5UY3L9NAnvdq-116" value="" style="edgeStyle=elbowEdgeStyle;rounded=0;orthogonalLoop=1;jettySize=auto;html=1;endArrow=open;endFill=0;strokeColor=#545B64;strokeWidth=2;fontSize=14;" parent="1" source="jZVaUwOg5UY3L9NAnvdq-77" target="jZVaUwOg5UY3L9NAnvdq-76" edge="1">
          <mxGeometry relative="1" as="geometry" />
        </mxCell>
        <mxCell id="jZVaUwOg5UY3L9NAnvdq-117" value="" style="edgeStyle=elbowEdgeStyle;rounded=0;orthogonalLoop=1;jettySize=auto;html=1;endArrow=open;endFill=0;strokeColor=#545B64;strokeWidth=2;fontSize=14;" parent="1" source="jZVaUwOg5UY3L9NAnvdq-77" target="jZVaUwOg5UY3L9NAnvdq-78" edge="1">
          <mxGeometry relative="1" as="geometry" />
        </mxCell>
        <mxCell id="jZVaUwOg5UY3L9NAnvdq-119" value="" style="edgeStyle=elbowEdgeStyle;rounded=0;orthogonalLoop=1;jettySize=auto;html=1;endArrow=open;endFill=0;strokeColor=#545B64;strokeWidth=2;fontSize=14;" parent="1" source="jZVaUwOg5UY3L9NAnvdq-78" target="jZVaUwOg5UY3L9NAnvdq-91" edge="1">
          <mxGeometry relative="1" as="geometry">
            <Array as="points">
              <mxPoint x="1170" y="232" />
            </Array>
          </mxGeometry>
        </mxCell>
        <mxCell id="jZVaUwOg5UY3L9NAnvdq-123" value="" style="edgeStyle=orthogonalEdgeStyle;rounded=0;orthogonalLoop=1;jettySize=auto;html=1;endArrow=open;endFill=0;strokeColor=#545B64;strokeWidth=2;fontSize=14;" parent="1" source="jZVaUwOg5UY3L9NAnvdq-78" target="jZVaUwOg5UY3L9NAnvdq-93" edge="1">
          <mxGeometry relative="1" as="geometry">
            <Array as="points">
              <mxPoint x="1170" y="272" />
              <mxPoint x="1170" y="295" />
            </Array>
          </mxGeometry>
        </mxCell>
        <mxCell id="jZVaUwOg5UY3L9NAnvdq-113" value="" style="edgeStyle=elbowEdgeStyle;rounded=0;orthogonalLoop=1;jettySize=auto;html=1;endArrow=open;endFill=0;strokeColor=#545B64;strokeWidth=2;fontSize=14;" parent="1" source="jZVaUwOg5UY3L9NAnvdq-80" target="jZVaUwOg5UY3L9NAnvdq-81" edge="1">
          <mxGeometry relative="1" as="geometry" />
        </mxCell>
        <mxCell id="jZVaUwOg5UY3L9NAnvdq-114" value="" style="edgeStyle=elbowEdgeStyle;rounded=0;orthogonalLoop=1;jettySize=auto;html=1;endArrow=open;endFill=0;strokeColor=#545B64;strokeWidth=2;fontSize=14;" parent="1" source="jZVaUwOg5UY3L9NAnvdq-81" target="jZVaUwOg5UY3L9NAnvdq-82" edge="1">
          <mxGeometry relative="1" as="geometry" />
        </mxCell>
        <mxCell id="jZVaUwOg5UY3L9NAnvdq-115" value="" style="edgeStyle=elbowEdgeStyle;rounded=0;orthogonalLoop=1;jettySize=auto;html=1;endArrow=open;endFill=0;strokeColor=#545B64;strokeWidth=2;fontSize=14;" parent="1" source="jZVaUwOg5UY3L9NAnvdq-81" target="jZVaUwOg5UY3L9NAnvdq-77" edge="1">
          <mxGeometry relative="1" as="geometry" />
        </mxCell>
        <mxCell id="jZVaUwOg5UY3L9NAnvdq-128" value="" style="edgeStyle=elbowEdgeStyle;rounded=0;orthogonalLoop=1;jettySize=auto;html=1;endArrow=open;endFill=0;strokeColor=#545B64;strokeWidth=2;fontSize=14;" parent="1" source="jZVaUwOg5UY3L9NAnvdq-81" target="jZVaUwOg5UY3L9NAnvdq-89" edge="1">
          <mxGeometry relative="1" as="geometry" />
        </mxCell>
        <mxCell id="jZVaUwOg5UY3L9NAnvdq-126" value="" style="edgeStyle=elbowEdgeStyle;rounded=0;orthogonalLoop=1;jettySize=auto;html=1;endArrow=open;endFill=0;strokeColor=#545B64;strokeWidth=2;fontSize=14;" parent="1" source="jZVaUwOg5UY3L9NAnvdq-82" target="jZVaUwOg5UY3L9NAnvdq-97" edge="1">
          <mxGeometry relative="1" as="geometry">
            <Array as="points">
              <mxPoint x="1079" y="602" />
            </Array>
          </mxGeometry>
        </mxCell>
        <mxCell id="jZVaUwOg5UY3L9NAnvdq-138" value="" style="edgeStyle=elbowEdgeStyle;rounded=0;orthogonalLoop=1;jettySize=auto;html=1;endArrow=open;endFill=0;strokeColor=#545B64;strokeWidth=2;fontSize=14;elbow=vertical;" parent="1" source="jZVaUwOg5UY3L9NAnvdq-84" edge="1">
          <mxGeometry relative="1" as="geometry">
            <mxPoint x="240" y="757" as="targetPoint" />
          </mxGeometry>
        </mxCell>
        <mxCell id="jZVaUwOg5UY3L9NAnvdq-132" value="" style="edgeStyle=elbowEdgeStyle;rounded=0;orthogonalLoop=1;jettySize=auto;html=1;endArrow=open;endFill=0;strokeColor=#545B64;strokeWidth=2;fontSize=14;" parent="1" source="jZVaUwOg5UY3L9NAnvdq-85" target="jZVaUwOg5UY3L9NAnvdq-87" edge="1">
          <mxGeometry relative="1" as="geometry" />
        </mxCell>
        <mxCell id="jZVaUwOg5UY3L9NAnvdq-140" value="" style="edgeStyle=elbowEdgeStyle;rounded=0;orthogonalLoop=1;jettySize=auto;html=1;endArrow=open;endFill=0;strokeColor=#545B64;strokeWidth=2;fontSize=14;" parent="1" edge="1">
          <mxGeometry relative="1" as="geometry">
            <mxPoint x="472" y="756" as="sourcePoint" />
            <mxPoint x="240" y="681" as="targetPoint" />
            <Array as="points">
              <mxPoint x="410" y="721" />
            </Array>
          </mxGeometry>
        </mxCell>
        <mxCell id="jZVaUwOg5UY3L9NAnvdq-160" value="" style="edgeStyle=elbowEdgeStyle;rounded=0;orthogonalLoop=1;jettySize=auto;html=1;endArrow=open;endFill=0;strokeColor=#545B64;strokeWidth=2;fontSize=14;" parent="1" edge="1">
          <mxGeometry relative="1" as="geometry">
            <mxPoint x="472" y="756.5" as="sourcePoint" />
            <mxPoint x="378" y="756.5" as="targetPoint" />
          </mxGeometry>
        </mxCell>
        <mxCell id="jZVaUwOg5UY3L9NAnvdq-136" value="" style="edgeStyle=elbowEdgeStyle;rounded=0;orthogonalLoop=1;jettySize=auto;html=1;endArrow=open;endFill=0;strokeColor=#545B64;strokeWidth=2;fontSize=14;" parent="1" source="jZVaUwOg5UY3L9NAnvdq-87" target="jZVaUwOg5UY3L9NAnvdq-75" edge="1">
          <mxGeometry relative="1" as="geometry" />
        </mxCell>
        <mxCell id="jZVaUwOg5UY3L9NAnvdq-142" value="" style="edgeStyle=elbowEdgeStyle;rounded=0;orthogonalLoop=1;jettySize=auto;html=1;endArrow=open;endFill=0;strokeColor=#545B64;strokeWidth=2;fontSize=14;" parent="1" source="jZVaUwOg5UY3L9NAnvdq-88" target="jZVaUwOg5UY3L9NAnvdq-86" edge="1">
          <mxGeometry relative="1" as="geometry" />
        </mxCell>
        <mxCell id="jZVaUwOg5UY3L9NAnvdq-144" value="" style="edgeStyle=elbowEdgeStyle;rounded=0;orthogonalLoop=1;jettySize=auto;html=1;endArrow=open;endFill=0;strokeColor=#545B64;strokeWidth=2;fontSize=14;" parent="1" source="jZVaUwOg5UY3L9NAnvdq-90" target="jZVaUwOg5UY3L9NAnvdq-88" edge="1">
          <mxGeometry relative="1" as="geometry">
            <mxPoint x="848" y="912" as="targetPoint" />
          </mxGeometry>
        </mxCell>
        <mxCell id="jZVaUwOg5UY3L9NAnvdq-121" value="" style="edgeStyle=elbowEdgeStyle;rounded=0;orthogonalLoop=1;jettySize=auto;html=1;endArrow=open;endFill=0;strokeColor=#545B64;strokeWidth=2;fontSize=14;" parent="1" source="jZVaUwOg5UY3L9NAnvdq-91" target="jZVaUwOg5UY3L9NAnvdq-92" edge="1">
          <mxGeometry relative="1" as="geometry" />
        </mxCell>
        <mxCell id="jZVaUwOg5UY3L9NAnvdq-147" value="" style="edgeStyle=elbowEdgeStyle;rounded=0;orthogonalLoop=1;jettySize=auto;html=1;endArrow=open;endFill=0;strokeColor=#545B64;strokeWidth=2;fontSize=14;" parent="1" source="jZVaUwOg5UY3L9NAnvdq-97" target="jZVaUwOg5UY3L9NAnvdq-98" edge="1">
          <mxGeometry relative="1" as="geometry" />
        </mxCell>
        <mxCell id="jZVaUwOg5UY3L9NAnvdq-155" value="" style="edgeStyle=elbowEdgeStyle;rounded=0;orthogonalLoop=1;jettySize=auto;html=1;endArrow=open;endFill=0;strokeColor=#545B64;strokeWidth=2;fontSize=14;" parent="1" source="jZVaUwOg5UY3L9NAnvdq-97" target="jZVaUwOg5UY3L9NAnvdq-96" edge="1">
          <mxGeometry relative="1" as="geometry">
            <mxPoint x="1390" y="504" as="targetPoint" />
          </mxGeometry>
        </mxCell>
        <mxCell id="jZVaUwOg5UY3L9NAnvdq-146" value="" style="edgeStyle=elbowEdgeStyle;rounded=0;orthogonalLoop=1;jettySize=auto;html=1;endArrow=open;endFill=0;strokeColor=#545B64;strokeWidth=2;fontSize=14;" parent="1" source="jZVaUwOg5UY3L9NAnvdq-98" target="jZVaUwOg5UY3L9NAnvdq-90" edge="1">
          <mxGeometry relative="1" as="geometry" />
        </mxCell>
        <mxCell id="jZVaUwOg5UY3L9NAnvdq-151" value="" style="edgeStyle=elbowEdgeStyle;rounded=0;orthogonalLoop=1;jettySize=auto;html=1;endArrow=open;endFill=0;strokeColor=#545B64;strokeWidth=2;fontSize=14;" parent="1" source="jZVaUwOg5UY3L9NAnvdq-99" target="jZVaUwOg5UY3L9NAnvdq-97" edge="1">
          <mxGeometry relative="1" as="geometry" />
        </mxCell>
        <mxCell id="jZVaUwOg5UY3L9NAnvdq-149" value="" style="rounded=0;orthogonalLoop=1;jettySize=auto;html=1;endArrow=open;endFill=0;strokeColor=#545B64;strokeWidth=2;fontSize=14;" parent="1" source="jZVaUwOg5UY3L9NAnvdq-100" target="jZVaUwOg5UY3L9NAnvdq-97" edge="1">
          <mxGeometry relative="1" as="geometry" />
        </mxCell>
        <mxCell id="jZVaUwOg5UY3L9NAnvdq-124" value="" style="edgeStyle=elbowEdgeStyle;rounded=0;orthogonalLoop=1;jettySize=auto;html=1;endArrow=open;endFill=0;strokeColor=#545B64;strokeWidth=2;fontSize=14;" parent="1" source="jZVaUwOg5UY3L9NAnvdq-78" target="jZVaUwOg5UY3L9NAnvdq-94" edge="1">
          <mxGeometry relative="1" as="geometry">
            <mxPoint x="1108" y="281.5" as="sourcePoint" />
            <mxPoint x="1490.2117381489843" y="345" as="targetPoint" />
            <Array as="points">
              <mxPoint x="1170" y="332" />
            </Array>
          </mxGeometry>
        </mxCell>
        <mxCell id="jZVaUwOg5UY3L9NAnvdq-129" style="edgeStyle=elbowEdgeStyle;rounded=0;orthogonalLoop=1;jettySize=auto;html=1;endArrow=open;endFill=0;strokeColor=#545B64;strokeWidth=2;fontSize=14;exitX=1;exitY=0.5;exitDx=0;exitDy=0;elbow=vertical;" parent="1" source="jZVaUwOg5UY3L9NAnvdq-62" target="jZVaUwOg5UY3L9NAnvdq-83" edge="1">
          <mxGeometry relative="1" as="geometry">
            <mxPoint x="220" y="462" as="sourcePoint" />
            <mxPoint x="482" y="428" as="targetPoint" />
          </mxGeometry>
        </mxCell>
        <mxCell id="jZVaUwOg5UY3L9NAnvdq-130" style="edgeStyle=elbowEdgeStyle;rounded=0;orthogonalLoop=1;jettySize=auto;html=1;endArrow=open;endFill=0;strokeColor=#545B64;strokeWidth=2;fontSize=14;" parent="1" target="jZVaUwOg5UY3L9NAnvdq-85" edge="1">
          <mxGeometry relative="1" as="geometry">
            <mxPoint x="240" y="452" as="sourcePoint" />
            <mxPoint x="482" y="428" as="targetPoint" />
            <Array as="points">
              <mxPoint x="410" y="512" />
            </Array>
          </mxGeometry>
        </mxCell>
        <mxCell id="jZVaUwOg5UY3L9NAnvdq-158" style="edgeStyle=elbowEdgeStyle;rounded=0;orthogonalLoop=1;jettySize=auto;html=1;endArrow=open;endFill=0;strokeColor=#545B64;strokeWidth=2;fontSize=14;" parent="1" target="jZVaUwOg5UY3L9NAnvdq-73" edge="1">
          <mxGeometry relative="1" as="geometry">
            <mxPoint x="240" y="382" as="sourcePoint" />
            <mxPoint x="349" y="290" as="targetPoint" />
            <Array as="points">
              <mxPoint x="430" y="312" />
            </Array>
          </mxGeometry>
        </mxCell>
        <mxCell id="-QjtrjUzRDEMRZ5MF8oH-46" value="" style="rounded=0;whiteSpace=wrap;html=1;fillColor=#EAEDED;fontSize=22;fontColor=#FFFFFF;strokeColor=none;labelBackgroundColor=none;" parent="1" vertex="1">
          <mxGeometry x="1544.5" y="37" width="539" height="1080" as="geometry" />
        </mxCell>
        <mxCell id="-QjtrjUzRDEMRZ5MF8oH-36" value="1" style="rounded=1;whiteSpace=wrap;html=1;fillColor=#007CBD;strokeColor=none;fontColor=#FFFFFF;fontStyle=1;fontSize=22;labelBackgroundColor=none;" parent="1" vertex="1">
          <mxGeometry x="1563" y="49.5" width="40" height="38" as="geometry" />
        </mxCell>
        <mxCell id="-QjtrjUzRDEMRZ5MF8oH-37" value="2" style="rounded=1;whiteSpace=wrap;html=1;fillColor=#007CBD;strokeColor=none;fontColor=#FFFFFF;fontStyle=1;fontSize=22;labelBackgroundColor=none;" parent="1" vertex="1">
          <mxGeometry x="1561.5" y="171.5" width="40" height="38" as="geometry" />
        </mxCell>
        <mxCell id="-QjtrjUzRDEMRZ5MF8oH-38" value="3" style="rounded=1;whiteSpace=wrap;html=1;fillColor=#007CBD;strokeColor=none;fontColor=#FFFFFF;fontStyle=1;fontSize=22;labelBackgroundColor=none;" parent="1" vertex="1">
          <mxGeometry x="1561.5" y="291.5" width="40" height="38" as="geometry" />
        </mxCell>
        <mxCell id="-QjtrjUzRDEMRZ5MF8oH-39" value="4" style="rounded=1;whiteSpace=wrap;html=1;fillColor=#007CBD;strokeColor=none;fontColor=#FFFFFF;fontStyle=1;fontSize=22;labelBackgroundColor=none;" parent="1" vertex="1">
          <mxGeometry x="1561.5" y="405.5" width="40" height="38" as="geometry" />
        </mxCell>
        <mxCell id="-QjtrjUzRDEMRZ5MF8oH-40" value="5" style="rounded=1;whiteSpace=wrap;html=1;fillColor=#007CBD;strokeColor=none;fontColor=#FFFFFF;fontStyle=1;fontSize=22;labelBackgroundColor=none;" parent="1" vertex="1">
          <mxGeometry x="1563" y="522.5" width="40" height="38" as="geometry" />
        </mxCell>
        <mxCell id="-QjtrjUzRDEMRZ5MF8oH-41" value="6" style="rounded=1;whiteSpace=wrap;html=1;fillColor=#007CBD;strokeColor=none;fontColor=#FFFFFF;fontStyle=1;fontSize=22;labelBackgroundColor=none;" parent="1" vertex="1">
          <mxGeometry x="1564" y="637.5" width="40" height="38" as="geometry" />
        </mxCell>
        <mxCell id="-QjtrjUzRDEMRZ5MF8oH-42" value="7" style="rounded=1;whiteSpace=wrap;html=1;fillColor=#007CBD;strokeColor=none;fontColor=#FFFFFF;fontStyle=1;fontSize=22;labelBackgroundColor=none;" parent="1" vertex="1">
          <mxGeometry x="1563.5" y="753.5" width="40" height="38" as="geometry" />
        </mxCell>
        <mxCell id="-QjtrjUzRDEMRZ5MF8oH-43" value="8" style="rounded=1;whiteSpace=wrap;html=1;fillColor=#007CBD;strokeColor=none;fontColor=#FFFFFF;fontStyle=1;fontSize=22;labelBackgroundColor=none;" parent="1" vertex="1">
          <mxGeometry x="1564" y="871.5" width="40" height="38" as="geometry" />
        </mxCell>
        <mxCell id="-QjtrjUzRDEMRZ5MF8oH-44" value="9" style="rounded=1;whiteSpace=wrap;html=1;fillColor=#007CBD;strokeColor=none;fontColor=#FFFFFF;fontStyle=1;fontSize=22;labelBackgroundColor=none;" parent="1" vertex="1">
          <mxGeometry x="1562" y="991.5" width="40" height="38" as="geometry" />
        </mxCell>
        <mxCell id="-QjtrjUzRDEMRZ5MF8oH-47" value="Title text&lt;br&gt;" style="text;html=1;resizable=0;points=[];autosize=1;align=left;verticalAlign=top;spacingTop=-4;fontSize=30;fontStyle=1;labelBackgroundColor=none;" parent="1" vertex="1">
          <mxGeometry x="36.5" y="26.5" width="130" height="40" as="geometry" />
        </mxCell>
        <mxCell id="-QjtrjUzRDEMRZ5MF8oH-48" value="Sub-title text&lt;br style=&quot;font-size: 16px&quot;&gt;" style="text;html=1;resizable=0;points=[];autosize=1;align=left;verticalAlign=top;spacingTop=-4;fontSize=16;labelBackgroundColor=none;" parent="1" vertex="1">
          <mxGeometry x="36.5" y="76.5" width="100" height="20" as="geometry" />
        </mxCell>
        <mxCell id="SCVMTBWpLvtzJIhz15lM-1" value="" style="line;strokeWidth=2;html=1;fontSize=14;labelBackgroundColor=none;" parent="1" vertex="1">
          <mxGeometry x="32.5" y="101.5" width="1060" height="10" as="geometry" />
        </mxCell>
        <mxCell id="SCVMTBWpLvtzJIhz15lM-6" value="&lt;span&gt;Lorem ipsum dolor sit amet, consectetur adipiscing elit, sed do eiusmod tempor incididunt ut labore et dolore magna aliqua. Ut enim ad minim veniam, quis nostrud exercitation ullamco laboris nisi ut aliquip ex ea commodo consequat. Duis aute irure dolor in reprehenderit in voluptate velit esse cillum dolore eu fugiat nulla pariatur. Excepteur sint occaecat cupidatat non proident, sunt in culpa qui officia deserunt mollit anim id est laborum.&lt;/span&gt;&lt;br&gt;" style="text;html=1;align=left;verticalAlign=top;spacingTop=-4;fontSize=14;labelBackgroundColor=none;whiteSpace=wrap;" parent="1" vertex="1">
          <mxGeometry x="1614.5" y="49" width="449" height="118" as="geometry" />
        </mxCell>
        <mxCell id="SCVMTBWpLvtzJIhz15lM-7" value="&lt;span&gt;Lorem ipsum dolor sit amet, consectetur adipiscing elit, sed do eiusmod tempor incididunt ut labore et dolore magna aliqua. Ut enim ad minim veniam, quis nostrud exercitation ullamco laboris nisi ut aliquip ex ea commodo consequat. Duis aute irure dolor in reprehenderit in voluptate velit esse cillum dolore eu fugiat nulla pariatur. Excepteur sint occaecat cupidatat non proident, sunt in culpa qui officia deserunt mollit anim id est laborum.&lt;/span&gt;&lt;br&gt;" style="text;html=1;align=left;verticalAlign=top;spacingTop=-4;fontSize=14;labelBackgroundColor=none;whiteSpace=wrap;" parent="1" vertex="1">
          <mxGeometry x="1613.5" y="172" width="450" height="115" as="geometry" />
        </mxCell>
        <mxCell id="SCVMTBWpLvtzJIhz15lM-9" value="&lt;span&gt;Lorem ipsum dolor sit amet, consectetur adipiscing elit, sed do eiusmod tempor incididunt ut labore et dolore magna aliqua. Ut enim ad minim veniam, quis nostrud exercitation ullamco laboris nisi ut aliquip ex ea commodo consequat. Duis aute irure dolor in reprehenderit in voluptate velit esse cillum dolore eu fugiat nulla pariatur. Excepteur sint occaecat cupidatat non proident, sunt in culpa qui officia deserunt mollit anim id est laborum.&lt;/span&gt;&lt;br&gt;" style="text;html=1;align=left;verticalAlign=top;spacingTop=-4;fontSize=14;labelBackgroundColor=none;whiteSpace=wrap;" parent="1" vertex="1">
          <mxGeometry x="1613.5" y="290" width="450" height="117" as="geometry" />
        </mxCell>
        <mxCell id="SCVMTBWpLvtzJIhz15lM-10" value="&lt;span&gt;Lorem ipsum dolor sit amet, consectetur adipiscing elit, sed do eiusmod tempor incididunt ut labore et dolore magna aliqua. Ut enim ad minim veniam, quis nostrud exercitation ullamco laboris nisi ut aliquip ex ea commodo consequat. Duis aute irure dolor in reprehenderit in voluptate velit esse cillum dolore eu fugiat nulla pariatur. Excepteur sint occaecat cupidatat non proident, sunt in culpa qui officia deserunt mollit anim id est laborum.&lt;/span&gt;&lt;br&gt;" style="text;html=1;align=left;verticalAlign=top;spacingTop=-4;fontSize=14;labelBackgroundColor=none;whiteSpace=wrap;" parent="1" vertex="1">
          <mxGeometry x="1613.5" y="406" width="450" height="121" as="geometry" />
        </mxCell>
        <mxCell id="SCVMTBWpLvtzJIhz15lM-11" value="&lt;span&gt;Lorem ipsum dolor sit amet, consectetur adipiscing elit, sed do eiusmod tempor incididunt ut labore et dolore magna aliqua. Ut enim ad minim veniam, quis nostrud exercitation ullamco laboris nisi ut aliquip ex ea commodo consequat. Duis aute irure dolor in reprehenderit in voluptate velit esse cillum dolore eu fugiat nulla pariatur. Excepteur sint occaecat cupidatat non proident, sunt in culpa qui officia deserunt mollit anim id est laborum.&lt;/span&gt;&lt;br&gt;" style="text;html=1;align=left;verticalAlign=top;spacingTop=-4;fontSize=14;labelBackgroundColor=none;whiteSpace=wrap;" parent="1" vertex="1">
          <mxGeometry x="1614.5" y="523" width="449" height="114" as="geometry" />
        </mxCell>
        <mxCell id="SCVMTBWpLvtzJIhz15lM-12" value="&lt;span&gt;Lorem ipsum dolor sit amet, consectetur adipiscing elit, sed do eiusmod tempor incididunt ut labore et dolore magna aliqua. Ut enim ad minim veniam, quis nostrud exercitation ullamco laboris nisi ut aliquip ex ea commodo consequat. Duis aute irure dolor in reprehenderit in voluptate velit esse cillum dolore eu fugiat nulla pariatur. Excepteur sint occaecat cupidatat non proident, sunt in culpa qui officia deserunt mollit anim id est laborum.&lt;/span&gt;&lt;br&gt;" style="text;html=1;align=left;verticalAlign=top;spacingTop=-4;fontSize=14;labelBackgroundColor=none;whiteSpace=wrap;" parent="1" vertex="1">
          <mxGeometry x="1614.5" y="639" width="450" height="118" as="geometry" />
        </mxCell>
        <mxCell id="SCVMTBWpLvtzJIhz15lM-13" value="&lt;span&gt;Lorem ipsum dolor sit amet, consectetur adipiscing elit, sed do eiusmod tempor incididunt ut labore et dolore magna aliqua. Ut enim ad minim veniam, quis nostrud exercitation ullamco laboris nisi ut aliquip ex ea commodo consequat. Duis aute irure dolor in reprehenderit in voluptate velit esse cillum dolore eu fugiat nulla pariatur. Excepteur sint occaecat cupidatat non proident, sunt in culpa qui officia deserunt mollit anim id est laborum.&lt;/span&gt;&lt;br&gt;" style="text;html=1;align=left;verticalAlign=top;spacingTop=-4;fontSize=14;labelBackgroundColor=none;whiteSpace=wrap;" parent="1" vertex="1">
          <mxGeometry x="1614.5" y="754" width="449" height="113" as="geometry" />
        </mxCell>
        <mxCell id="SCVMTBWpLvtzJIhz15lM-14" value="&lt;span&gt;Lorem ipsum dolor sit amet, consectetur adipiscing elit, sed do eiusmod tempor incididunt ut labore et dolore magna aliqua. Ut enim ad minim veniam, quis nostrud exercitation ullamco laboris nisi ut aliquip ex ea commodo consequat. Duis aute irure dolor in reprehenderit in voluptate velit esse cillum dolore eu fugiat nulla pariatur. Excepteur sint occaecat cupidatat non proident, sunt in culpa qui officia deserunt mollit anim id est laborum.&lt;/span&gt;&lt;br&gt;" style="text;html=1;align=left;verticalAlign=top;spacingTop=-4;fontSize=14;labelBackgroundColor=none;whiteSpace=wrap;" parent="1" vertex="1">
          <mxGeometry x="1614.5" y="873" width="449" height="124" as="geometry" />
        </mxCell>
        <mxCell id="SCVMTBWpLvtzJIhz15lM-15" value="&lt;span&gt;Lorem ipsum dolor sit amet, consectetur adipiscing elit, sed do eiusmod tempor incididunt ut labore et dolore magna aliqua. Ut enim ad minim veniam, quis nostrud exercitation ullamco laboris nisi ut aliquip ex ea commodo consequat. Duis aute irure dolor in reprehenderit in voluptate velit esse cillum dolore eu fugiat nulla pariatur. Excepteur sint occaecat cupidatat non proident, sunt in culpa qui officia deserunt mollit anim id est laborum.&lt;/span&gt;&lt;br&gt;" style="text;html=1;align=left;verticalAlign=top;spacingTop=-4;fontSize=14;labelBackgroundColor=none;whiteSpace=wrap;" parent="1" vertex="1">
          <mxGeometry x="1614.5" y="992" width="449" height="115" as="geometry" />
        </mxCell>
        <mxCell id="jZVaUwOg5UY3L9NAnvdq-59" value="Actors" style="swimlane;fontSize=14;align=center;swimlaneFillColor=#f4f4f4;fillColor=#f4f4f4;collapsible=0;startSize=33;" parent="1" vertex="1">
          <mxGeometry x="30" y="125" width="210" height="177" as="geometry" />
        </mxCell>
        <mxCell id="jZVaUwOg5UY3L9NAnvdq-60" value="User" style="outlineConnect=0;fontColor=#232F3E;gradientColor=none;fillColor=#232F3E;strokeColor=none;dashed=0;verticalLabelPosition=bottom;verticalAlign=top;align=center;html=1;fontSize=12;fontStyle=0;aspect=fixed;pointerEvents=1;shape=mxgraph.aws4.user;labelBackgroundColor=none;" parent="jZVaUwOg5UY3L9NAnvdq-59" vertex="1">
          <mxGeometry x="16" y="54" width="78" height="78" as="geometry" />
        </mxCell>
        <mxCell id="jZVaUwOg5UY3L9NAnvdq-61" value="Payers" style="outlineConnect=0;fontColor=#232F3E;gradientColor=none;fillColor=#232F3E;strokeColor=none;dashed=0;verticalLabelPosition=bottom;verticalAlign=top;align=center;html=1;fontSize=12;fontStyle=0;aspect=fixed;pointerEvents=1;shape=mxgraph.aws4.corporate_data_center;labelBackgroundColor=none;" parent="jZVaUwOg5UY3L9NAnvdq-59" vertex="1">
          <mxGeometry x="130" y="54" width="53" height="78" as="geometry" />
        </mxCell>
        <mxCell id="jZVaUwOg5UY3L9NAnvdq-62" value="Channels" style="swimlane;fontSize=14;align=center;swimlaneFillColor=#f4f4f4;fillColor=#f4f4f4;collapsible=0;startSize=33;" parent="1" vertex="1">
          <mxGeometry x="30" y="302" width="210" height="580" as="geometry" />
        </mxCell>
        <mxCell id="jZVaUwOg5UY3L9NAnvdq-65" value="Mobile / Web" style="outlineConnect=0;fontColor=#232F3E;gradientColor=none;strokeColor=none;fillColor=#277116;dashed=0;verticalLabelPosition=bottom;verticalAlign=top;align=center;html=1;fontSize=12;fontStyle=0;shape=mxgraph.aws4.mobile_client;labelBackgroundColor=none;" parent="jZVaUwOg5UY3L9NAnvdq-62" vertex="1">
          <mxGeometry x="67.5" y="57.5" width="53" height="100" as="geometry" />
        </mxCell>
        <mxCell id="jZVaUwOg5UY3L9NAnvdq-69" value="Wearables" style="outlineConnect=0;fontColor=#232F3E;gradientColor=none;fillColor=#277116;strokeColor=none;dashed=0;verticalLabelPosition=bottom;verticalAlign=top;align=center;html=1;fontSize=12;fontStyle=0;aspect=fixed;pointerEvents=1;shape=mxgraph.aws4.medical_emergency;labelBackgroundColor=none;" parent="jZVaUwOg5UY3L9NAnvdq-62" vertex="1">
          <mxGeometry x="63" y="310" width="78" height="78" as="geometry" />
        </mxCell>
        <mxCell id="jZVaUwOg5UY3L9NAnvdq-70" value="Echo" style="outlineConnect=0;fontColor=#232F3E;gradientColor=none;fillColor=#277116;strokeColor=none;dashed=0;verticalLabelPosition=bottom;verticalAlign=top;align=center;html=1;fontSize=12;fontStyle=0;aspect=fixed;pointerEvents=1;shape=mxgraph.aws4.echo;labelBackgroundColor=none;" parent="jZVaUwOg5UY3L9NAnvdq-62" vertex="1">
          <mxGeometry x="84" y="427" width="41" height="78" as="geometry" />
        </mxCell>
        <mxCell id="jZVaUwOg5UY3L9NAnvdq-95" value="API" style="outlineConnect=0;fontColor=#232F3E;gradientColor=none;fillColor=#277116;strokeColor=none;dashed=0;verticalLabelPosition=bottom;verticalAlign=top;align=center;html=1;fontSize=12;fontStyle=0;aspect=fixed;pointerEvents=1;shape=mxgraph.aws4.external_sdk;labelBackgroundColor=none;" parent="jZVaUwOg5UY3L9NAnvdq-62" vertex="1">
          <mxGeometry x="73" y="208.5" width="68" height="78" as="geometry" />
        </mxCell>
        <mxCell id="jZVaUwOg5UY3L9NAnvdq-101" value="1" style="rounded=1;whiteSpace=wrap;html=1;fillColor=#007CBD;strokeColor=none;fontColor=#FFFFFF;fontStyle=1;fontSize=22;labelBackgroundColor=none;" parent="jZVaUwOg5UY3L9NAnvdq-62" vertex="1">
          <mxGeometry x="143" y="61" width="40" height="38" as="geometry" />
        </mxCell>
        <mxCell id="-QjtrjUzRDEMRZ5MF8oH-28" value="4" style="rounded=1;whiteSpace=wrap;html=1;fillColor=#007CBD;strokeColor=none;fontColor=#FFFFFF;fontStyle=1;fontSize=22;labelBackgroundColor=none;" parent="1" vertex="1">
          <mxGeometry x="559" y="352" width="40" height="38" as="geometry" />
        </mxCell>
        <mxCell id="jZVaUwOg5UY3L9NAnvdq-72" value="Amazon Lex" style="outlineConnect=0;fontColor=#232F3E;gradientColor=#4AB29A;gradientDirection=north;fillColor=#116D5B;strokeColor=#ffffff;dashed=0;verticalLabelPosition=bottom;verticalAlign=top;align=center;html=1;fontSize=12;fontStyle=0;aspect=fixed;shape=mxgraph.aws4.resourceIcon;resIcon=mxgraph.aws4.lex;labelBackgroundColor=#ffffff;spacingTop=8;" parent="1" vertex="1">
          <mxGeometry x="300" y="202" width="78" height="78" as="geometry" />
        </mxCell>
        <mxCell id="jZVaUwOg5UY3L9NAnvdq-73" value="Amazon S3" style="outlineConnect=0;fontColor=#232F3E;gradientColor=#60A337;gradientDirection=north;fillColor=#277116;strokeColor=#ffffff;dashed=0;verticalLabelPosition=bottom;verticalAlign=top;align=center;html=1;fontSize=12;fontStyle=0;aspect=fixed;shape=mxgraph.aws4.resourceIcon;resIcon=mxgraph.aws4.s3;labelBackgroundColor=none;" parent="1" vertex="1">
          <mxGeometry x="476" y="179" width="78" height="78" as="geometry" />
        </mxCell>
        <mxCell id="jZVaUwOg5UY3L9NAnvdq-74" value="Amazon API&lt;br&gt;Gateway&lt;br&gt;" style="outlineConnect=0;fontColor=#232F3E;gradientColor=#945DF2;gradientDirection=north;fillColor=#5A30B5;strokeColor=#ffffff;dashed=0;verticalLabelPosition=bottom;verticalAlign=top;align=center;html=1;fontSize=12;fontStyle=0;aspect=fixed;shape=mxgraph.aws4.resourceIcon;resIcon=mxgraph.aws4.api_gateway;labelBackgroundColor=none;" parent="1" vertex="1">
          <mxGeometry x="472" y="378.99999999999994" width="78" height="78" as="geometry" />
        </mxCell>
        <mxCell id="jZVaUwOg5UY3L9NAnvdq-75" value="Amazon Kinesis&lt;br&gt;Data Streams&lt;br&gt;" style="outlineConnect=0;fontColor=#232F3E;gradientColor=#945DF2;gradientDirection=north;fillColor=#5A30B5;strokeColor=#ffffff;dashed=0;verticalLabelPosition=bottom;verticalAlign=top;align=center;html=1;fontSize=12;fontStyle=0;aspect=fixed;shape=mxgraph.aws4.resourceIcon;resIcon=mxgraph.aws4.kinesis_data_streams;labelBackgroundColor=#ffffff;spacingTop=5;" parent="1" vertex="1">
          <mxGeometry x="609" y="378.99999999999994" width="78" height="78" as="geometry" />
        </mxCell>
        <mxCell id="jZVaUwOg5UY3L9NAnvdq-76" value="Amazon&lt;br&gt;ElasticSearch&lt;br&gt;" style="outlineConnect=0;fontColor=#232F3E;gradientColor=#945DF2;gradientDirection=north;fillColor=#5A30B5;strokeColor=#ffffff;dashed=0;verticalLabelPosition=bottom;verticalAlign=top;align=center;html=1;fontSize=12;fontStyle=0;aspect=fixed;shape=mxgraph.aws4.resourceIcon;resIcon=mxgraph.aws4.elasticsearch_service;labelBackgroundColor=none;" parent="1" vertex="1">
          <mxGeometry x="744" y="232.5" width="78" height="78" as="geometry" />
        </mxCell>
        <mxCell id="jZVaUwOg5UY3L9NAnvdq-77" value="DynamoDB&lt;br&gt;Streams&lt;br&gt;" style="outlineConnect=0;fontColor=#232F3E;gradientColor=#4D72F3;gradientDirection=north;fillColor=#3334B9;strokeColor=#ffffff;dashed=0;verticalLabelPosition=bottom;verticalAlign=top;align=center;html=1;fontSize=12;fontStyle=0;aspect=fixed;shape=mxgraph.aws4.resourceIcon;resIcon=mxgraph.aws4.dynamodb;labelBackgroundColor=#ffffff;spacingTop=6;" parent="1" vertex="1">
          <mxGeometry x="923.0000000000002" y="232.5" width="78" height="78" as="geometry" />
        </mxCell>
        <mxCell id="jZVaUwOg5UY3L9NAnvdq-78" value="Subscriber&lt;br&gt;Processor&lt;br&gt;" style="outlineConnect=0;fontColor=#232F3E;gradientColor=none;fillColor=#D05C17;strokeColor=none;dashed=0;verticalLabelPosition=bottom;verticalAlign=top;align=center;html=1;fontSize=12;fontStyle=0;aspect=fixed;pointerEvents=1;shape=mxgraph.aws4.lambda_function;labelBackgroundColor=none;" parent="1" vertex="1">
          <mxGeometry x="1040" y="232.5" width="78" height="78" as="geometry" />
        </mxCell>
        <mxCell id="jZVaUwOg5UY3L9NAnvdq-80" value="Request&lt;br&gt;Processor&lt;br&gt;" style="outlineConnect=0;fontColor=#232F3E;gradientColor=none;fillColor=#D05C17;strokeColor=none;dashed=0;verticalLabelPosition=bottom;verticalAlign=top;align=center;html=1;fontSize=12;fontStyle=0;aspect=fixed;pointerEvents=1;shape=mxgraph.aws4.lambda_function;labelBackgroundColor=#ffffff;spacingTop=7;" parent="1" vertex="1">
          <mxGeometry x="744" y="378.9999999999999" width="78" height="78" as="geometry" />
        </mxCell>
        <mxCell id="jZVaUwOg5UY3L9NAnvdq-81" value="Amazon&lt;br&gt;DynamoDB&lt;br&gt;" style="outlineConnect=0;fontColor=#232F3E;gradientColor=#4D72F3;gradientDirection=north;fillColor=#3334B9;strokeColor=#ffffff;dashed=0;verticalLabelPosition=bottom;verticalAlign=top;align=center;html=1;fontSize=12;fontStyle=0;aspect=fixed;shape=mxgraph.aws4.resourceIcon;resIcon=mxgraph.aws4.dynamodb;labelBackgroundColor=#ffffff;" parent="1" vertex="1">
          <mxGeometry x="923.0000000000003" y="378.99999999999994" width="78" height="78" as="geometry" />
        </mxCell>
        <mxCell id="jZVaUwOg5UY3L9NAnvdq-82" value="ERL Function" style="outlineConnect=0;fontColor=#232F3E;gradientColor=none;fillColor=#D05C17;strokeColor=none;dashed=0;verticalLabelPosition=bottom;verticalAlign=top;align=center;html=1;fontSize=12;fontStyle=0;aspect=fixed;pointerEvents=1;shape=mxgraph.aws4.lambda_function;labelBackgroundColor=#ffffff;spacingTop=2;" parent="1" vertex="1">
          <mxGeometry x="1040" y="378.99999999999994" width="78" height="78" as="geometry" />
        </mxCell>
        <mxCell id="jZVaUwOg5UY3L9NAnvdq-83" value="Amazon Cognito" style="outlineConnect=0;fontColor=#232F3E;gradientColor=#F54749;gradientDirection=north;fillColor=#C7131F;strokeColor=#ffffff;dashed=0;verticalLabelPosition=bottom;verticalAlign=top;align=center;html=1;fontSize=12;fontStyle=0;aspect=fixed;shape=mxgraph.aws4.resourceIcon;resIcon=mxgraph.aws4.cognito;labelBackgroundColor=none;" parent="1" vertex="1">
          <mxGeometry x="300" y="556" width="78" height="78" as="geometry" />
        </mxCell>
        <mxCell id="jZVaUwOg5UY3L9NAnvdq-84" value="Amazon Polly" style="outlineConnect=0;fontColor=#232F3E;gradientColor=#4AB29A;gradientDirection=north;fillColor=#116D5B;strokeColor=#ffffff;dashed=0;verticalLabelPosition=bottom;verticalAlign=top;align=center;html=1;fontSize=12;fontStyle=0;aspect=fixed;shape=mxgraph.aws4.resourceIcon;resIcon=mxgraph.aws4.polly;labelBackgroundColor=none;" parent="1" vertex="1">
          <mxGeometry x="300" y="717.5" width="78" height="78" as="geometry" />
        </mxCell>
        <mxCell id="jZVaUwOg5UY3L9NAnvdq-85" value="AWS IoT Core" style="outlineConnect=0;fontColor=#232F3E;gradientColor=#60A337;gradientDirection=north;fillColor=#277116;strokeColor=#ffffff;dashed=0;verticalLabelPosition=bottom;verticalAlign=top;align=center;html=1;fontSize=12;fontStyle=0;aspect=fixed;shape=mxgraph.aws4.resourceIcon;resIcon=mxgraph.aws4.iot_core;labelBackgroundColor=none;" parent="1" vertex="1">
          <mxGeometry x="472" y="560.5" width="78" height="78" as="geometry" />
        </mxCell>
        <mxCell id="jZVaUwOg5UY3L9NAnvdq-86" value="Amazon Pinpoint" style="outlineConnect=0;fontColor=#232F3E;gradientColor=#F54749;gradientDirection=north;fillColor=#C7131F;strokeColor=#ffffff;dashed=0;verticalLabelPosition=bottom;verticalAlign=top;align=center;html=1;fontSize=12;fontStyle=0;aspect=fixed;shape=mxgraph.aws4.resourceIcon;resIcon=mxgraph.aws4.pinpoint;labelBackgroundColor=none;" parent="1" vertex="1">
          <mxGeometry x="472" y="717.4999999999999" width="78" height="78" as="geometry" />
        </mxCell>
        <mxCell id="jZVaUwOg5UY3L9NAnvdq-87" value="IoT Rule" style="outlineConnect=0;fontColor=#232F3E;gradientColor=none;fillColor=#277116;strokeColor=none;dashed=0;verticalLabelPosition=bottom;verticalAlign=top;align=center;html=1;fontSize=12;fontStyle=0;aspect=fixed;pointerEvents=1;shape=mxgraph.aws4.rule;labelBackgroundColor=none;" parent="1" vertex="1">
          <mxGeometry x="625" y="560.5" width="46" height="78" as="geometry" />
        </mxCell>
        <mxCell id="jZVaUwOg5UY3L9NAnvdq-88" value="Users&lt;br&gt;" style="outlineConnect=0;fontColor=#232F3E;gradientColor=none;fillColor=#232F3E;strokeColor=none;dashed=0;verticalLabelPosition=bottom;verticalAlign=top;align=center;html=1;fontSize=12;fontStyle=0;aspect=fixed;pointerEvents=1;shape=mxgraph.aws4.users;labelBackgroundColor=none;" parent="1" vertex="1">
          <mxGeometry x="687" y="717.4999999999999" width="78" height="78" as="geometry" />
        </mxCell>
        <mxCell id="jZVaUwOg5UY3L9NAnvdq-89" value="Amazon&lt;br&gt;Comprehend&lt;br&gt;Medical&lt;br&gt;" style="outlineConnect=0;fontColor=#232F3E;gradientColor=#4AB29A;gradientDirection=north;fillColor=#116D5B;strokeColor=#ffffff;dashed=0;verticalLabelPosition=bottom;verticalAlign=top;align=center;html=1;fontSize=12;fontStyle=0;aspect=fixed;shape=mxgraph.aws4.resourceIcon;resIcon=mxgraph.aws4.comprehend;labelBackgroundColor=none;" parent="1" vertex="1">
          <mxGeometry x="923.0000000000001" y="556" width="78" height="78" as="geometry" />
        </mxCell>
        <mxCell id="jZVaUwOg5UY3L9NAnvdq-90" value="Amazon Personalize" style="outlineConnect=0;fontColor=#232F3E;gradientColor=#4AB29A;gradientDirection=north;fillColor=#116D5B;strokeColor=#ffffff;dashed=0;verticalLabelPosition=bottom;verticalAlign=top;align=center;html=1;fontSize=12;fontStyle=0;aspect=fixed;shape=mxgraph.aws4.resourceIcon;resIcon=mxgraph.aws4.personalize;labelBackgroundColor=none;" parent="1" vertex="1">
          <mxGeometry x="923.0000000000001" y="717.5" width="78" height="78" as="geometry" />
        </mxCell>
        <mxCell id="jZVaUwOg5UY3L9NAnvdq-91" value="Amazon&lt;br&gt;Pinpoint&lt;br&gt;" style="outlineConnect=0;fontColor=#232F3E;gradientColor=#F54749;gradientDirection=north;fillColor=#C7131F;strokeColor=#ffffff;dashed=0;verticalLabelPosition=bottom;verticalAlign=top;align=center;html=1;fontSize=12;fontStyle=0;aspect=fixed;shape=mxgraph.aws4.resourceIcon;resIcon=mxgraph.aws4.pinpoint;labelBackgroundColor=none;" parent="1" vertex="1">
          <mxGeometry x="1210.5" y="147.5" width="78" height="78" as="geometry" />
        </mxCell>
        <mxCell id="jZVaUwOg5UY3L9NAnvdq-92" value="User" style="outlineConnect=0;fontColor=#232F3E;gradientColor=none;fillColor=#232F3E;strokeColor=none;dashed=0;verticalLabelPosition=bottom;verticalAlign=top;align=center;html=1;fontSize=12;fontStyle=0;aspect=fixed;pointerEvents=1;shape=mxgraph.aws4.user;labelBackgroundColor=none;" parent="1" vertex="1">
          <mxGeometry x="1431.5000000000002" y="147.5" width="78" height="78" as="geometry" />
        </mxCell>
        <mxCell id="jZVaUwOg5UY3L9NAnvdq-93" value="API" style="outlineConnect=0;fontColor=#232F3E;gradientColor=none;fillColor=#232F3E;strokeColor=none;dashed=0;verticalLabelPosition=bottom;verticalAlign=top;align=center;html=1;fontSize=12;fontStyle=0;aspect=fixed;pointerEvents=1;shape=mxgraph.aws4.external_sdk;labelBackgroundColor=none;" parent="1" vertex="1">
          <mxGeometry x="1436.5000000000002" y="256" width="68" height="78" as="geometry" />
        </mxCell>
        <mxCell id="jZVaUwOg5UY3L9NAnvdq-94" value="API&lt;br&gt;" style="outlineConnect=0;fontColor=#232F3E;gradientColor=none;fillColor=#232F3E;strokeColor=none;dashed=0;verticalLabelPosition=bottom;verticalAlign=top;align=center;html=1;fontSize=12;fontStyle=0;aspect=fixed;pointerEvents=1;shape=mxgraph.aws4.external_sdk;labelBackgroundColor=none;" parent="1" vertex="1">
          <mxGeometry x="1436.5000000000002" y="359.5" width="68" height="78" as="geometry" />
        </mxCell>
        <mxCell id="jZVaUwOg5UY3L9NAnvdq-97" value="AWS Lake&lt;br&gt;Formation&lt;br&gt;" style="outlineConnect=0;fontColor=#232F3E;gradientColor=#945DF2;gradientDirection=north;fillColor=#5A30B5;strokeColor=#ffffff;dashed=0;verticalLabelPosition=bottom;verticalAlign=top;align=center;html=1;fontSize=12;fontStyle=0;aspect=fixed;shape=mxgraph.aws4.resourceIcon;resIcon=mxgraph.aws4.lake_formation;labelBackgroundColor=#ffffff;" parent="1" vertex="1">
          <mxGeometry x="1210" y="556" width="78" height="78" as="geometry" />
        </mxCell>
        <mxCell id="jZVaUwOg5UY3L9NAnvdq-98" value="Execute Model" style="outlineConnect=0;fontColor=#232F3E;gradientColor=none;fillColor=#D05C17;strokeColor=none;dashed=0;verticalLabelPosition=bottom;verticalAlign=top;align=center;html=1;fontSize=12;fontStyle=0;aspect=fixed;pointerEvents=1;shape=mxgraph.aws4.lambda_function;labelBackgroundColor=none;" parent="1" vertex="1">
          <mxGeometry x="1210" y="717.4999999999999" width="78" height="78" as="geometry" />
        </mxCell>
        <mxCell id="jZVaUwOg5UY3L9NAnvdq-99" value="Related &quot;Casual&quot;&lt;br&gt;Data&lt;br&gt;" style="outlineConnect=0;fontColor=#232F3E;gradientColor=none;fillColor=#BE0917;strokeColor=none;dashed=0;verticalLabelPosition=bottom;verticalAlign=top;align=center;html=1;fontSize=12;fontStyle=0;aspect=fixed;pointerEvents=1;shape=mxgraph.aws4.fleet_management;labelBackgroundColor=none;" parent="1" vertex="1">
          <mxGeometry x="1431" y="556" width="78" height="78" as="geometry" />
        </mxCell>
        <mxCell id="jZVaUwOg5UY3L9NAnvdq-100" value="Research&lt;br&gt;" style="outlineConnect=0;fontColor=#232F3E;gradientColor=none;fillColor=#116D5B;strokeColor=none;dashed=0;verticalLabelPosition=bottom;verticalAlign=top;align=center;html=1;fontSize=12;fontStyle=0;aspect=fixed;pointerEvents=1;shape=mxgraph.aws4.sagemaker_notebook;labelBackgroundColor=none;" parent="1" vertex="1">
          <mxGeometry x="1436" y="738" width="68" height="78" as="geometry" />
        </mxCell>
        <mxCell id="jZVaUwOg5UY3L9NAnvdq-102" value="2" style="rounded=1;whiteSpace=wrap;html=1;fillColor=#007CBD;strokeColor=none;fontColor=#FFFFFF;fontStyle=1;fontSize=22;labelBackgroundColor=none;" parent="1" vertex="1">
          <mxGeometry x="319" y="507.5" width="40" height="38" as="geometry" />
        </mxCell>
        <mxCell id="jZVaUwOg5UY3L9NAnvdq-103" value="3" style="rounded=1;whiteSpace=wrap;html=1;fillColor=#007CBD;strokeColor=none;fontColor=#FFFFFF;fontStyle=1;fontSize=22;labelBackgroundColor=none;" parent="1" vertex="1">
          <mxGeometry x="491" y="674.5" width="40" height="38" as="geometry" />
        </mxCell>
        <mxCell id="jZVaUwOg5UY3L9NAnvdq-104" value="5" style="rounded=1;whiteSpace=wrap;html=1;fillColor=#007CBD;strokeColor=none;fontColor=#FFFFFF;fontStyle=1;fontSize=22;labelBackgroundColor=none;" parent="1" vertex="1">
          <mxGeometry x="880" y="218" width="40" height="38" as="geometry" />
        </mxCell>
        <mxCell id="jZVaUwOg5UY3L9NAnvdq-105" value="6" style="rounded=1;whiteSpace=wrap;html=1;fillColor=#007CBD;strokeColor=none;fontColor=#FFFFFF;fontStyle=1;fontSize=22;labelBackgroundColor=none;" parent="1" vertex="1">
          <mxGeometry x="880" y="363" width="40" height="38" as="geometry" />
        </mxCell>
        <mxCell id="jZVaUwOg5UY3L9NAnvdq-106" value="7" style="rounded=1;whiteSpace=wrap;html=1;fillColor=#007CBD;strokeColor=none;fontColor=#FFFFFF;fontStyle=1;fontSize=22;labelBackgroundColor=none;" parent="1" vertex="1">
          <mxGeometry x="880" y="539" width="40" height="38" as="geometry" />
        </mxCell>
        <mxCell id="jZVaUwOg5UY3L9NAnvdq-107" value="8" style="rounded=1;whiteSpace=wrap;html=1;fillColor=#007CBD;strokeColor=none;fontColor=#FFFFFF;fontStyle=1;fontSize=22;labelBackgroundColor=none;" parent="1" vertex="1">
          <mxGeometry x="880" y="695" width="40" height="38" as="geometry" />
        </mxCell>
        <mxCell id="jZVaUwOg5UY3L9NAnvdq-108" value="9" style="rounded=1;whiteSpace=wrap;html=1;fillColor=#007CBD;strokeColor=none;fontColor=#FFFFFF;fontStyle=1;fontSize=22;labelBackgroundColor=none;" parent="1" vertex="1">
          <mxGeometry x="1130" y="525" width="40" height="38" as="geometry" />
        </mxCell>
        <mxCell id="jZVaUwOg5UY3L9NAnvdq-96" value="Amazon&lt;br&gt;SageMaker&lt;br&gt;" style="outlineConnect=0;fontColor=#232F3E;gradientColor=#4AB29A;gradientDirection=north;fillColor=#116D5B;strokeColor=#ffffff;dashed=0;verticalLabelPosition=bottom;verticalAlign=top;align=center;html=1;fontSize=12;fontStyle=0;aspect=fixed;shape=mxgraph.aws4.resourceIcon;resIcon=mxgraph.aws4.sagemaker;labelBackgroundColor=#ffffff;spacingTop=7;" parent="1" vertex="1">
          <mxGeometry x="1210" y="416.49999999999983" width="78" height="78" as="geometry" />
        </mxCell>
        <mxCell id="jZVaUwOg5UY3L9NAnvdq-163" value="" style="group" parent="1" vertex="1" connectable="0">
          <mxGeometry x="252.50000000000006" y="743.5" width="21" height="26" as="geometry" />
        </mxCell>
        <mxCell id="jZVaUwOg5UY3L9NAnvdq-162" value="" style="rounded=0;whiteSpace=wrap;html=1;labelBackgroundColor=#ffffff;fontSize=14;align=center;strokeColor=none;" parent="jZVaUwOg5UY3L9NAnvdq-163" vertex="1">
          <mxGeometry width="21" height="26" as="geometry" />
        </mxCell>
        <mxCell id="jZVaUwOg5UY3L9NAnvdq-161" value="" style="outlineConnect=0;fontColor=#232F3E;gradientColor=none;fillColor=#B3B3B3;strokeColor=none;dashed=0;verticalLabelPosition=bottom;verticalAlign=top;align=center;html=1;fontSize=12;fontStyle=0;aspect=fixed;pointerEvents=1;shape=mxgraph.aws4.encrypted_data;labelBackgroundColor=#ffffff;" parent="jZVaUwOg5UY3L9NAnvdq-163" vertex="1">
          <mxGeometry width="21" height="26" as="geometry" />
        </mxCell>
        <mxCell id="jZVaUwOg5UY3L9NAnvdq-164" value="" style="group" parent="1" vertex="1" connectable="0">
          <mxGeometry x="253.00000000000006" y="667.5" width="21" height="26" as="geometry" />
        </mxCell>
        <mxCell id="jZVaUwOg5UY3L9NAnvdq-165" value="" style="rounded=0;whiteSpace=wrap;html=1;labelBackgroundColor=#ffffff;fontSize=14;align=center;strokeColor=none;" parent="jZVaUwOg5UY3L9NAnvdq-164" vertex="1">
          <mxGeometry width="21" height="26" as="geometry" />
        </mxCell>
        <mxCell id="jZVaUwOg5UY3L9NAnvdq-166" value="" style="outlineConnect=0;fontColor=#232F3E;gradientColor=none;fillColor=#B3B3B3;strokeColor=none;dashed=0;verticalLabelPosition=bottom;verticalAlign=top;align=center;html=1;fontSize=12;fontStyle=0;aspect=fixed;pointerEvents=1;shape=mxgraph.aws4.encrypted_data;labelBackgroundColor=#ffffff;" parent="jZVaUwOg5UY3L9NAnvdq-164" vertex="1">
          <mxGeometry width="21" height="26" as="geometry" />
        </mxCell>
        <mxCell id="jZVaUwOg5UY3L9NAnvdq-167" value="" style="group" parent="1" vertex="1" connectable="0">
          <mxGeometry x="253.00000000000006" y="579" width="21" height="26" as="geometry" />
        </mxCell>
        <mxCell id="jZVaUwOg5UY3L9NAnvdq-168" value="" style="rounded=0;whiteSpace=wrap;html=1;labelBackgroundColor=#ffffff;fontSize=14;align=center;strokeColor=none;" parent="jZVaUwOg5UY3L9NAnvdq-167" vertex="1">
          <mxGeometry width="21" height="26" as="geometry" />
        </mxCell>
        <mxCell id="jZVaUwOg5UY3L9NAnvdq-169" value="" style="outlineConnect=0;fontColor=#232F3E;gradientColor=none;fillColor=#B3B3B3;strokeColor=none;dashed=0;verticalLabelPosition=bottom;verticalAlign=top;align=center;html=1;fontSize=12;fontStyle=0;aspect=fixed;pointerEvents=1;shape=mxgraph.aws4.encrypted_data;labelBackgroundColor=#ffffff;" parent="jZVaUwOg5UY3L9NAnvdq-167" vertex="1">
          <mxGeometry width="21" height="26" as="geometry" />
        </mxCell>
        <mxCell id="jZVaUwOg5UY3L9NAnvdq-170" value="" style="group" parent="1" vertex="1" connectable="0">
          <mxGeometry x="253.00000000000006" y="439.5" width="21" height="26" as="geometry" />
        </mxCell>
        <mxCell id="jZVaUwOg5UY3L9NAnvdq-171" value="" style="rounded=0;whiteSpace=wrap;html=1;labelBackgroundColor=#ffffff;fontSize=14;align=center;strokeColor=none;" parent="jZVaUwOg5UY3L9NAnvdq-170" vertex="1">
          <mxGeometry width="21" height="26" as="geometry" />
        </mxCell>
        <mxCell id="jZVaUwOg5UY3L9NAnvdq-172" value="" style="outlineConnect=0;fontColor=#232F3E;gradientColor=none;fillColor=#B3B3B3;strokeColor=none;dashed=0;verticalLabelPosition=bottom;verticalAlign=top;align=center;html=1;fontSize=12;fontStyle=0;aspect=fixed;pointerEvents=1;shape=mxgraph.aws4.encrypted_data;labelBackgroundColor=#ffffff;" parent="jZVaUwOg5UY3L9NAnvdq-170" vertex="1">
          <mxGeometry width="21" height="26" as="geometry" />
        </mxCell>
        <mxCell id="jZVaUwOg5UY3L9NAnvdq-173" value="" style="group" parent="1" vertex="1" connectable="0">
          <mxGeometry x="252.50000000000006" y="404.5" width="21" height="26" as="geometry" />
        </mxCell>
        <mxCell id="jZVaUwOg5UY3L9NAnvdq-174" value="" style="rounded=0;whiteSpace=wrap;html=1;labelBackgroundColor=#ffffff;fontSize=14;align=center;strokeColor=none;" parent="jZVaUwOg5UY3L9NAnvdq-173" vertex="1">
          <mxGeometry width="21" height="26" as="geometry" />
        </mxCell>
        <mxCell id="jZVaUwOg5UY3L9NAnvdq-175" value="" style="outlineConnect=0;fontColor=#232F3E;gradientColor=none;fillColor=#B3B3B3;strokeColor=none;dashed=0;verticalLabelPosition=bottom;verticalAlign=top;align=center;html=1;fontSize=12;fontStyle=0;aspect=fixed;pointerEvents=1;shape=mxgraph.aws4.encrypted_data;labelBackgroundColor=#ffffff;" parent="jZVaUwOg5UY3L9NAnvdq-173" vertex="1">
          <mxGeometry width="21" height="26" as="geometry" />
        </mxCell>
        <mxCell id="jZVaUwOg5UY3L9NAnvdq-176" value="" style="group" parent="1" vertex="1" connectable="0">
          <mxGeometry x="253.00000000000006" y="369" width="21" height="26" as="geometry" />
        </mxCell>
        <mxCell id="jZVaUwOg5UY3L9NAnvdq-177" value="" style="rounded=0;whiteSpace=wrap;html=1;labelBackgroundColor=#ffffff;fontSize=14;align=center;strokeColor=none;" parent="jZVaUwOg5UY3L9NAnvdq-176" vertex="1">
          <mxGeometry width="21" height="26" as="geometry" />
        </mxCell>
        <mxCell id="jZVaUwOg5UY3L9NAnvdq-178" value="" style="outlineConnect=0;fontColor=#232F3E;gradientColor=none;fillColor=#B3B3B3;strokeColor=none;dashed=0;verticalLabelPosition=bottom;verticalAlign=top;align=center;html=1;fontSize=12;fontStyle=0;aspect=fixed;pointerEvents=1;shape=mxgraph.aws4.encrypted_data;labelBackgroundColor=#ffffff;" parent="jZVaUwOg5UY3L9NAnvdq-176" vertex="1">
          <mxGeometry width="21" height="26" as="geometry" />
        </mxCell>
        <mxCell id="jZVaUwOg5UY3L9NAnvdq-179" value="" style="group" parent="1" vertex="1" connectable="0">
          <mxGeometry x="1350" y="384.5" width="21" height="26" as="geometry" />
        </mxCell>
        <mxCell id="jZVaUwOg5UY3L9NAnvdq-180" value="" style="rounded=0;whiteSpace=wrap;html=1;labelBackgroundColor=#ffffff;fontSize=14;align=center;strokeColor=none;" parent="jZVaUwOg5UY3L9NAnvdq-179" vertex="1">
          <mxGeometry width="21" height="26" as="geometry" />
        </mxCell>
        <mxCell id="jZVaUwOg5UY3L9NAnvdq-181" value="" style="outlineConnect=0;fontColor=#232F3E;gradientColor=none;fillColor=#B3B3B3;strokeColor=none;dashed=0;verticalLabelPosition=bottom;verticalAlign=top;align=center;html=1;fontSize=12;fontStyle=0;aspect=fixed;pointerEvents=1;shape=mxgraph.aws4.encrypted_data;labelBackgroundColor=#ffffff;" parent="jZVaUwOg5UY3L9NAnvdq-179" vertex="1">
          <mxGeometry width="21" height="26" as="geometry" />
        </mxCell>
        <mxCell id="jZVaUwOg5UY3L9NAnvdq-182" value="" style="group" parent="1" vertex="1" connectable="0">
          <mxGeometry x="1350" y="282" width="21" height="26" as="geometry" />
        </mxCell>
        <mxCell id="jZVaUwOg5UY3L9NAnvdq-183" value="" style="rounded=0;whiteSpace=wrap;html=1;labelBackgroundColor=#ffffff;fontSize=14;align=center;strokeColor=none;" parent="jZVaUwOg5UY3L9NAnvdq-182" vertex="1">
          <mxGeometry width="21" height="26" as="geometry" />
        </mxCell>
        <mxCell id="jZVaUwOg5UY3L9NAnvdq-184" value="" style="outlineConnect=0;fontColor=#232F3E;gradientColor=none;fillColor=#B3B3B3;strokeColor=none;dashed=0;verticalLabelPosition=bottom;verticalAlign=top;align=center;html=1;fontSize=12;fontStyle=0;aspect=fixed;pointerEvents=1;shape=mxgraph.aws4.encrypted_data;labelBackgroundColor=#ffffff;" parent="jZVaUwOg5UY3L9NAnvdq-182" vertex="1">
          <mxGeometry width="21" height="26" as="geometry" />
        </mxCell>
        <mxCell id="jZVaUwOg5UY3L9NAnvdq-185" value="" style="group" parent="1" vertex="1" connectable="0">
          <mxGeometry x="1350" y="581.5" width="21" height="26" as="geometry" />
        </mxCell>
        <mxCell id="jZVaUwOg5UY3L9NAnvdq-186" value="" style="rounded=0;whiteSpace=wrap;html=1;labelBackgroundColor=#ffffff;fontSize=14;align=center;strokeColor=none;" parent="jZVaUwOg5UY3L9NAnvdq-185" vertex="1">
          <mxGeometry width="21" height="26" as="geometry" />
        </mxCell>
        <mxCell id="jZVaUwOg5UY3L9NAnvdq-187" value="" style="outlineConnect=0;fontColor=#232F3E;gradientColor=none;fillColor=#B3B3B3;strokeColor=none;dashed=0;verticalLabelPosition=bottom;verticalAlign=top;align=center;html=1;fontSize=12;fontStyle=0;aspect=fixed;pointerEvents=1;shape=mxgraph.aws4.encrypted_data;labelBackgroundColor=#ffffff;" parent="jZVaUwOg5UY3L9NAnvdq-185" vertex="1">
          <mxGeometry width="21" height="26" as="geometry" />
        </mxCell>
        <mxCell id="jZVaUwOg5UY3L9NAnvdq-188" value="" style="group" parent="1" vertex="1" connectable="0">
          <mxGeometry x="1350" y="672" width="21" height="26" as="geometry" />
        </mxCell>
        <mxCell id="jZVaUwOg5UY3L9NAnvdq-189" value="" style="rounded=0;whiteSpace=wrap;html=1;labelBackgroundColor=#ffffff;fontSize=14;align=center;strokeColor=none;" parent="jZVaUwOg5UY3L9NAnvdq-188" vertex="1">
          <mxGeometry width="21" height="26" as="geometry" />
        </mxCell>
        <mxCell id="jZVaUwOg5UY3L9NAnvdq-190" value="" style="outlineConnect=0;fontColor=#232F3E;gradientColor=none;fillColor=#B3B3B3;strokeColor=none;dashed=0;verticalLabelPosition=bottom;verticalAlign=top;align=center;html=1;fontSize=12;fontStyle=0;aspect=fixed;pointerEvents=1;shape=mxgraph.aws4.encrypted_data;labelBackgroundColor=#ffffff;" parent="jZVaUwOg5UY3L9NAnvdq-188" vertex="1">
          <mxGeometry width="21" height="26" as="geometry" />
        </mxCell>
      </root>
    </mxGraphModel>
  </diagram>
  <diagram id="SMPBxp9hiSKwE_8QtKjg" name="Page-2">
    <mxGraphModel dx="511" dy="454" grid="1" gridSize="10" guides="1" tooltips="1" connect="1" arrows="1" fold="1" page="1" pageScale="1" pageWidth="850" pageHeight="1100" math="0" shadow="0">
      <root>
        <mxCell id="oLrsJeIFUzb5wXI0BTTU-0" />
        <mxCell id="oLrsJeIFUzb5wXI0BTTU-1" parent="oLrsJeIFUzb5wXI0BTTU-0" />
        <mxCell id="oLrsJeIFUzb5wXI0BTTU-2" value="" style="shape=singleArrow;whiteSpace=wrap;html=1;arrowWidth=0.4;arrowSize=0.4;hachureGap=4;pointerEvents=0;" vertex="1" parent="oLrsJeIFUzb5wXI0BTTU-1">
          <mxGeometry x="200" y="60" width="320" height="60" as="geometry" />
        </mxCell>
        <mxCell id="oLrsJeIFUzb5wXI0BTTU-6" style="edgeStyle=none;shape=link;rounded=0;orthogonalLoop=1;jettySize=auto;html=1;endArrow=open;startSize=14;endSize=14;sourcePerimeterSpacing=8;targetPerimeterSpacing=8;" edge="1" parent="oLrsJeIFUzb5wXI0BTTU-1" source="oLrsJeIFUzb5wXI0BTTU-3" target="oLrsJeIFUzb5wXI0BTTU-4">
          <mxGeometry relative="1" as="geometry" />
        </mxCell>
        <mxCell id="oLrsJeIFUzb5wXI0BTTU-8" style="edgeStyle=orthogonalEdgeStyle;rounded=0;orthogonalLoop=1;jettySize=auto;html=1;entryX=0.5;entryY=1;entryDx=0;entryDy=0;endArrow=open;startSize=14;endSize=14;sourcePerimeterSpacing=8;targetPerimeterSpacing=8;exitX=0.5;exitY=1;exitDx=0;exitDy=0;dashed=1;" edge="1" parent="oLrsJeIFUzb5wXI0BTTU-1" source="oLrsJeIFUzb5wXI0BTTU-3" target="oLrsJeIFUzb5wXI0BTTU-4">
          <mxGeometry relative="1" as="geometry">
            <Array as="points">
              <mxPoint x="302" y="360" />
              <mxPoint x="500" y="360" />
              <mxPoint x="500" y="373" />
              <mxPoint x="707" y="373" />
            </Array>
          </mxGeometry>
        </mxCell>
        <mxCell id="oLrsJeIFUzb5wXI0BTTU-3" value="" style="shape=image;verticalLabelPosition=bottom;labelBackgroundColor=#ffffff;verticalAlign=top;aspect=fixed;imageAspect=0;image=data:image/png,iVBORw0KGgoAAAANSUhEUgAAAggAAAElCAYAAACBJhoWAAAAAXNSR0IArs4c6QAAIABJREFUeF7sfQecFFX29enckwMzMIAiIAZAxeyuYV1zArOCmBXFnBMiZlcxKxjAHNewq6665oyCCgZARSXnzBAmdPd0+H7nvvd6eoaBHtT9C1/fclmG6eqqV6eq3j3v3nPv9aRSqRR0y20E+ASs7Snw5jY8OXP1+hzkzK1e64Wub89Bem5KIRaL4d6770As1oCg34tQKAC/34+A3w9/IIiA3/zb5/PB6/OZv71e+dnr86b/7YEH/J/bUskUEskkkskE+DOQRAopJJPJZlCZf/OzlOyfAk2oM6OeVMJ8zt/xM/5nTWwykUQyZf7IZ/Z7PAf/zb/5J8ExpMy/3d9uH/k3v5/5Xbsvz2uOkUIibr+bSsHj4XiAlPzgkeMn4on0ccw1tPxEeJQg6Jwg5EAJgj4I+hzoM2Cs3/o1H2QQhIZYDPfcdQei0Qj8Pi8CAR+CgQACQZIDP7xePwKBAHwkCSQGXi88/GPJAQmDx+OFl8aSf+yWouG2BpoG04HA33PzpPelwTUGtXH/RhLRhCBYI54mCBkGXwiBPWeTn2nsHZGw+9OYk2jwf+47jjysRiTkuxkExRIKXlMSniZjlnHJdbRAECw0ShB0Slj/JgS9J38OAuubYfhzUNCzrm/PQRMPQhR3Dr0NsYYYAj4vggGf8SAEA/D5/PD7+LcPPr8PPq/zIpAgZHgTSBg8HiEKZjOrfbd6z3ArGMNsN0MSDDhNVvYZHgSvR6xz2phnehfSq/5EMy+BeC8SaW8FCUKmN8N4FMw4ZYyJRJpEZHoShLAk6PloRgScdyTj9809EJkeBIONYQhKEHQ6UIKgz4CbJ9evlaPelz8HgfWWIACxWD1uveUmNDREEfT7jfcgEBAvgd/nh1dIgiEDmUQhTRCsJyHTCIrptW76zJCCJyM8IMbSm0kQmoYX0iEGJIUgCEdIexBsWCLjHC5kwOPSKxBPxI3Rz/AepEMOCRNyMMe0BMGSARIJ5/1w1xFn+CDhCI8dD0hCgHgGuXD789iZIRdiQ8+LEoQ/5/Vb/866vk0I6x9CuTEifQ5y4z5nu8r17TnICH/GovW46YZrEWuIGN2Bz5AEehG8XpICG2JwmgOvTwy7IwiGRDgPQmOIwbjZaWwbwfHQ2IuVbAwxmIV1oz6gkQTQyHJXE/uXiACNuiUZaQJCAkDjbkMXcrRkSggCQwniLcjwKLjPmnoKjP6B+8bj8XTYwJ0jTv1B5jGEmDDEACTk/OZaOUaSAfNJyoRjLDnwCUZe9SBke1dy4vP1bULICdDXw4vU52A9vCl/wpDWt+egCUGow5BrBokHIRQIireAAsRgMCDhBZIEESk6DYIVKXp8HitQNKJF50Fw0gLnAWi6mm4aXmiULDQlCM4LwOgCza14EDKIgTs2QwP84zQHjkiIaDBjZe9CBU5vYL5H74IJQziRY6aHgccweoIkGuJx2d+RivSxzejShIKj9VqvCK+NhCsQINEiVkanoSGGP+H9W+9Oub5NCOsdQDkyIH0OcuRGZ7nM9e05yCAI0Wg9Bl15GWKxKMLMYLAeAWYvUKhI4y+ZCxQi8mdqEShMFKNndQhOf5CZxWBdB0IQMsSL4kCQ/RiXNz83kgqHY4b3ISPDwBAAm60gq3dr4Pm3/J6r+YywQcJkQKSJhP0u/+08BcbwmzCD6BTssTIzHriP8RQ0ehJM9oNHSIOQFHudQgS8EGzCwYAQLQo//X5qOdSDoBOC8Zhp7FmfBH0O9BkwCKy380EKkUgEl118IUgUuNr1+30ma0FCC/y3SXFsdJXbNEe6zi1BaPQeZGYxNKYjuseA2QriZvegifvdiRXFADOkYNMZ02GFdJyCRtkIIMXLkM6SMMbb/Y7GmgSAYQMSisywAb9PIpAQr0Bj+qP8XkiC9UhYIaMRMSZBHcJqQsok9Q6NBIHn9/u9QgrywiHk54UQDocQDPrldyRZ6kHQScEg0DzdN/2WmBicbjmCgD4HOXKjs1zmevkckCDU4/xzzkYsZtIcqScISoojUxsNGRDCwAwGqX9g4+r0KMhqeXX9gckgzAgn2BoJhiAYRb8hHI0/u0wGFz5w4gWjO7BTagYh4Hkb0xqtDsBqGegFoEGX/EQhEjbkIOEEQzIayUCjODJBYaOtp5D2Toho0aUuGrLhPkslDFlxpILnCgR9yMsLo6SkCMWF+SgoyJfaEsFA0Gg3tA6CzgeKgCKgCCgC6z8CKUTq63HmgNORiMfEe8BMRXoNaNAcAXAeBP5tiIPzApjUxuYhhObXnU7x8zjhHvdoJAluxeRqE6RJgiuQlFH/wK3iyTmEPGQURHIeBP5NQ06CQG9FYygiCVZASKc2isfCHSMhGQmu4JIx+rbgks20zPweBZDxhpjxKkgIIiEEIBQMIL8gD+VlpagoL0ObijYIhyn69BnRpRKE9f+10BEqAoqAIqAIGIJw+qknoyEWlVg5SQEJAv9khhUaSQJDDibOLh4F60HIxNKJ+dJOU+sx8PlMul+mF4GEJFOiIDIDW2hIiIIUaPQYI59KitBPMgiaVUV053LkQrwG8YQYZclmsOGDRAbZcEJEpyPI1BKkXG2FZBLx9LnseRMJNDQ0gEWmhBzYbAlixAyQoqICVFVVoH1Ve1S2q0B+fgh+Zn8oQdBXThFQBBQBRWDDQMAQhNNOOclqEAw5cPUOaJhp0CXl0WoOzOdNjXzL12rc+4ZM2LAEayZ4bU0AF2ZICxVN3FVCAOnUwUZPQ6b7P3MlL2mFGYWVSCLShIIiRRdOSDCsEEeC6Yj0PriyzS6kYLUHkqIoMYXGCoyiP5CiSDZrgpqEhgYJy1DLIGGHeMIUmAr4UVxciA7tO6DTxhuhffu2KCrMN6EZJQgbxmuho1QEFAFFQBFwBOFERCK1Ji0vaComMq2xuTDRZC3Q4DeKFtPegExhlRh9hhNIBkwVRgr06EEw9RVcfQBbYdBpE2iEWeRIVvxcmTvhoctQMNoBpwMgMRAtgl3hG6LA73gbww/pks+GIPBzeizEC8HPbBZDujS07evgcb0fnOBRQhM2uyKRFO9BrCGKhlgDEg0NMgaGEYhbUWEBOnRoj006dcJGHdujtLQ4LfTUEIO+dYqAIqAIKAIbAAIpROrqcfppJyJSX4tQgGmMxkNAQ05LyoqKrkFTulFTxu+oQXBeAufeNwSA3gOuqA1BYPqkS400tRZYF4CnYKyCVRUNaXBufkcS4g1xMcBS4TAJ+TsWjaEh3pAuoCSeB5vFIA2fUsYb0TTrwBQvcr83n9k0ybT4kRUTze9Ef8DURde4STIpOGBDNBhioBfB1UTwIGEaWHl9ki7atqICHTt2RIcOHdC2ohz5+XmGGKkGYQN4L3SIioAioAjkPAKGIAw4/SREI3UIsPiR3xAC0SCk6x4Yb0K6q6OtDihpjhkNnEyRIB7DIx4DETuGTNMnV2iJq2w/iwdZ4YFp/sS8R2PUm2YPpNDQwHh/DPEGigLtyj1G934DotGoGHmOLZk0oQvjQTDjICEwhMNWY0ynlpkUzETSVE2U6ooME5AwMJwghIHehhS5i5AECbFY4iOhBksqJOVS0jYhWJDwMBuksCAf5WVlqKqqQvt27VBWVgI/S1grQcj5t04BUAQUAUVgA0CgkSCw5LLfl5IYemPfBfuz7eAopZgz0h3pIaD3gPtDQgnG2EvvBtZTIEEIhtKiR35uPrMEwdVDECtsCicZbQB1BQkhAVLJsIFx/gQikQTqa+pQW1uPpUuXYv78BVi5cqXg3K5de5S3KTPCSVtrodGDQBIhfgZLIFwmA70QxtNgwhamUFIiTs9A3JADJOVv8aqwiJSkZppb6zpb8ppY/0B0BjYnk9ceCoVQXlqG9lXtUFlZiby8PCUIG8BboUNUBBQBRUARgCEIZ55xKmLRWvi8SamB4Iy+8yRIeqMtudzYuImVFP3GG+BjmIBG0pRp5u9IAqSng+0OKWTCkghWFTQZEK5csxcpWxfBtYbmyp8Egat/EoRoNI66uhgWzl+EHyZOEtM9b+48U8AIKRQVFaG4tNimaNJzERDPQ1lpWTqckZLiR+YPPQDSZtpmRPA4pimTyU5IJRpMlcdUCn6PBwFLeHitvA4SAiNKZLXEIIIhZn4E5Dvs3SDHSAElxUWoatcWbdu2RWFBoRIEfesUAUVAEVAENgwESBDOGngqotFaBHywvQOMV8DVPaBxDPoCCNjQg4QJbKhAQhGMvVOgJ94HL3xSXpjFgUgQWL7ZNH1KEw8hCDZDgv0eLLEw5YopOqTnIIVYLCYre2oO6usTWLKkGp998gUikQbU1tYKgSguLkZdXR3qIxHJkOByn9+nIJLfz8/PR/v27VFaVCTEhZ/J5mG2gynclEimRGxoshFiiDF0ESdBSCHA2gZ+XovRF7jS036/B6FAAOFwGOFwEOFwHkIhU5o6Fo+jpqYG0WhMiia1rahE27aVKCkuUYKwYbwWOkpFQBFQBBQBpjmee9YAxGK1CFKkSBJgvQA0dmwBLR0efT5jKGnoSQ6CzHgImnCBVe97bR2FABs9WXIg+gPbAMoZV5/XNjCSFXjQhCACwXSFWZdRQAPLlXhdfRS1tVG88u/XMW3yDAk7xOIN1ksRlM6N3DfuhIsseSzeCT9CeSEhKwXhMCoqy1BcUiBhA+oGjGbA1FUgmUjG44jGIkIQEg0xIQi87rxQEKEAMzcYVrD4+LxSRtn8CSIvL1/IAgtMkSCsXLUKdfUkLT6UlZRIiKGsrFQJgr5yioAioAgoAhsGAiQIF5w3AA0NEclioJs8yB4M0o/BB7+H3oMMgiDG3I9AKIBAKGT6MQQavQgkC5LKyOwF2y5ashykn4MLKzSGILjyJtEIhsLikjcFmYwmgCLE+vp61NVF8eGHn+Dddz9CpCYqv6exDobDRg/g8SAai0lNAgoMafR9thQ0SQIFhikkpORxt26dUVpakJGq6ZHviAgyTuFjRMpP05PAb4X8fhTmhRGU6pFGqCnpjF5P2nvAPgv54TDy8gtEdxFPplBTa7QSJDP5eXloS4JQXq4EYcN4LXSUioAioAgoAtH6Olx80TlIJU03Rxo7iuvC7OTI1MSUB0EWS/J4EWDaoiUIjPFLt0f77xQ1BRJ2CEjIQYoRmYLK1oNgCybZMAVX9RTt5Ylrnm76MDxeZktQEkjdATMVGFqIYOqU6bj22huQiKcky8Cb8kiPg4KCAsQaYpKt4A+GUVdfL6596hd4clf9kXfZZDsApWVF2GarLcWrwJ1MHQcSEtZfaBBywD8MRXAk7MhYmBdCyKZ+plM+vR7ROYSCQcGN1yEEgcf1eFFXF0FNbQ2ikahgUlZWhpISDTHoG6cIKAKKgCKwQSCQkvTGwYMuhwcNyAsHbXtiGrywhBbohvdRQJhieN9kKDDTQdzp4TBSppiBMbSiRTD1Dphs6MojS6MnW32R3ga64UPhsNQGyMsrsMY1H14PjbbYVwktMMWRK/HHHn0CL738L+QF8+FNJVFSWIjyklJUtCkBhYc1q1Yhr6AAkVgci6qrsXj5CkgjJQoMWc9BMguYjpiC3wds1q0rNurYUWo0mIZPzFxICtmIRiJSAIliRb/Xi1DYj8JwHsJ+n/RZEI8E9RMMUfi9JlMjRA0C/xQgFKRXxY9YtEEIwqpVNeJxIJnJz8tXD8IG8V7oIBUBRUARyHkEUohF6nHzjUMATxz54aAI7agxKMjLNx4CxvIZtWdfg1RKXPfUJYTz88XIkxwISaBhl2wGVj0CGigujDWIJ0DqBNiCSn56J0Ih+W5Bfj4Ki4pQUFBkUgDhF5+D18f+CUlpnrRwwSKcdda5WLx4KcLBMLzxOHputik2aluJwoIwOrStxLIlS1BbX4uVNfWIpIDJs2ZjZW0EsXgSkVjUll6OS30Chgaq2ldg2217CdlhLQRXnMlUaSQxoUgyLqJMtmrOJ0EgsQn5BYvGDAxDnoT0iOclT4gTvQwcPzUITMNkyiR/T8+M1kHI+ZdOAVAEFAFFYENAIAXWP7jz9luAlPEg0DtAQ5YXCsMfCojYjwvwZAO7IybFQHLVHA7niwdBtAWynDYhBBIErsqpCWBmAV3s4vJnLQGmCpIg0HuQlyepiYWFxSgsLESYBMHjs3EJxidMdsF7776HG264GUF/kC4JdKqqws7bbIWwz4vKkiIE/F6wsVKsgSv2CGYumI8VkQiqV9UgAR+qV9YgEouhtq5OyiqT8JSXF2Kvvfe0tQ2MFyHd00GKIJniSqz5wNW/hFUkEwM2k8NkNEjzKdElGNLE8EIgaAmCNHRi7YYIWA1SsGFIQwslbQgvho5REVAEFIFcRsBU9GmI1uO+e+9AMhlDiOJEGrsgVfsByVRwJZK5CmYDI4YaaCyDAeMFoLiQWQsmxdEnoQWu/KMxCgwjqI/U2xV5UsIV9CAwtFCQXyAEoaioGHn5+ZIF4PWYHg+mqrEXiYYE7h82HC88/wIKwvmoqqxEm6JiJGMRFAV86NCuEuUlxfAHg4hGGrC4uhrLa2sQTxlS4wsEEY2nsGDxEsxfshgrVtVKaKCsNB8HHrg/yspLxWiblE5XBMlUYCRBoHdAIhNSEMEUTSKBchUlTYaGLf7kM62vjSjSK9+Tnk9JtoJmxUarg1CCkMsvnV67IqAIKAIbAgKWIMTqMPz+e5CIR4zWQBoq+YQgBKhJEMPP+gFJWalT8c/YvM8XSIcJQvl5JvYu/RuABqYdxmKyemaWBEMNXJVLO2RJC6QoMQ+FBQUoKi4WDUI4L1/ICA/AkaVSJqxx621D8cZ/3kBlaRk6ddwInkRChIOkIvkBH0qLiyTzIhZPYNHSZVJwqbKiraQW1kWiWFVfh7nzFuHXGTOwbOUqU0gp6MUxxx6JjTfuKESAK38x+raxlBACWe1DVv+mi2NSMiHEo0Bs6DGwf0ynRlNh0WPbOnP8osuwPSFYzMn2dhD+o5sioAgoAoqAIrCeIcClrRsSK/5FMOLB+xCLRuChq13qB9CLYEINVOrTsEunRFv2mNUH6X6np6GktBQFRYUiNqRan4aQjZQo+GMsPxKNSlMj6dFgMwGCVodAkkDxHj0RJAjUPPAc3DeRMAb62utvwOjRo1FWWIIe3TZHWUmxeD1qalZh1fJqqZZYXFSIumhUwhU+fwB+eFFcUIBwntFI1NbHMPb78Zg+ex4SqRRCIR+OO6Eftthic9vG2ivZCE5IaTQGXhkLiQ7HT00FMaCGgftKESh/wHaqNGRAmlWZfk5CDExhJfeZwVxDDOvZ66DDUQQUAUVAEXAIOIIg63RDEB64D7FYBEiZxkdcJdNzEAybMsIMKdCDwD/UFMQZy6dYkQWICgtRWlaKosIShPPzhGAIQYg3SMyf9QxYyEiKErGhkYQnzHFJCOh5CAbDEmJg0STpn8AhSmvlFG6+5VZ8/sUotC1tg3blbbBk8VIZa2FRIfIL87Bk8WL8bffd8cOPP6JD+w6YPnU6VlavQFVFG7QpK0N5WSkq27XFipoIXnr9Dayqj6KwqAAXXHAOKtpWysrflUs2BIGdIIwQ0XSOjEq4RMowU4PBglEccygonhTXutoQKNKjpBAw+hRcNUqTSmlCDkoQ9E1UBBQBRUARWE8RaIEgpD0IKXi8TAWkG57FkCi8M673RDwhhp9Fiii+4yYVCvMLUFJagpLScuQXsA6AD3Fpo2zcFNJSWVbeXE2bJoumlwErMbIoEyspUhzJYkkhMbI0qCQg1DI88MCD+OCtt9F9s80RDoWlJHJtJCK6g06dN0aXLl1x0IEH4ptx32LWrJmYN3MmqyijMD+MPJ8PRQWFqGrfFnWROB5/8UVMnTkHnbt2wcUXnw+P32geJGQQMP0h0o2YqIGwraUNQWAZZrZ09spYmYlBL4q0qZbmUknTkpqdI901UHPBstIiZuTFK0FYT18KHZYioAgoAoqAUc8RB+dBqMfIB4fJqlxaGUgigtcIFoOmKyONG8MF/OMIAo0gjSVz+0vKy1BaUi6r+kDQzwSEjDCGOZeo+D0kCqYlMv9N8sFuj9QzmN4OAbBbs7RMlhLISXz11dcYfve92HevfUTUWML6B+2qUFRejkg0gsIC8zuWQl65YgWQSGLlsuVYsWwJllcvgY9BD7ZzTiTx/qefYfaCBei+9dY4pu8xUhHSjUWuM+0REFMuHhATJokYHUUinvY4MPwS8Jk0UNmXBEG8DMyAMORIGldJDwoTalCCoO+fIqAIKAKKwHqMgJXXWyFCQ6weIx8aJg2R/NKUke51NihiuWTbwhgwjZMa4qIpYHdFwzNSEhoopgehpAylpaUIhUMmCN9s40pbOIL1DtAYG8Gf6edgsgiMi58GlyWeWexo8q9T8e7bb6NXr+3QoUMH5IcK4A0EUM8wRqwBlZVtUZBXIN0XOa6a2lr4JWzAhMyE/H7RwoWI1tXh++/H45cpU7HjLjtju112Ngbbdmd0FRKlM6UZgvxNDQLDDCQJ9CKY4ksB8SAw9ZI6AxMWMQRBikMlE6J9cKJHyQSxYQYNMazHr4YOTRFQBBSB3EbAEQTTsKghGsEjDw2X6oEBGnEfDZsHQbrfpf+AMZQUHZIkRKMNRtlvawewfgF1COXlbVBcXIK8/DzpqGjWy2YlLup+ZyCtaM9VV5RQg7jhTTMk01pBCjQzHQIrVqzEnLnzUVPXIGLGyvI2SHl9iDbEJQuirKxcajOwoiI9EOzdQC8HDXcg4EWCFRFTHgS8wPPPPYOpU6aiz5FHoFPXLhIGIUFwTaSklTPHYUdPw8+wCrMxqL1grQUaf2kCJfqJsIgcuTHLwWQ7mIwH4zUxHhhqOExmhEc1CLn98unVKwKKgCKwPiNgCQID9RQpRqNCEFjamDUQSA640mfhH4/PgxRX9CkWVIqZUsTSNZGpf/QfeIQQ0PVPQ83Wy/y3ywYwqjxDMozRl6ICNlPChC64r0sxNCSCe6XE8PqSKURjCfwyeQa8/rAUVMrPL5QaDDw/v0cPBosMMJuhTZs2YuyXL18u4QkzDkh55hXLq/HeW2+ivq4WBxx0EAJ5YTBxkeOTctJswGRDAlL4SS67kSBEIlHBSNI1ST4osmSraksQOB5HECQlVK6dZMsWkHLER+sgrM8vh45NEVAEFIFcRmB1gjBSCEIEAem66IXXk5Icf6n34zExfHoP3B/jQTBGnz0QSAzKy4wGgWmLNNxGtZ8ZajBNkWz+n00vbIz7N67cbVEihiKYTeDxY8XKOuno6A+EUFpcLoZ91qxZqFlVI4WaykpKkYgzlRLiyejQob2QGf6OOgP2VZg7ezam/PoL2rWrRJuKCqnVwONwnCYUYDpMsiGVCA85fl639GcwIQaGNNjQyegn2Po6JOEYUXPYLA8KK/k9eli4iS6TYkZLJDTEkMvvnl67IqAIKALrNQIZGgRPUkIMIx4chngsanoVcNXtTSHo8yJlw/EU69GDQDU/RXsmFs+iSj7JXCBBqKiosCv8fFNDgGl/liA440htgkQsxEth3PlcgdMgm58bYxNW0ifll1lGoa6uAamUiffPmD5DtAY8RlVVB1S0aYNEQ4NUbqyrq0MsFsWmm26KTp06imeB3SFnzZyJ5dXVKC8vNmOT3zZmTBhPRsCEA2wYhDtJymbUlI3msaS3hM3gCIpI0ZsmCEZ/YNJB09dPoiOZDjbgoh6E9frt0MEpAoqAIpDDCDQXKUbw0PB7kWgwBIHCQfYc4M/MRqApFXGiGEiTyUCCwLUxV9zUH5AgVFZWiveATZe4OQNpFs4urcF4EFjtsLFtMgmJccWbcsZSjtCmG/J77M/gRSSSRF2tyaIwokDWcIhJgSaenyERZ8g56pKSYlRUVpisg6AX06dNRV1dDfIL8m1LaRmlZCqY2g/MqDAGP7O2AT0G0Zg5bzQakTRLblIPga2trfGXMZEc8G8hCqZcs1wRCYcShBx+5/TSFQFFQBHYIBBYvQ7Cg/ffLa5zkoIA0/1Yblm6NJo6BpLeyBi8VBTkSt7I/B1BYPYC4//UItDIOo+BqYXQGGZgiEF+I259hjOM6106Ropb35YndgUTjGRRyEi8wY9IpAGJOMs482/jyqeBLi4qRjgUlCwGpiLm5xeYLpEMeeTnoT5SixnTp0pra9ZdcKt+t9rnGJlpwLCBhDqcWhIeqaJIcSK9EiQJJCFSUVEKJpljpemP6BCMWLHx2E6gqWmOG8TroYNUBBQBRSB3EWiBIAy7VwyhXzIYTEEj9mXIJAhM9WN8nUaYBlKMungQrAahvAwFBYWmsJL0VDDK/kyCIFUGTZpCRoiBK3bjUXCufbeCN/UI6Y3wIpkMYumSaiEV0q8hmZKwAn8uLCwQ74Uc1+OR2gpSdInej0QCwaAPC+bPkxABszMaCYIt6MTrsQWQXF0DVzCJRMQQBGoRIhJmIT9iKCYsZMPUOKDnwOkQWDDJeBGsDsHkd5pwioYYcvfV0ytXBBQBRWD9RqBpLwauqi++4Hxp+0wDRh0AV/r8mSv9JJJmFU0FfyIhJYclaMDsABZKys+X5kt06fNvpixKGMHqD4yJzNhsRoOcy0tBoFP62zRAKdbkvAlu9e1DMhHAwoVLUVdfJ6WZN9+sGzbqsJG48UkGmOHAEs70KNDTwUyGFStXCnHgn7q6VcjPN2mJkqRgwxQ06tJEicJDEVfaXEtJcGBPCONBoeeAQkV6EegGcR4E5/mQgIWEGZpmM7grZ0EmObQShPX79dDRKQKKgCKQ2whYt38qhUh9HU45+QTU19VI6WAx/lT1e6hBMO5y6acgqY2mt4Lk+DNuH/BJV8ZQKCgGmi53U52wEd2EDTE40aExpCaUYKormpW1/GyNbNrND1O+2ByCPRvysXDBQunt0H2LLdGzRw85Dlfz/A7bSHNFv2xZNWpra4WwsJASaQ69B0xlNDkHcibbhlmSHdPZDGn9gSRxmlHzmpnNQBEkvQgAilulAAAgAElEQVTcTLXJjJCEPaq0d7ZCRXoRhHzYGgimQ2TT3I7cfg716hUBRUARUATWMwQcQQAi9bU4+aT+qKutkfCCMX4++dl1ZmTuP1fGFAW69sVccXPFTnKQlxeWksv8mcaaGgYXWkhKn4IMHQJd8h4T5zdCRmucbeyfHgHntneGnKtvn5clmUNYuNAQhG5du2KLzTezhY1M1kQwaOoSsM0zt5KSEhFN/vzzTygvL0dlZYUdi211HaeewPo47BCdeDJ9wzzOi8AaEFFE6iMSTmBYgSmRzHpw5IYsIx1mYMEkeidsTwp3PCUI69mroMNRBBQBRUARaI6ACTWQIJx4wnEi4JOcAW8AO+20E+YvmC+1BuISTzd5/a5jIQ00t6p27STEwNV6RUUl2rdvh4UL5kn9BMl/SKWw5ZZb4pdfJ4urnmQgEAhJBcL6SL0Y1u7duwtZmDx5si1xbL7HrIJe2/TCxB8mmqJH3oAIIV9//XW0b98eO+6wAzpv0lnG4WNGhQ2PiAzS6xXvQV5BPlatqsGYL8eIQT/wgANMGWQ7NgozjWzSdFokWTAaDKYumuwGbpLmaYWKzObgeEhaWHmS1RtFW+D2tVkMTofgdBiOEClB0DdREVAEFAFFYINAIFJXgxOP749IpC5dv+CyK67CmNFjMHHieDTEExhy7XUIhfJQWlaGSKReehMsXDgfUyb/it59jsCKFcswe9YcMZyjvxiF6urF6NSpE/x+D0457Rz887nHUVNTj+nTp2P3PfbA5MlTsGTJElw16Bp8//03ssreplcvPPLISCxbtkR0EMxEOP+Ci/DgAw+grq5eDHLvPn3w4gv/xPvvvIOjjjwS2267LVixiW2X/RLj9yDJIk8UD/p80nJ63LhvMHvObGy++RbYe5+9pbeC0QoYkmMIQ0ZhaNtQypAGk6rI8Ukmh/RlYE8G2xbb5zNloiU8YqlGyhyzOUFQD8IG8TroIBUBRUARUAQcApG6Opxw/HFizG+/406pVtgQi2LcuHHYtFs3PPvss+jf/3jceOON6Nv3WPz88yTMmDETV155BUpLyzBz5hykUgls3GkTrFyxUrIannryUVx22SB88fko7LX3Pvjii1Ho2bMHRo4cgSOPPArDht0nrv/rrrsR48d/L4aYBGHkiBFS6Gi//fcXw8sGTRMmfI+GeBxzZs/G0qVLxGtw8QUXSN2FQ3v3QedOG4t2QpoukyCkEiIurF6+Aj//+guWL1+ByVOn4qyzzkG3zTZDRIo9kSQwG4OZFgnjPuAm5aCNMFK8BOJpEBohQk1mMDDMwLoQon2wwkanpeB3RaQopIJ6DZPJ4LwUcgrVIOjLpwgoAoqAIrAhIFBfX4cTjuuLaLQelRWVeOChhzFzxkx032obDL//Hrz73nu49bahWLFiBTbptAlWrFwhRjwUDIjx3Xa77SXMUFdbi0mTJokn4u23/4MbbrwVP/wwEb167YCffhyPzl264OGHRuCggw7B8OHDRNx4yy23YPHiJbaxkQdff/01JkwYj6222loqM+69z36Y9NMkzJw5EyuWL8ecubOx77774rILL8KCBfNQ1a4tumyyCbp26oJiZjGEAqipqcHyFSuwYPFCrGJnR3+AwQKcfMppaFvVDsuWLpMVf15+WIgC6zswFdKpJkzfCOMRoMjQJDWwWJSpJGl6UjSYcIwtsJTWINgb7mogiGDRChXTHEQJwobwWugYFQFFQBFQBOrra3F8v2OFIGy++eYYOPBsLF1WLa2bly5divvuuxeDB1+DJ554Ar1798a0adNEm9Cv33HSXbFjx44oLCrGIyMeQr/+x+OVl1/CuHFj0bvPYXLMvfc9ECNHPISamlUSKjjuuP54+OERUrvgiiuuwLRp06V6IzemUr755ptScGn//fdH27ZtRSHwn9dek89qamrRvfuWuOX6G1BQkCddpfODAZQUl6CoIF+OI9UOEwnEEnHU1tVLwaRYPIXiklKcOXCgGGyppZBKobJdWzH01ClIt8oomzHFTQEmERwavQIJAr0qHIOQClZzREq6SEqjKVubgWSCAkYem54E09nRhDJEsMiMBiUI+tIpAoqAIqAIbAgIkCD073s0gkE/7r1vGP5x8004tm9/fP7FKOy22+5SYbC4qAiPPPoo+hzaB7/+Mhnz5s3FYYcdikQihY06bYL2HTri1X+9hP0OOAhv/OdVfP75KHTtsimuuPpqTJs6FQ8++KCkCtLonnHmQNx3733Ydtte2HLL7pIeWWDLH3fs2EGISPcePbDzzjvjxRdexJ577inFl9555x0xsMuWLMUzTz6JHbffToz1soULkBcKScVEVoLkkj+WaEB9LIpwXgHC4Xysqougc5euOKRPH3H/U+S4ZMlSCVO0qWgjVRnpRWBIwLS0joKelfraOqkwCSQQj9XL5/QkiFCRmQxgSWqfeCkogmzMzDBCS+LjqipKO2h6JJQgbAivhY5REVAEFAFFgASh3zFHoaEhgnbt2qFLly649LKrMOSaQfj1119RWlKGCy+6EMFQflrQx5LESxYvwtCht+H440/E1ltvLWr+D9//EHvt/Xd89+13OOrYY/HtuHEIhEISXigpLsYHH3wgq/X58xfgxBNPxDfffCupkVyFd+y4kRz/888/xyGHHCKeBHoweK5DevdG9bJl8vPTTz+NN159DVv17I4tttgMM6ZMRk11NUJ+v9RloLs/jhRq6uuwSeeuaFNRiTFffYNzzz0XsURCSEFVh/ZYtmwZqqqqRHxYVFSMlStXCTFgUSV6ENizQbInPB4sW7IEc2ZNF48IMzgYlnC6RqNDcCWjvaI9sE6EtFCRpRyMN0EJgr5xioAioAgoAhsIAoYgHIlIhN0R2S0xKSWTmbpoRHambwKNp0t1ZMXBvPw8+ZxiQ6liyCJJ/iBCoZC42H2+IGINUURiMRQWFIqjngSAwsZ27arEM0G3Pjd6F2jYXUogSzVzZU6DSr0DjTX3r2pfhTGjR+PTjz5CRZtydOvWDW1KizD9l5+xorra1GDwehBLJZFXUIQuXbthwsQf8fe998Ffdt0VE378AT179pR0SZ6TOgdqEopLilFXF5Gfy9uUSxVGXo+rllhaXCLVGmfPnoYpU36VLA5uJBJSpEkaPNGDwJLQJpRgKiqaQlO8LoYYSC7Ug7CBvBg6TEVAEVAEch0ButL7HnO4VFJkeiFJAA2jUfg3VlI0jZcaGw/RoNOIkhDQeBbksaJivpQsloIGKR8l+9T/m46GHi86tN8Yefn5iEZjcg56BEz55rgQEhINkhQWPOLnNLAkCPx+OBSSKo0L5i/ALz//DL8HYEgi4PGgIC+E+fPmYt6cOaYqYsCP3ff8O2bNmYNff52K8y64QISFLPjEeg1FRYVCbAryC7B48WIJK7Srao9qaQddjvnz5mP5iuVy3rKyUpSVss9EPirbtMHsOTPxzTdjjZ5AtAUJ0SKkKzBKF0fbyTHFsIIJLTCEwX2VIOT6G6fXrwgoAorABoKAEISjjpDCRaaAkCkjbIojGSU/DRsLDkq6nvwvKWEBFiMK2cZI0pMhFG4sMsTEQzYxgqkzQMPfrdsW0shp5cqVqK+rT7vxSRiYBVFUXCTdFkkEWLCI32dzKI6RRITphewmOW3yFFSUl6OkpAhLFy9Gu8o2QjYmjp8oq/SevXqhqKwUM2bMEK3BYUccIZkWTJ0MBINi7PPy8qU0M0MNSxYvQXFJCQoLi2Q/VmtcumSp9F6gWJOkgYZ+o406yjlHffYJllezcZRX9AvcXLlopkN6UqZ5E8FMWfw0xLCBvBA6TEVAEVAEFAGDANsnfzturMTOTRMF2zWBvRhs0R8xdE0AM90PpSSy68zo94ub3XRqMlUI6U1ICUGgV4FdFoP2Z9YLSDYxsPQi0MiTnPDYrEjA/+jRIIFwmQ4kDXWrahAM+JFfUICV1dXSZIkaiLr6eglFFJYUI55MSFlkruYLCgvF8Lt20q57JLtRStpiLGbKS0vLZ78pihSNineDY+a4+DvqE4KhIKqXLjHeAFtGWlIY7TU7T4vASG+CxCL4t/EsqAdB3zxFQBFQBBSBDQSBzO6OGV2WWjt610yBLgbXpcn9Lk0rbIsk8f9LwCHd8dH9LKeTobjmRhkDsN9z+6T/luIF7KVgwxquE2OTHW1biMwOUo7tNL9cd55MNuT2aTKGpnRpNajWAqMShNY+WLqfIqAIKAKKwJ+MQKZV/A0EIT36tRnN33PcZvCsdpoMy93kNM13/CPHoAThT35o9fSKgCKgCCgCGx4Ca1uG/wFXsybbvJr9z1zy/wHnbX6I38iH1IPwP7gXekhFQBFQBBSBDQGB5ob5f2CoWzLOf6CDYJ1RXgdnhRKEdUZXv6AIKAKKgCKgCKwDAutglNfhqL9v1zVpGzKOqgTh90Gs31YEFAFFQBFQBNaOwPpIEDjiLA4TJQj6YCsCioAioAgoAorAaggoQdCHQhFQBBQBRUARUASUIOgzoAgoAoqAIqAIKALZEVAPQnaMdA9FQBFQBBQBRSDnEFCCkHO3XC9YEVAEFAFFQBHIjoAShOwY6R6KgCKgCCgCikDOIaAEIeduuV6wIqAIKAKKgCKQHQElCNkx0j0UAUVAEVAEFIGcQ0AJQs7dcr1gRUARUAQUAUUgOwJKELJjpHsoAoqAIqAIKAI5h4AShJy75XrBioAioAgoAopAdgSUIGTHSPdQBBQBRUARUARyDgElCDl3y/WCFQFFQBFQBBSB7AgoQciOke6hCCgCioAioAjkHAJKEHLulusFKwKKgCKgCCgC2RFQgpAdI91DEVAEFAFFQBHIOQSUIOTcLdcLVgQUAUVAEVAEsiOgBCE7RrqHIqAIKAKKgCKQcwgoQci5W64XrAgoAoqAIqAIZEdACUJ2jHQPRUARUAQUAUUg5xBQgpBzt1wvWBFQBBQBRUARyI6AEoTsGOkeioAioAgoAopAziGgBCHnbrlesCKgCCgCioAikB0BJQjZMdI9FAFFQBFQBBSBnENACULO3XK9YEVAEVAEFAFFIDsCShCyY6R7KAKKgCKgCCgCOYeAEoScu+V6wYqAIqAIKAKKQHYElCBkx0j3UAQUAUVAEVAEcg4BJQg5d8v1ghUBRUARUAQUgewIKEHIjpHuoQgoAoqAIqAI5BwCShBy7pbrBSsCioAioAgoAtkRUIKQHSPdQxFQBBQBRUARyDkElCDk3C3XC1YEFAFFQBFQBLIjoAQhO0a6hyKgCCgCioAikHMIKEHIuVuuF6wIKAKKgCKgCGRHQAlCdox0D0VAEVAEFAFFIOcQUIKQc7dcL1gRUAQUAUVAEciOgBKE7BjpHoqAIqAIKAKKQM4hoAQh5265XrAioAgoAoqAIpAdASUI2THSPRQBRUARUAQUgZxDQAlCzt1yvWBFQBFQBBQBRSA7AkoQsmOkeygCioAioAgoAjmHgBKEnLvlesGKgCKgCCgCikB2BJQgZMdI91AEFAFFQBFQBHIOASUIOXfL9YIVAUVAEVAEFIHsCChByI6R7qEIKAKKgCKgCOQcAkoQcu6W6wUrAoqAIqAIKALZEVCCkB0j3UMRUAQUAUVAEcg5BJQg5Nwt1wtWBBQBRUARUASyI6AEITtGuocioAgoAoqAIpBzCChByLlbrhesCCgCioAioAhkR0AJQnaMdA9FQBFQBBQBRSDnEFCCkHO3XC9YEVAEFAFFQBHIjoAShOwY6R6KgCKgCCgCikDOIaAEIeduuV6wIqAIKAKKgCKQHQElCNkx0j0UAUVAEVAEFIGcQ0AJQs7dcr1gRUARUAQUAUUgOwJKELJjpHsoAoqAIqAIKAI5h4AShJy75XrBioAioAgoAopAdgSUIGTHSPdQBBQBRUARUARyDgElCDl3y/WCFQFFQBFQBBSB7AgoQciOke6hCCgCioAioAjkHAJKEHLulusFKwKKgCKgCCgC2RFQgpAdI91DEVAEFAFFQBHIOQSUIOTcLdcLVgQUAUVAEVAEsiOgBCE7RrqHIqAIKAKKgCKQcwgoQci5W64XrAgoAoqAIqAIZEdACUJ2jHQPRUARUAQUAUUg5xBQgpBzt1wvWBFQBBQBRUARyI6AEoTsGOkeioAioAgoAopAziGgBCHnbrlesCKgCCgCioAikB0BJQjZMdI9FAFFQBFQBBSBnENACcL6dMtTGYPx/M6BuWO15jiZ53Wnbc33fucQV/v6+jKO33pdyWZf9P7WA+n31gkB99xkPvN/xvO7ToPO0Z1bescJhd6v9fKBUILwZ94WvizuxbAvTjwehz/g/zNHtf6ce11Izh85andf1uX83Lf55KcE4Y+8K3/ssZq/e/8/GKjMa1oTWs2f0f8frvuPfTL0aJnr1FQqtSZOp0D9jxEg8r9M+hnjvhmHoqIiFBUVIz8/DztsvwMCgQCgBuZ/fAdaOHzGJBuLxlBfH0FxcRE83jXMpJkkojlJ+L+4f60xCv/3KP6fnjGVTIHvkoe3yAMkE8aV4/F45I8j4R7+YG9jtD6KVatWIZFMIJFIIBQKo6AgH6FQqMl3/k8v5PecLAXEYjH88vMvqGrfHm3alMPrW8MD+Gc+MykgHk8glUzKveD98fl8a36/fg8m+t3fjYB6EH43hM0OkPHyceJazbBkGBQaoHvvvRdDhw6F3+9HZUUlDjzwQFx73XVilNxkxuM032Tia8k1l4JMfAsWLJBJ08ycZnWbMv9n/rabmVj5knrhJlByRv4uLy8fVVXt4PP7/miUVjsez7lq5Sp8//14LFmyGF6PV7Dr1m0z9OjR/fdNILzmFI1ISgxCXW2d4EPMu3TtIucSTJLA0mVL8d2332Ha9OkYN24stu21LU466SQUlRQ1eggs9DzOv/71LyERG2+0Ebr36I7KyrbIy8sTPFt0m/5eF6sjIZz73c/WMLbqJq2LV4QHzBivw7C54W3xvNmWHc08Zy0+yy0d2L5ffCdo2N2zOWvGLDz62KOorl4uv//LLrvg0MMOQ1lZaeNRMjjezBkzMez+YZg6dSr8gQAKCwtx+umnYdddd4XXa+/dWgxpIp4Qg+zeFXcSYuN+Jz/zPzsPyN/uvW12bUkazIzNHAfwej1wXkW/PwC/z7fac5XiVz0pTPpxEi677DKE8/Kw19//jv0P2B+bbbZZI1FIAZFIBHPmzEEymYLf7xMy5daIbl5oHL8jGGbc/H1eOA8VlRWGSK2JNK/hvvF6li+vxtNPPY2ZM2cKNnz3tt5maxx99NEoKCjYMMlZq168DXMnJQh/9H2zE2MylRRDJJOqnWWNryZlDDGAxYsX4/zzzsc7770j/y4uKsb111+Pk04+CcFAcA3zrjHywg28HoTDYTF0mQZ/zOjRuPHGG7Fs2bL0ZOfOmTmBNX4nhSRJgV11yQQJ4KCDDsKFF16EouLCPxqlFo83d85cXHzxxfjmm29QX18v13XppZfivPPPk1XGb96SACfgXyf/ildeeRVjx34tBIGT5x133IG27drJtXOf0V+MxqCrB+G7779DbW0tem2zLUaOHIGdd9nZkCvi5PXIvl99+RVOPfVULFy4EMXFxejUaRNcdNGFOPTQQxEIBtY83Ezj2dxQZnP5ijGwf5xNaa2nwo7fPTutwjODWGauxlv13VbsJMbJktTWxKFp0GpqavDTTz9h0qRJ2H///VFVVYUvv/xSjMyChQvkrMcecyzuvONObNxpY/l32tZbfMd/Nx4Dzhgg3jteV1FhER555BEcc8wxxvDZ10x2t9+hIaZ95/s8YfxEPP7444hFo/JvMfDNQlM8jnvffF4fYg0x8O/05ji+JQM8No+TEA+ImSeCoWD62EcedST23Xffpp4BO876ujrcfffduPnmWxCNRdBt02645+57cHDvg80cYLf58+Zj0FWD8NOkn+Q3TchQhtclfT32+rkfiVf3Hj0w+Oqr5d1pzf3KfATq6+rx8ssv46KLLkL18ur0R+3atcPgq6/BqaeeIkRtXY/bisdMd/mNCChB+I3AZfva0iVLcf/992PWrFmGodvJgysPzjLxeANWrarBxx99hLpInRyOk9Ree+0loQay+8wX2wWCuKLgpNPQ0ICysjKcfvoAbL3NVunhcL+PPvwIp5xyMubMnZNtmGv8nMyexu/OO+9EaeYq7DcfMfsXp06ZitNOOw1jxnyJhriZTEl0rrjySsHjt25u5cbV4nnnnYd333tX7kebNm0wbNgwMSwkI5zo582dhyuuuAIvvvii4EwCduWVV8rvOFk7crZy1SpcO2QIHnroIVmFJVIJ7LH7HnjooYfRvceWLa4U3WotkUwap07KEDOvxwOvzyerKa9vzQyBz45babpVH4mTkKdmX4s3xBFPJMyvadTsKtbv86+TR4jGKhGPN64y7YPIZ5NhsOarSBoRecbFxLXsRqDhEy+E15P2FK1pZd38ns+ZPUcM4SuvvCKesgsvuFBI5Y8//SjGfc7cuXLmE44/Af/4xz+EuJFsNl/p/zzpZ1x8ySX4fvx38Hl8KC4pxu1Db8chvQ8xBtgO3eFMrxDfT3e977//Po4//nisXLkS8UQcAX8A5eVtkEwm5L3lAiFSHxEyw38T94LCAsHMLRpqa2pRV1cvpIPPH8dqyD4JaAKRaAQ1q2pJPwSvO4begQsvurCJR4DPg8frxZdjxmDgwIH44Ycf5HwnnHACht42FOUV5fIeuWuaOXMW+vXti6/GfpW+p+YRMd6ObNuOO+yIp556Cj169FgnQ05vy7vvvIsLL7wQ02dMN+TEY4gLsapqW4Xrb7hexk2cdFs/EFCC8D+6DwvmL5CV5DfffiMvHycWThKGKFg3pGXsdHuLS91OmnT/JRJxmSz4exqUVMq4AjkBy+SbSmHjjTfGiIdHiCvRTVycv0d99hnOOecczJ41G3X19WJUkqmEHC8cChvvBI1GKiVEIxqNihuTEwTHGA7nIT8vD8f2PRa33HKLTJ6t2dIu1Gyr4BYOxrHMmjkLp516Gj4b9ZmEAjjRXXftdbjyyqsQDK1lRd6qwTH2Gcdjjz2GIUOGYHn1cvnWfvvvJ0Sua5eu8Pg8YtxeffU1DBx4JpYvXy6T1992/xseHkHD3z2NPUnY2WefjSlTpsjvSNY4cR58sF2x2bCO3G+7gPv2m+8wevQXgrnEzS1rZDipT+8+aFfVbq1uW7rRP/jwAyxbukzuXzAYxDbbbIO//e1vTYwGsRz//XiM+nwU6uoM+XTPYK9teuFve/4N4bxwdtRSxsv1+n9ex6qaGnkm+fxx7F037YqDDjwIhc28S9XLluPNN9/A0qVL06tnMf7N3PX8nTOKbdu2FfzbtmuL/PwC+ANrIIMpyDNNQvDKa6/I87vtNtti2PDh8Hm9OLZvX8yZO1uu64T+J2DItdfigQeGCxbizvZ6jXFOplBdXY1fp0xOewBo4DfffHNUVFSktQuOtBC7o44+CmeccYYcg79/7733hCCsWLFC3q8999wTN9xwg3lnSRCSSXz44Ye46667wJVzx44dxQBuuummci/4XL300kt4+OGHxbPQaeNOuOvOu+Sdjsaiss8HH36IO+68XYgGSSCPdc6556Q9hk5rQaz5nnIuiMQi2Kzb5nj66aew9dZb4/XXX5dz9+rVSwjI/PkLZPEwYcIECZHwnSCBIskRQsz5IRiUecB5RvgM8XNi95dd/iKelp5b9cz+/Ng9+Mx8Pupz8UZOmDjekDV40jjxXMSrTUUb3HLzLejbty8Kiwob34U/UzPR6qv8/3NHJQj/g/vKF4CuPBqLiRMnymTA2N1hhx0mzFsmKuoK1tGQcsX03HPPYe68ubIq6NChIx4ZObIZQUiB5GTs12Px9dixGD58GFasXCHn7N+vPw46+CAZCw0wY5qTJv2E++67DwsXLZQJYpedd8F5552PvLywTGY9e/ZsdVYFjStXKplisNbCS8xmz5ojXotPPvlYMONke/1110uYoVUGrYWTid5g/gKZ4IjBlClTMWTINeJaJvkqLCjEJZdeij59essEysmM9+7MgWc2Mf5XXXUVjjjiCMGIoRuGgt57/z0hFFwV0gvB+G9+Xr6MvbS0DJWVFU0EWM889QwuvexSLKte1kQLwu/QU3LO2ecglBdaI2RjvxqLU087FZN+niT70KgNGjQIV199dWNIg+GUVFJCKWeeeQZWrlrZ5Hj77L2vGM1Nu3Uzor61bPQePPv0M7jk0kvkGTLsyPx1wAEH4oknHhejnrnNnD4Txxx7DL797tvG/ddyHj4rFOi2a1eFHXbYXjQ4Bx10sIjsWno/GmINePPNN3HmmWcKCeEzcsYZZ2K//fbFueeci3kL5hmCcPwJuPKKK3HueecKUVptk/i+JQxIyfuU9s40W0n7fH5cfNHFuOWWm827kEKaIJBE8hr6HdcPI0eOFI+TId/AC/98AZdecgkWL1ksxpqEoNtm3eT7NMwjRozAxZdcLD9vsfmWcl2bdusqQyX2/3ntNRx33HFGg+D3y3vKsIgImAFEI1G89tp/8Nyzz+Krr7/GosULUVJcIkb2jIFn4OuvvsaAAQPked1n730w4IwzsP1222H8hAlYsWI56GX65ZdfcPc9d4v2hhtJ37HHHiteTN42ejEeffRRfP755zKOXf+6q5DlrbZu9Fq2+AhZo85zvPPOO+KF43PrPDIVbSrQu3dvjB07Vrw/Dn+Gi+hl4DxQ2bbSeOIYcWltGK21E47u1yoElCC0CqZ12Ilat2RSYtwHH3QwJvwwQV6KslKzwtx3v33TrjX3srT26JwQTzjhRHz22WfiURAPwogROOCAA1ZbeXJ18fbbb+PEE0+UeF8oGBIjdMkll5hVkBUYMY5Ot97UaVPlZTzm6GNw3XXX4ZNPPsXiRYsa46sySDPTO8PiQiduJXzAAftjl13+IuGAdRIwWcMze/ZsnHLKqfj444+MN1M1e9cAACAASURBVMPvx0033iQTRl5+XmthSu/H8VHVPXjwYPDYJARcnfFnNyFycmcMlFiKyz+ZlJXV5MmTzUqfIQCvV1aWXOURI3pcqGfgftyfn3fo0EH24c8Unx5yyCG46uqrZMJ2hu6F518QY0vNgludOl3KDjvsgHvuuRe77b7rGq9z3NfjcNrpp2HiDxNlH97Ta665BiQv6dRYCYWn8O9//1tIjnhKrLeI18ox/uOWf+DU009ds67DkoC58+ZhwOmnCxFy3iHnHu99SG+MGDESHTq2bzJeeoH69e2Hr77+qomokwaAYRi3epRbbsWw6Z+9HpSXlePkk04Ww8mVb3OSwHEsWbIEF110MV5++SUhdD17boVjjj4awx8YjkWLF8l4TjzhRAkLnX3W2Rg7bqwZY4bew91rY4wTsmIWzYDXePecled94j3lM0gPgWhLUsC7774r7w2fI+6zSadNhNxwpe88CNRJjBkzRp658rI24PtB/PnM8BTfffctRo8ZLUMrKSpB7z690aa8jYyBY/r555/x4UcfyvlIvO+56x6cdfZZMgY+Yy+99DJuuOF6eXe5D58BEiPqakgi+FzQY0YPBT00DKdxgeDwNtfxnngUiFsoGMagQVcZoluQL8esrauTOeSt/76FWEMUO++0M5544gn06Nljze+j1a2QnPM5vP32O/DTpB/T5y0tKcUlF18iZIfzz7XXXSuhEd6DeDIOfk7CfcH5F2DL7t1NeHEdF1PrPFnoF1pEQAnC/+DBSCZSWLRooXgQxo83LjW67Sj622ijjWQCIRv3MKyQaXGzjGXVqpV44403sax6qaxaaNS4aqFQq4lBTkI8BCQIA04fgIWLFyIvlIfrrr9OJtZAwJ92SVOUd/LJJ2PK1Cky0fU/rr/EMi+//HJZaZhUiMYt7Xa1YRIxGKmUTEi33norTj/99N9kzHkGxpc5lo8//jhNELgaOv/883/TMTmuHyb8IKGeGbNmrNOddqJOkxlnZieuzN0mmQ8ZAtTmBz/qyKPEFVtWXpb+6PlnnxfDt2TxEsGax3NxXxr7c889F9deey1KSktaHOs3474RfMdPGC+f0xNE78EVV1zZGIKxBIHZFSQIK5avMK5+p7oDBI/hw4djo403Ws31705MI/bSiy/hggsuEINMFCQWbrEg+WXWQFX7qiZjFYLQr5+sXt310Wgyfk+Ph6wEM/Q4FIJGY7Em839paam483ltq2FhPSSffvqZhIG4QqX7n94uEltHEGgob7rpJixYsFCU8+Y186RDOzNmzJDQElfQXq8P4VAI519wvqyQncDU7c8QX9euXbDFFlukid0nn3yCs88+BytXrUh7g0RD4vUJeXebCwkST2YQkFzyeAyJFBQWIhgMyJiIEfUozFIQjElUGBoUMmGyCEiWTzzpRBnf8mXLcfqA08XrYOYSD7pv2R0jHxmJv/zlL6LRuOyyyzFj5gwUFRZi4JkDcd0N16PQxvd5TGL33LPP4eJLLxGMOEfcfc89ks0hXgoPsHL5Shx/wvFCiBriDdh5p13EcyQaBAE1UwFqrzoFzJ8/X+amRx59FPPmzU0TQ4oQafgpPGZIjeEThmtIvr4f/33aw0Cysttuu4pmaO+990FJaevCnOv0kuvOWRFQgpAVonXfIZVIiVE+5OBDRA3PCZHpWB3adxB3qttEc+BIQpbTcE7l5DJr1kxx+3FFxhXWyJGPYP/992sar7OronfefkcmEcaRmcp16imnoH//49OCP55/3NhxuG3obZg3f56ssEkQzj7nbNEwME7pJoFs3g7qGu655x5xaZIMceLgCpyTIidAivBk4mRkpaX0qBQk/WrAgDMwZsxoMS6cNK8dcq0YTiMihHVFJlYXVFklPFdRNJxccXHMEydMlNDAtOnTZOIlZnRnMw2REzUH5PQf63qn3cTtvArTpk1DTU2t6D36HtsXDzzwgMRV3fbP5/6Z9iCIQbCTv8O4S+euuOP223HY4Ye1KCT8Zty3GDDgdJlIuTFeTO8I3bfprAkaUCTx73/9G2eddZbE2jM3EoW2lW1FfNq3Xz8ErSGQfZwwDyksXLBIBKPvvfeuGWdG9g1/5rP92GOPo11V0xBDU4IgUWxR1FNYWF5ebodCkW0M8+bNF00GjY9bBZshpLBp103x+ONPYPc9dmsi1nXkYuWKVXj11VdQVdVeCO8HH3wgeLuQyvHHHY877rwD7Tu0Nwbcag/o/qI27qcffpJwDb0LvP8MLzGGT7KRVvZnAJcmjPZ3JDZz585NZxw4+DwZacRp4aUHoDbj1lv/gbfefkvwzM/Pl2yCww8/XJ5zzg802K6eQyYRd/MH8aPWhc82iceoT0dhyLVD8OVXXwmZoCfsxhtuxC677CJk54svvpD99ttvPwwbNhybbd6tybNQs6pGQlQPPfyw6EvovXj66adlIeM2kkN6SkjaSRCoxxkxciS23HIL87jYNGohU6mUZG5x3uDz9f4H74uQ1G3tq9qLwSf5Y6qkzAUi2I5j9OjRQo7pUSEO3Hgf2rZth379+uLkk0/Blt23kPTK5nqWdX1vdf/WI6AEofVYtW5PG2JYtGiRvGhc7fHF4QqK8XSKmfiCS3EQV8glvS5b8yn4Mi5dskQMDEkHJyx6Ix555FER2jWJJ9sx0INw2mkkCCZUQNcdCQonDU5SXCVQgEShFX/H8dA9fMWVV8jq97XXXhPiwHNx8th9j93TcVu+1HQLUpHMz2mgHhn5iMRMaaR5fIrDXnjhhfSx0wVsMgiCIx6cDLjaffW1VyW27MjALrvsjJ122tkuVDKEZmvwbNCwHNf/ODHMhiD8gMMPP0zGGfQHJcTCVTHHyGt2orPW3dyme7n7RwK0aPFiIVWjPv9Mrp04cpWeSRCef+6fuOyyS2VV69LleESq6I0a3SPPDFe2nbt0Xi0TgmSOBMx5EAxBuAZXXnVFOi7N4xFnIQhnnyV6h0zj5sR6TAOkal/SADNc75Jml0zgtVdfE2K2ZOmStMu9cbeUiCoZm26uQWhOEDibU9j2zLPPomPHDvb5Mfn9JH0kvXRzX3DB+eJBMtLNlGhDaLwYJsisLErjwcwBholYM+PTTz+R+Dg9AnwmjaFO4fj+x+P2228XQ+SyP5y3i6v8n3+eJCJTRxCYg8/7dfQxx5haA9xsaEYMuHgGDH3h+SdN+hnRSCSdt98YMmrqcXPPV/Wyatx73334+JOP5Di8d+eccy4OPvgg4z1wXoSkDcNwbhCvjSHUxJ7vK70YDFd6/V65rlGjRglJHDdunDxDDCV06tQJH3/ysdzHzp064/5h95vsjIx0R+5LjxRJ5HfffSfX9de//lXuqYhxyeVTKUyeMlnEmEw9Jq7UKJBIbbyJSR91G9+B+Qvmi9eJwkt+T55pK9DuvElnuZcnnnSSCKCbex74zE6YMBFDh96GN994E7V1tfb594iXZauttpJQB8nOpt02NYsQc7M1/PBbJq9WfkcJQiuBau1uEttkiGHxQtEgOIJAtykLhDCP2a3I5OFuLGuQ9RTLq6vR//j++GL0F/I9hhgetQQh00frJkKmFTGeu3jp4nQaU5OViY0Du4mPn/U9th/uv/8+ia/TmP7r3/8SD8COO+4oLz8NCgVUtTU14iZ84cUX5HoK8gvwxBNP4ogjjxAPBaul/evll6XIEFce67KlazZQ7S0KpdZvB+x3gLhZO23SSSa4CeMnyCqNrlZ6OZgVcdnllwlJkwksm1Ivy6n5fRoP6gqoD6HAkhPzcf2Ok5hvJkF47tnnRaS4yGoQuBqioaAAkB4TXjddsFdfPRgXX3KRWS1lbCQIpw8YgAk2xLAmgkDDwdiveBCWV6cJQmYaG/UUw4cNx8GHHNyYJmlX2nPmzBVxHcmaqNslLZEeGXMveJxD+xwmJLJtu8omY2weYuCHjFu/+NKL2GSTTRr3zYgpr1pZg0svvUQ0OvQ6OUyP698fjz76SKMoLxrFW2+9hX/+8wUR15IU1NTWyDH9XqO6l/cvlZRY/G233YYff/xRsHAhPaYPciMpZphi6bIlJr3U6xUD2U3Emy4UYYzkoYf2kXChKw5EXQtFdFLsx2pU3Ap6tcfFuuCpA6AexJEYno8eAYoa+TOv222NCwezwub9JEno0qUr7r33HslccVoHHo8Ea/DgqzFhotE7uY2pmRRXMgRVWFTQhAzTtc80UOoV6JHku0HCxDCGKwrG94Mpx8f374+Zs2fKYY8+8mg8+PBDIsCVZyGZkiwIkjTWheCiZFXNKtETOLK5/Xbb44rLrxBdTn5hflOPUAZgJH8ffPAhbh86FJ9+9mmTkB53I2nceeedcdihh+GAAw9Aly5d0t7K1s8Quue6IKAEYV3QasW+hiAk4TwI7qXlJMQVP0VYNOZ8sSUPOCPGne3wNNrMYKDbjpPhxh03xmOPPybCx0xDl0kQTj3lVAl38Fx0QfKl4kqEEwz340TJCa+23jB25xonAblq0CA8/sRjMglsvdXWeOnll7D5FpsLOaFBpPGna5fH4bU9+eST4iGhu9QZKbJ+To4tbY4IOLcyxyihBQra7ESenjRtnnbmajhzUnbG75CDDhGxGlfgQhC+n4DDjzhcakJwErzmmiE44YTj8ewzz+KnSZOMoJJCNJuTvbZ74HBtnMmBzTbbXFY25BnEWlI0Ewkce2xfIVqrEwQjUvTCK5/Rm8E0wu/Gf5eOJffs0VNCR/SeZJbLZRbDgDPPaCQI4TwpWnPlVVc28SAI9taDkCYIHsjzQkV9faRe9u/X9zhRxpeUFKfPw0n9v2/+F2cNPEvi+bxmZsssXLggbcTWiSB4IJkxjIm3b28FjRmLbJdKR/3KLf+4RUJSvBdcIVIwSxIimR22lPDDD4/ANYMHY1VtjdSP4PcD/qDgz/fDERiKFKlfIckhIcw0wNnes8zPOZYhQ67FFVdeLmEB4jHpp0niQRHvmiWYmRoPp01JE13qTeiZiSdEqMmNn0lKpK25kCar4jkwJCwzmYIkonPnzvLcbrf9dkZMKaE7r2QzkLwPHmLEuB6wMmhSjDlriKxcuUIqRtJAd9yoo8xPXKUzDDFr9iwZT1W7KjzzzDPYgymz1rNJ7w69giwcJmFNnw+XXHyphAJIOJhRQmLA73EemD1nthA1Cg3dNTrPJQsrHXnkkeIBTa/+HdDWC8BCafTCMdzAVF7nTeJufF+4WCA6JD4UhXLeo/eEWgbd/jcIKEH4g3FdE0Hgg80XwzH/loxba4bCF8WpnKmcZ9yVXgkjbDJHcIbsnbffFSPOVVIoEJLVq4vny8okkRDXJEWAXA3xEI4gcDJkbjXLQNMD0K5tO/zzn/9Mh0gm/zpZ4oJfffWlnK979+6SxkXxkowvnsCHH3wok1C9TPqm5jq3JrF3e9GcABnXZUqW5Nrb2ZFkgQWNSkqMcM9dW9q9b1dM/L3EW/fdT1TRFODxd0xZZD46QymcULfbfntJoWMslDFaToKtTcsUd7HNYXfjIE4UDp577nmYM2e2HX8SHTq0F6+LE3tx7MaDYLMY4EFlZSWefOJJiWUPvuYaCQVx43co1mS2AVXv7r5+OeYrDDxrYJog5OcViOq8iQaB+hNLEAaePVBqOYgxCvgx6MpBklv/5ZdjBBuu6KlI33333dNu/IULFmLw1YPx+JOPC1Gj+I+ixieffErIhbNaa/YgzJaY8VeMi9v4ND0Ir77yqoQjWiJiDYkG3HzjzbjjrjuEIBjjGcBJJ50oz3coHDIub08Kn336Gc4YcIaEjJgSR5c6n3/idP2N12PJoiViSEgQbr75ZlCHc+HFFwpBkDokzvyKwNTG0O0zmKkZSL+LKYhg9+rBVwtB4JdWrlyFn378UQgJixSJOc+oCOk0DJK6lzJZLvQeUADIOhb0xNBzwAwLGk0Zhi3DnNbnWBLlimpJHRV/QCoYsny08zpI4SWkMGPaDCmi9OZ/35SxbLP1Nrj11tski+Kxxx8Vcnz/ffejz2F9MGb0GMlw4PPvUrDpPWBGDPUgn302CrFYVPQrNNYktDwHFzf0OJx62mmiPWAKN59TZmvwnXbeJqbtMg2SZIVhB46Hcx+FkrffcbtJBW1hY5EypoIznCEEw+uRzCEWm2LY0WyGPpEkUMtAIaroujTLoTXmY533UYKwzpCt/QtrIgh8aej2ZD60rN4bp6omK4W1Ht15G2x5vHA4JAabE72UcG0snS4vPgkCFcl8wTmRXH/9Dbic7nUKI23Fvi8+Hy37TJ4yRd4x5kAzhkhXN0VojJnTZch0PSqNSTA4fk4uXDFPmWayH/b6+954+pmn0LFDx7RhqK+LYNmypenmOSIQsyuk5q59GurhDzyAYcPul4nGbSzadNmll4pLl+flRJcWzNl8cwLo9A2hcFhWxK7qIXFwhIT3hseYO3uulLNm/DYzMyHbo8AxSwEZm7nhUhTplmaRmwMPPtCsKK34ylxrI3FrThBYIIhhJ06mdAPTDe+U6/yMlfCop5BrAfDlmC/FqHw/wYgUGdah0I2aEZd+x9OlCcJZA7F8hSkIxXAEPTwUUpL0MaxBl/kpJ52CobcPlWwB4vTB+x+Iq5miTj5TFCqyuifH54oQ8XhrIggsZET9xZeWOHI8O++4M/79yr/Fg9Bc7MdjLV22DCeffFK6rgR/V1RcJKWSed/TpcQ9wML5C3HPvffIWPfee29st+12UsiLcXQ+u/SwcXMhhunTp+O///2vrHZpcJhJIdUebSEuJ1B1hDTTRc/j0BDvttvuOODA/U0Wht2aewkyv8/7znoQfG+40fgTbwo133jzjbQGgSWHpYqnfab4/jZmzzQiRWLClT+NrAt/SOqj37zwfM9YDpyEniSO3gCGV1g46uWXXpLCUiTIPN/uu+2OobffLsSenj2emzgyHEb9Dr04FBuTrMsKPmGujMLbv+2xJx5+6CGjUfBASA9JBUkuq8HyWFwo8JqYBkvP1kdMWU6aLCc+V3z23PPc/H2jBuWoo44yegrWjsmjh2wwtttuOzzzzLMy5zAjgveOXinqJViw6feGCbO997n8uRKEP/jur4kgUFj09NPPSEGXzAItmW7ENQ4lsyC80+SIIXIt7KzoiyskG/M0BOEdESkuXLQAAV9AXIUsOhQMhexqPiW9Byh8mzqNKn9IudqRI0ZKHPLtt96WlEe65/mC07vAugtc0dGlSc8D88CN6/ESqVBYyHK0bhKVGvUUFjrBlV0WtcD26VK86MKL8Nzzz0m8mxOSm6D79D5U3PU0MDQWTVZ6TnmfkVMvX2x+DufW9kDcl0899TSmTp1iY8J2Z3sMHt9lUchKLdYghaQ4QZlVtNl43VToc7XK9DOKw1rc7OFb8iDQZbzn3/cUssJwA/sLSB59Kom9/r6XrPq692RxLQ++/vJrnDlwIMZbgkDDcfVVV6+ZIAwciOUrDUFgGiUFowwF8b6xsA7FeHRb043PaowU3zFV8IEHHxBcKiva4tlnn5GVslTmnGOqFHJbK0Ho1096I2R6EFiDn+dO3xurd2CpYeoMuNoVMsmVNIDtt98ezzz7jIS0MkkFx1VTWyudF92zwPN8/933uOCCC9OhkMMPO1wMFFeXjKNPnvyrEGNm83TuvIkQi8x4eEvERYy7zXJx76yrIUK3/rhx32DJ4sWGsHo86Nq1qxQWY90Dvg9ffz1WsgPoveB1MZWQz48T7zHkR22S84aRkLk6DHwH5JxIoWePHhIu6dS5k9EsJVNi3CORqISLvhw9RqpG/vTTj0Ii9t5rbww86yzxVLBgGgsbMdTEUuB9+vSR2gis88HzscfILbf8A3vssbvcGoYL6F1gTwvn7aFBbt+uvXjm6DGQmiQ2W4NCR2qVVq5YKS5/6n122mknIWE09sxkkG6ZwZAQBBIX8Qi1sLFSKOefsd+MlWeHBIEkmSSRhIWppf957T/yjvB5PP2M09MiyD94GtfDWQSUIPzBj8KaCAJXcHR/04Pg1NGcNFrjPkivRJsZPefW5CTSvXsPHH30UaaOObMYrAeB1fS4quIESBHWjjvuhFAwKCtO/o4rLLolWUrXEYQHH3wQ5W3Kwd4IJAgs1sLJgrHxp55+WnoNXHXlVenSrhQPcdKhu5SubHGXtuTzW0s1NBZMYV+JH3/6IX1HnHiMKyKubPr3729Wk7/HnZgyhXFoaFxc2q363X2Re2hz0BnyIDFgZcJPP/lEDC73LykpxV57/l1c/nTRG7EZJ/g1P1AthhiefFLqWNC1TtEYV2+uABMnSCr5SRyKiovxzbimWQz0Spk6CNaDYE+d9iBkEAQag3/969/Yb999cettt+G+e+8VpThJDgkDvUMTJ/6A0047Fb/8ytoAXlmFc9X77TffSoGmzN4erSEIYmDp7t5mG1mhUv/isGWKHUnpBx+8Lx0xXfEo4k7vyc033dy0mJNrlEUtCnMJ3WYNFTuBTp48BfX1denCVl06d5FV/E033SyrTepNTNXLY3DzzTel0y4zxZst3j177syMF+qAWFCIJJqjIYFjmfAh1w0R0d6RRxwpoS0aV2LMFNa2rjKgYR5pnUHz80shrl9/TQswGaKh90dW7tb1yFAQydy0qdMkRXTWLJI3knGfnIfkkYSPngO66Pk9xur5njID466778LOO+6Ey6+4XOomuLDIF6O+kHopTG/kMx0MhoRQUaR54AEHiqfJNbMSLVVDXDxbfO+ZaeCaLbHPBMmC8yCQuGQjCPQ+HX3U0U0Iwh2332FSp0NB8YwtWrhIrpehTNH3aJXFP9iCNT2cEoQ/GN41EQSehgaPE5SkGVrVemtFitkmsQP2PwBPPflUOr+YcdhMDwJXJFwxOgGgc9O7GuuOhJDBU91e0bZCashT1UyXLictuqTpxmQpXHZe+/rrrwU9xkXpUei1bS/5t8xhTbO9mj11Gf+kwU4mcNddd+PGG28Qo+U25ynwenxS64GNkTbpnKGEzzyq41okD60kENKdr5lBJ7mhh4EGhR3vOFHTLc/JlhMUJ6qtt94GZ599lsS+mWefSTDW9jitiSBIJUyPR1bBjCO72DCP1bN7TwwbPkxCSUwb5Wpq/MTGQkl0waZDDGshCHT/0oPASZtxaZICV0+hR/cekrfOrJcHH3pQMlDKy8vw7LPPSgotww6sT9HqEIP1IDiCQFJHvQBj6I4QuxoZxNURNT6TbHl+6aWXCb7Ne4DQGDFzgX8kpJZxn2kYSQB4j3zS8Mis6ikWZtoo0/64MUzAVDmWtWZqoyOFa7pvRkjskfoDdJ8HgqbUMlfMNHjU3Ujoyu8TD8bQ22+T4j9cPVNvQCLavqoDbrvtVuyzzz6mQFZG8SPnPZBCVLbfCgWFvD+uYibd6cwQ6t59y3TlTtY2Ya+UTz/5NO3lMO8e9RAWGvbrCATFeJMoEDOu4I855lh89+234p6n18Nlf/BaSXyWLl0m42atEM5XxIk9MphuKKXU06VUqScS9pQOdzgcfwtBoEiRxIoeBGLM8uoM3VFrkJnqynCi1Dlx7bNb+b7/wVN9ThxOCcIffJvXRBD4cvJlZEydL5S4Lm3jl4zI42qjcbHO5rFR7pieXFLArrvtKislqWFPD4IQhHdxxhkDTBEkKps9qXQbaRECGpWWicdaS0mCQEPMCoA853/f+C8uuPCCdAc2ur23334HPP3UU5I+yWtgTv2w+4cJOeF3ZIXhmH1zJ0mmAberoelTp8sK9dNPP01fP1cjdKEyDEBvBDtKXj3oahE9Zsbb01/IPM/a6rZn5k03/9nWEFi4iEWCTpWYuKz0UimZJGkgmL7Yt19fWY2JlkR6alBbkf1BaokgMLa67777mBLNsZgYZYoOWX+AGyd4Zknce9+9EGHoSSdj4o+m1DILQglBaFYHoSUPAg0j0/2Y1shiNowd8z6TIIaDYSEgrInPYlWcfJlK9sDwB1DVoUrEpieddDLmzTfxfW7r4kFwZLQ5yc3s5sfxbbnFlrjo4oukEiO9J2KIMmo0MOOG2Q70ajiXfyObNEW0XM8N073SpGby+aHbn5vPyxCVEYK6EMiawguZxz6u73Gi1XAFfij+pB7kxZdflHeH5JkEgcWQ6A6nHoIVAjkekh4K9Lbsbrp88r+WNA9CHJIpScllFULn+WPhIxaNoufObYz/083O7AEac67QOQYSIhHeejwiLGaLaAo4X331VfkqQ467/vWvUjmVhpbvkhP48vwOQ/5MjF22k3zm84mXgMRC6kKIB9TMQ817JZAgHHH4EeJB4Pyy1hCDfQ/nzZknRc0yCcLdd96NM848Y7WOpdRGpAWdrXj3sr+dukdLCChB+KOfC1ukiC5TVpujoIwvIBXAdO8xzCDs16YxrW2hnW1o6bmTJVr9fiNisr3snQaB7jkqiTkx0hX+d6Yh2ip+nClZmZGTx/IVK9IhBooUaZA5AVBhzy5srFrHMft9TJH0pidcFlBijweuMAPW/Z+ecF1ZXZlFWr4aumPvufteaYRTV286D7Ypa4OHHn5IVooUNbl699236C6r6T322KNJdkATktDsXJwEaRxoNFsiWe67/Mx5d3jNpu30GBk3y75Smc+4MmP2DmOXouaOK14hmx1CA+cqSrpztEQQnn/+eey1917G4FnvBV3XTz/zdNrLxHz5oUNvlxUkV76reRDWRBCsSJH3g9dGHQAb5HCM7OdBbwSzAVwRIEdGWWmRRpiGms8KXeXMhiHRXFeCwP3XJARtTHNNSQfChx9+yHSmZHtiRw4yCAKNMj1Yd951Z7ZXo8nnmemGLguFO0inVKt1aX5A1zyIzzx/PvXU03DnnXeY0s8piKr+vHPPE4LAY9I4s18Dx8dnmqt0IZj8vscnjYckZOYz2gLndVrNM5iChJv4zLv04L/s8lepMcD7bywyGzXFJOQ1f8ECVFS0kYwYelgGXzMYn3z6iezGVEx6T1glkqGIDh07avAZ7AAAIABJREFUygLisUcfw5WDrjQZIxnM1j3Ha8rqoReKxJLPp3SEzXzXmr3fJAgMOdKLQnLBd4GtuZl1sJoGoTUE4Xe0e1+nh0V3bvrupNY2aypY646AXXGyWRMnY1Y9JMQUSw0eNFh0AM7AiB9B2v7+lq3xW4w3UklPN2hzgsCJjUWbyOC5AmceshR8sRPwF59/Iav36dNnrEYQXO45hUt0fdN1mi7yJBOsDzvttCOeffY5bLpp17R6P301WTqwEReWi6Wr1nUo5Pi58qBwjm7UgQPPwqhRpjohJ6jddt8N99x9D7butfVqbuaWUKTq/YYbb5CVMbdG3UbTvWURZCvNMWbLuDvL9nJ/usZZwc5VAmyqmnbeA1M737lgKQZjidrMJlNrJAh77WVLQ1OAlsSoUZ9L6uS0aVPT7mOSIhpslsx1jW9ML4bBq1VSbJ7F4AjCiy++hEMP6yOGimGUqwZdJf0U3AMo87QHIo5kiMWRoY8++EhEmOtKEERxn0pJiuqJJ55k6i3YdFa65pmDL54tpCRmzhUxUwq54l6te18KoM7g8SceF82CKdxkBI3ybAT88nzOnDVTBHbNt0wy4sgBiVCXrl1MVVO7qqdXLd7QgGnTp0s5aL5XHBuLnrEwGDNHeFLG6BkGYOZJI0G4CDffcrPoII45+li8/8F7UlSMGpoh11wj4j0ngHXTrvnbPEPOI0gRHg0pV/n87K+7/AWPNSMInDcYNqALnv0keB2swsnqka+/8bpcPhco9HLQM8T5iEWGmLLKcspMeWYI0T3Ljhw6q2+1zmmiRoyZKs3SzuzxELKZNU4U3XwBwHvFc31qG8tRz3DdkOtw6eWXNqnZYV5KQ3rW6kFQgvBbjMTv/o56EH43hM0OYMVHC+YtQJ9D+5i2t+zF4DP5/BTxyMuYoZj/LUNITzBIyQTEfPFtepkKa06k+PZb7+CUU07BkqWLxR3Ngi9MdWJ6pJB/rwejvxgjBIGxdidSdB4Ec5wUZs6YIdkPrGInimxbUY8K7Msvu1xEcq5GQBPj2RJBsJMBxz9l8hSZZCmCdBXmNuq4ER544EH07n2IuNw5mTE7gkV7OBHz+thPgkpr1mZfY4qTC19Mm47999tf0jHXdXMu8KaTZ+NRmhsd9wmx4OqSefhM13NbSwSB7buZZiaVHROmUiFd1Fz50XtCxT5jQYzHMiecnimXuuiaNa2tUJLUQfAYDwLrWLDPA8dHEsH7SQ+Tw5bnpjFn8Rk2lXI1Nz7+6GOccOIJ60wQ3OTPjnxPUWTXs7vcQ95XutAZLnDXwn3pjWIb7XTDr8wQkK3vwDAD8/Pd+8Pv8d8U29LdTt3NrDmm+I/bSI6ZwkeM2SFR8vU9Hmy/7fZS38ClHvMFoNGkx4SiShpVEhauhLlCLy9vk/aSCUE47/xmHgRLEOrqRI3//vvvi3udHjE+r0xnTff9SCfOZLjprbt+ypQpUi9g5oyZgpcJMTyOLbpvkTamct3LluOwww4VzQpd/8STAuP/vvVfuXSSGmpOSDZcYTOmjtJrdenllxlBp8cradLsaUENh9MvmEqjKVRXL5O251JtMRiU3ihCEMLWg8ATtSAU/H/tnQuUXmV575+5Za7JzGQmmdwmAQ6hWC5eKIKiLRXqUUGOYovAObVVMVWRrtN6QbwAgarBVkQlXuCsBmsBLbWrQYEEb4cjLoVQu1RcRYSQ60zu97lfvrN+z97vzp7JN9nffDNByP7vtVyRZO/97fe3L+//fa6828RhUCuBMdQ31tsXPv8Fe+e73+UBnWM2CYTJfpqet/0lEKYZdfDL0c0MfxqlXkO3NUzFHhgVfwg8nS0u9xuZ76P+AJ7qVRGJiiGCheK+9aHSIJM0L3wwyRMhvXr1v0c92j3ob9SVP/nffGxJraqtrbObl9/klgA+rqw++LCyWv3EJz5utPYNAoFUxmBK9Ujl4WG771/u8xUeQWVBIJyy9Pc87fH8P/4jLy/t4QXh5Z/ILxgLqOfWP+eR8/jFve46Ztq6WjdDUqkNEz0sWOkSyU/6Y6iUx4oOHy9/f/LSqDTuRBvxDazm+ch59Htco6DY/mHF62lkw3QYjOo2BF+1p6El/TOi5bavtFLFmsK/Uy/ipptvssb6xmQ1nCUQgl+VVeezzzzjk8qatWttcGBgjM862JymIhAYPxHh11zz1/av374vEa30TaCK4xlnnu73lI/5VASCp+m95DS771/vs1NOOSXhx+SLYF111ypPBQzb0pOXusvqT/8sqg8wfmXK+0KrY0z85M1jocMKRk8F0jAx74f7wfEER2LJoww2xX9wE+GiYR8mvDe8/g2eIUPlTSqKYtn41re+FTdiGvGJ84brr/eOhmQIVRSiuIijCgS3IEQCAYE9o7rG6xjw/keWiqRcU9Is1VOB4+ZtdG2lcBlj4V179bmvPiwQUg8uAoLUY8Z+/vnnu3uDdMgHHnrAx0dVUSw/VA99dv0zniFArBAWGOJW+AaQCYOw4H0K/Vg4NsR4ILh4Dok3Qmhxz6il4i6GsACIBUIU9xEFYVLJkwwo0ivZqI9CavHrLvjjI99XCYRpnoWm73QSCNPHMjpTKgaBF6K3pyepfEi61ylLT4na4LoVgaCpyJ9POt3uXbt9kqR6Hf/GquhpUs4qKj2IrLmlxV/iTRs3+ur0sXWP+U+efNLJvmoIZZA5P/7I79z/He/MiEDgY0nTlT987R/atu3b3eROPfvf/OZpb00dPqqsfFwgNDfHE2OFHdi/37688st20803+0c2CAQaUFGSl1K2bhb2eTrqljfRxscDccD18zFm0g+BZRe87kJbuZKuc0ujynkEUI6M2H/8x8+9YBMxAcH6gumeiGcK+Jx22u9HH9ciXSKprEc8Ax/0UrINWMUjWNasWetBeayiKUhzztnnuIWGj2SI+g5jDG4LJoNgKsaXjok1HYdQqkDgfHAi6+Daj1xrW+PrCJNlsGhMSSBgSh8Z9jLPWGiIXieOBYsCee1YLDxavLJyygLhjNPO8EnX2yXHBboYA1kbFPFhgmelHQJ3z/6Dsz0G4txXxel3sfVg06ZN/gxggqdSIyWPsX5Q6ROXAy9N9GxWWHtbm2cN4Oah0BEmblbI99xzr33s49dZV1cUT8GYz/+j8+2ss87yVupP//Y3Pu7wjM+aOcuL/uA6OOHEE6NbUDAPIp3IgtDf15fUAOA+En+0/Mbl9prXvjYpDx2UT+hvEYQlf/76yV+7WwzXAUyKCoSCeXEoJv31G9Z7UOnf/d2n7NprP2Jr1qzx68fFQIosgpuMo/POO8++8U/fcMvRh6/9sAsEUpS/8uWvuABKlVVJJvoHH3jQ43H4hhDMSr0F3kWCSsO9dAtCSqNzXoQY7qDQhwXhibXsJFyR4zcJhOmehabtfBII04YyPlFcM55VF9XkKAXLS0GENhPPL37xC++VzsR3ySX/w0vy8tGjQxp+eMydKz6zwlcr/LnqrrtsXkeHR5yfdfZZPsk9+8x6o74BEcL8N5PXvd+8133GmEjXPrzWmxRRJvWRHz/iwUhsdbX1NjwylJjzw9CTanKFQlQo6Y47PLCJjzgFYXyi+ui1iSk6rGCpu04wI5YFShd7WeC0FSHNNq7N8Phj63zF8tBDDyaWFXZj3F/84pfsNa8573D/gZRI+M53vuPukVA7nmOYvC684EL7xMc/YeeNbwscbkdo8xu7S8aYN4vUlUAQMOngmoEjk0HTzJm24tOfsWXLliUiZExwl8eRRNaJ0ATK/drjBEtJAiGeQLn8fXv2Ofe7vn5XVAkw1P2Ps2CmJBBiPrRNpvkTq3JS9Sj8tGDRgshXXq5AiCspRnNp1McDgUAUfyKqRgs2NESb35/Yu9/1bp/kYnnpDN/0hjfZl26/3ZZQHMiifHueQ1xSabdEOF8V1gbKbcc9PJjUb7vtNu/8l8406e/t914dlAzmPk+0IRxI/+TaaAGNJYHgXN+yBEJ/v73t0kvte/QpGR111yKxAhTE8jiXpM1Cqt9C3DkSC8OTv37SXRsIIbZXnRsFKbqLIfVc00+B4FGsetQQ+ehHr3U+WJ1oSgUDrGzUlOBZxs1CP5VHH/2JCwkskAgE3rs/f8f/8mDKEIfi93901L773e/asvcs834u1HJBbOBunEggcAylklmMEBhJECjWBgKdl994o7sajtiCQNja5fFHRbMYFIMw4bN6LP9BAmGa6TKpUlOctKY1a9d4gBMFhoi+x2SIomdlgKuB7nV0JaM2Oq6Ap3/7tJviWOW8+tWv8nbLTIqYU3lJb1x+o6cfsj8rPfL0sQxQAwFTLZHStJUlmvqee+9xEVJsYxIMLZmDC8FXMFaRVFKc1TIraepCMNt/PfVUFJFNehM55qklA6vNq959leevL1y40CrDJBfiKCuiADMa9lAMiLoCrF6j6Hnz3vJU0qMYC6u85NSxQGAMiBwmGdob+8reg9SiAjWdizq9YBBmaQI1j8iYCNcR/kxbOGLzqJtXaXNTVemmdz68kYl41ONGKNjCZAG3o6bFpQtcjhMgkxII8UeTSngIE4RlxD2u/U89eg9SPHqzpoliEMY8F+N8/cEGPmmBMGq2YeNGu/LKK+IaGVGoG0VtsBYhEIIbJaTY8hzc+bU7vTgPkfshtqChrsGues9VHpOACOWamHh4T+iQ6k9rZYWbyEkfxiX1y1/+0isLspGOigjAtB+20eEoywSBwbu34pYV7qpjI8snpPzObJzpqXVwR2AghNNlzNl/vIsBCwWTM88377kH6MVpu1iRiGHgWkup0YEoJ9AyCHsKGZEB5YWS4o3nlQUElg1Y3LT8Jm+lTNl0Oiry3CIQuB7EBS2faffOKh53G7UzuE6CLrEYUoQsEb3xc8tkv/ahtfbOd73TK4kGgfChD34oqmIZrEFxPQKeT74/iBJ+04uNFaIW1IiQiy56U/HxJwKh2976lrdIIEzznDSV00kgTIVekWN5cZkIrrnmAx5sxormHX/+Dlux4hb3+f/FO95hT/z8CZ/Y+YDRkpeoecy6+NmZNEkj4iXjBcb/9817v2mnnnqql8A959xzvBMbHy9yngk+u+TNl9g/rlplM2c2JZHNy29e7gIhWAeoiFZTU+3ZFFSqoywwNc75d4rjkPsfYhCwVjAp8juIkl89+WQUzRz3jL/44je7eFm3bp2NxJ3bGhuavNEKbXvPPPOlPnHzscdqggmZD8aPfvQj27N3D113QkkXbwWMz5l6/6F/Qjr33X80/mAdOthj9933L26BIMI7uEXYobWlxaO4yYh42UtfZk2zmuKVWlQw5/As4a3hks0nrKpotcyGQNi4YZPXHnj0Jz/238DM/NlbPuumVm++VOo2ztUyKYEQ/wYWodtvv90DzUJt/xBxnwiEa6+NakOEySPVzbEkgTDBeEoWCCkhSLvnK664wqiM6a40rEOnn+4+6aW/tzTJmEjfY66RiQyLQX9/X5LZwMobAcSzjkWN3H/eGSwJPLunn3a6p0USP/Dojx/1UuIh04K6BX//D/9g7XPaPKZnoL/f3VnEd+AmIwYCUzzdUGkqxHvHu0AnQt5Nzvue9yyzV7zi5R4EjND3DBUuvNJs185dLvZpd87fIRCIO0HoDg8PeToggoX4HQJCQwqs93SKuUz0GPG0YmlwEUwMx2mnuUWBcbJhEcEtyaKBhQBlkBEAZLpQJ+OhNVR3LLgVhvoZ1LH4zIrPWM2MGV66mKZi/n3p7/NJn9U9719wd/gr537Cgr+7t37+Vn+Pw/NGUDKiJ5SMDkKB+gtfX/V1bzy2e/cuvwYyH3iXcCl2zD9618Xurd0eVCkLQqkfmGO/nwTCNDN+5uln7P1Xv9/Ni7zomN1v+/xtXvWMtD1W9wRsMWnR7AjTY9PMJk8r48VjEsCkyIqBmAKsBd/73vftla8826OZmaCYIHnxMQvz35TEJXqZtriYolevXu0vJB8EJjfcGJSdPfGkk9yU39Ex1yujNTTWG7XUWS2z8uN6abSCGZHVDyZaypp6VbPaOvcJL19+k5111ivcfXHD9Te4GyWYdflo/MmFr7dbb/2cf0DoL8DHiahwVkTsF/LQOR8+YsrFUncf8/ZRt6hgm/X193o7YsymWFBC58ewomScrDLf+773Gv0v0gKj2Pl3bN9pj/74x26lCe4BVuuIMsQMH7nmWS12y4oVft6kcVApz81kBUIc5BUmgZCK+uxvn/UCQqwMA0Ouyz/Y133MA8481iFeiaXbPU9FIIRKdZlBiimBQODc5ZdfYevWPZ4IOCLsqbR5yqlRkOIRWxxvwyR4//33R/c0Dvwkc4Pn/dI/vdTHuHnjZp/YcIGx+ucdGBwash/84Pv2+c/f5q2N2UgppDQwVgb2oRYI5YmJtSAzpL6+zj74tx+0+oYGu+WWFd47Il3REcGAlY/y0PjPefYRJGeceYbHCe3etcf++ppr7N5v3ZukOVKjgkqFVTVVHk/kHQ6HRzwuxeNGvKhWqsDZUZ4hJmiO8xTO6mqbNavZK6GGNEmCGMnmeXzdY95Xgu9FZ2enT8ZYLtne+IY3+ncBbuvXP+c1EBYvXmKr/nGVt6+GI+9NQ2NjZLkLWxxI7BknQ4O+UGEbIxBIc0wFJ7LP6tX32/Wf/KQ3+goxHK94+Ss8ngTxkm5dXmzoEgilfFSe330kEKaBd4jeJQ+bWvqY/dw8WDDPZPjc5z7nK3Z8hQSE4W5go6kKNdYxg657/Ak3D+J+wBzJqpHoe6wLFLVh9YRCf+o3T7mpnlUPLyEfjk9/6lNuiWCSZUVMACK+esztCBQ+AOQtewGauHFSaKLECoHOhrzUfHwuv+xyu/J/Xmkf+fBH7Onf/jaugjbDU/FYdVDHgQ8WK6Mf/uCHnonws8dYLUa+RkyVN95wo/8+xZOInvaqbHHeOtd4wpIT7e2XXWbvvuoqW7y4M/PD4bBSgVBwIG4DRqwC0+WZmcz/5m/+twsxN01nbKR3stp0s3VcG4KVc/DB8icBm0xSuHVCGmnWef3fjxAId7v/FnMtPNra2u3ee+6x113wuiOrT8bZEfw+JucHH3rIPvCBq32FHCZZAia5J1Re9OIzsUDg+lmxL3vvMm/3zG9hnbn7G3fbW976ltJ4hxbElRUu8mjSQ+xMEFyXXHyJfe2Or7k1Kkk5rDDb8NwGN+8/vu7xEKrvEyv1AjxIsUggqd/ekVEXnVjPvJvfKHWw+ZcKI7OBtM8/ef2FyXOEoGNfBC6TGCZ/T3+M3V+hGFFSsTAVJ8LM2zF3rgfnXfzmi72HA90QKRhGv4m05S10fVwwf4FbcXi+mXDhevX7r04EAs8Fk+FrXvsa719ADICPIb4n0YQfqgtkPz3h+QvnYDwhMPf0M8+wxx97zP381H2gINJXv/JVf//5u6hAk7kFYeVXVnpskt8jq7DhkRH78sqVbpkM7phgkUpfVbpYUhBroe4GWQw8e1HaUhQf8uCDD9nHP/4x7/PgDc6GB61j7jy7/vpPejyPt8qeONnIfxrXLIHHjz9Bs6ZRd8mQlrnsr5ZlLyCykWqPMghIIJQBreghBbOH1z7sBUgoTBIiqakpQO45HxBWMnyU8OkT3du5aLG3Yz3rD87yjxtKm8mPoK5zzj3XTjllqQsBPoSkLPLiMVkM+0o82lidYXKlDHCSPzX2TT9s1uVjlapuyH/+7Kc/9VUHlgIXCG+/3PPguZa777nHVxZve+vb/JrTPlB+AmvFI4/8P1u+/EaPKsfC8YUvfMFe+tKXelYGk+E/3313VAeiutKjuek7gKmeLnJ8NIK4yrwNaT953HAJczaxFxRq2rR5o38Er7ziSrcudCI8CAjL+CixIkUQPfqTR6NMiODjD6mLVnAfKm4X+hL4h7PUylap9tsctubBNW75wTzNJIOAQTCec865h+M2xoOIu/ft3b/XVn5ppUegh0mLcyBaWElW11QlKzomW2oCfPazf289PTThqvAPLK4cTOeZ1ppx14AV69Of+rT77kMWCULxuus+ZrPbWpOa+Ez+1P/46HXX2VNP/VfkjimYdS5e7L0IWOEGE/0R97tgNjAw6BU7V61a5Sv9pOKnmZvAicdpb2v3e4r7jmd1zcNroiqZcdfFYjUrQoZAcLdxXjqDUnTqoovf5JeC++qRR/6vpwBSIhnBwTvq6ZA1tXbZZX/m7oNFixb6xE+zKdxZwYIQVsylZMpkPuvjdggTOJ1S77zjDrfydXd1uzimsRbvG2mKLED+8i/+0h5c86Bf9xv/+xuj/iUnHu5fgrD/6pe/6lYnVv2hRTPxCaHKIz8fYkSwelI7gmcOqx+lvWnw5Nk8bg2Jmp8Rq4BYpQw410sfjQ/+7Ydc1JYi1F0gbOnyOCK+JfDEbUPsD4ufdC+GyfLT/uUTkEAon11yZFhxsvK5887/Yz/4/vc9QhrTP74/CgrxoSQga+3atV4ICBMn6YzUuKedKx89rAV8YLwjY1wrAVMlq/m7/umuMeZZJoeTTvxvdsMN17vfLt2rPjp4goGlFjF86HADeNU+LAhWYW9/+9vt9ttXet91AsSYHEljnNsxd+wJ40mSMf3nz//Tbv3crZ5SRtAlE9Dw0Ih/cMlwwPd70UUX2aWXvs1e/vKXOY/E3Dg+QK7U+xEfR0lXrCBMvPCjwA3piF7vIC47fTSRsGf3Xnv/+95nq+9fnaSfcgmYmEOTIYLPaBhDIJxbXkppvMBJ0gLBzONDsATBjBtEaWp6OhzV9BqnzfJcYCnhePzodMOi7HVra0vUSZII+8MJ9m7BooZEaBLBigxrUlKOu1TOBIj29rsLJvjROZSeIi3Nzd4YyfPmY+sLZnpW1/wZVq0INTrvJc/oRGmwuJD6+jzQbWhkKCpNjC++stItVlw/VUDDf2Opuu2Lt7lQDfEBTP5u5aHfQnWN3zMsacQzYAmiP8HJS5fa0qUnexdDWi4HbogM+JI+iJWOdxU3BoGKt39ppb36vFclLjIEQrAgMJli/sedx2o9acQ2CcYT7lpR4VY/3lUENeKdZlPBigQvLIN19bg9drv4JvOAsVDjgYyNdGohkznt3LH88V7y7MCR9zO0svZH12uvmH3v4Ye9mBRpnWRBkf1AauqYOghmvvjBAsM3A3FFTBUTO/VUQoXSLBzUtSDY+bHHH4uqa9Y1eFrlsr+KezFknUD/Pu0EJBCmA2loRVtR4TEET//mafvhD3/oQXsU8gkR93y0CJaiKhlqnAko+rBF/sZiEzsfgG/f9203G6LaUfIcR+ASFQI5Px/EUPUvGU6x842bjFm9U+mMldS27m6/FvytV3/gav9w4LOl7TMfWT9/+sOe8jtzHj7qVA0MjZT4oLHKQ4AghBYvWXK4gmOpE2wJ9ybUICBgk9/jd8b4UzPOweTyb9/+N/vpz34WuV/cYWxusqfIDnESlNtNm/B9QinFijBOIIwXKr5KC82til1n+jeCsEsJvzABjzk03i+Y1n31GX6jXDEWfiB1vBfzCimt8XWmXQ3JNaXHUCyLpIR77Luk3rEoTbBga9c+bA8+8IALQZ5XIvLJ8sFSgRig8iH1EDDNY83wfiW1uGKiBlseckgkfnBfBbZuzRgwugtSpRBhcsGFF9qM2sgi4sG3h3rsjjvvtCeeWOcTNGLv7Fee7WId8ZQ8S1kmrIzx8zgitngu3c1QX+8iKcQzuEslLt5FphA9O5781a+cz0tOfYkXRuM5Di4D/p46C3yjPMupwuzMM850EeTCKjRfiuMm2Hf1v6/2lEj+HcsR70RNzYxoZOjSOIuhp6fXFwVUu+Tb19DYUNyqOcGYcdGSqcJ4Q6EmYkBwz04RY6lPmfYbR0AC4Rg8EmHSSvytqcl0sj/HyxdaMqeDnHylRMvbrIkq9hNO9LuszJgkvchP/HEgbbFoMNlkLz7lRy/j0OftkGA2H58W6t3sxrUVLuuipjoxZ/1osTRF/9JnHThN/17K8z3dDOKJOvQGCX7yMJGGtN2pMkifNy16+Pvggghpr7zvSZzPNIrgUu5SqODqlps4DgMGno4Yx32EiTyIxyC0gsAI4meMSBiNa0vE9y9YdSbiWpRXKQOI9zmcmRT9xXR9hyZxCdo1RUAC4cXyOEwkBCb6+wxh8GIZtq6zBALTPfmW8JNjdvld/376YsZbd47Ve1CKKJosx6nsX+w7kCUQj2YJS3OLMoDjGft5FJ5T4aFjp4WABMK0YPwdnqTYS17uR3G8Sft3OCz9tAhMmkB4fsc/x1kT5aR/6Dg5ID3xjx/SRAKB/TK6tB4ndDQMtKDaPR8Hz8H4F71cgXAcoNAQRGCM203i4OgPxNEskOFILRxy+1JJIOT21mvgIiACIiACIjAxAQkEPR0iIAIiIAIiIAJHEJBA0EMhAiIgAiIgAiIggaBnQAREQAREQAREIJuALAjZjLSHCIiACIiACOSOgARC7m65BiwCIiACIiAC2QQkELIZaQ8REAEREAERyB0BCYTc3XINWAREQAREQASyCUggZDPSHiIgAiIgAiKQOwISCLm75RqwCIiACIiACGQTkEDIZqQ9REAEREAERCB3BCQQcnfLNWAREAEREAERyCYggZDNSHuIgAiIgAiIQO4ISCDk7pZrwCIgAiIgAiKQTUACIZuR9hABERABERCB3BGQQMjdLdeARUAEREAERCCbgARCNiPtIQIiIAIiIAK5IyCBkLtbrgGLgAiIgAiIQDYBCYRsRtpDBERABERABHJHQAIhd7dcAxYBERABERCBbAISCNmMtIcIiIAIiIAI5I6ABELubrkGLAIiIAIiIALZBCQQshlpDxEQAREQARHIHQEJhNzdcg1YBERABERABLIJSCBkM9IeIiACIiACIpA7AhIIubvlGrAIiIAIiIAIZBOQQMhmpD1EQAREQAREIHcEJBByd8s1YBEQAREQARHIJiCBkM1Ie4iACIiACIhA7ghIIOQF9JOpAAAS6klEQVTulmvAIiACIiACIpBNQAIhm5H2EAEREAEREIHcEZBAyN0t14BFQAREQAREIJuABEI2I+0hAiIgAiIgArkjIIGQu1uuAYuACIiACIhANgEJhGxG2kMEREAEREAEckdAAiF3t1wDFgEREAEREIFsAhII2Yy0hwiIgAiIgAjkjoAEQu5uuQYsAiIgAiIgAtkEJBCyGWkPERABERABEcgdAQmE3N1yDVgEREAEREAEsglIIGQz0h4iIAIiIAIikDsCEgi5u+UasAiIgAiIgAhkE5BAyGakPURABERABEQgdwQkEHJ3yzVgERABERABEcgmIIGQzUh7iIAIiIAIiEDuCEgg5O6Wa8AiIAIiIAIikE1AAiGbkfYQAREQAREQgdwRkEDI3S3XgEVABERABEQgm4AEQjYj7SECIiACIiACuSMggZC7W64Bi4AIiIAIiEA2AQmEbEbaQwREQAREQARyR0ACIXe3XAMWAREQAREQgWwCEgjZjLSHCIiACIiACOSOgARC7m65BiwCIiACIiAC2QQkELIZaQ8REAEREAERyB0BCYTc3XINWAREQAREQASyCUggZDPSHiIgAiIgAiKQOwISCLm75RqwCIiACIiACGQTkEDIZqQ9REAEREAERCB3BCQQcnfLNWAREAEREAERyCYggZDNSHuIgAiIgAiIQO4ISCDk7pZrwCIgAiIgAiKQTUACIZuR9hABERABERCB3BGQQMjdLdeARUAEREAERCCbgARCNiPtIQIiIAIiIAK5IyCBkLtbrgGLgAiIgAiIQDYBCYRsRtpDBERABERABHJHQAIhd7dcAxYBERABERCBbAISCNmMtIcIiIAIiIAI5I6ABELubrkGLAIiIAIiIALZBCQQshlpDxEQAREQARHIHQEJhNzdcg1YBERABERABLIJSCBkM9IeIiACIiACIpA7AhIIubvlGrAIiIAIiIAIZBOQQMhmpD1EQAREQAREIHcEJBByd8s1YBEQAREQARHIJiCBkM1Ie4iACIiACIhA7ghIIOTulmvAIiACIiACIpBNQAIhm5H2EAEREAEREIHcEZBAyN0t14BFQAREQAREIJuABEI2I+0hAiIgAiIgArkjIIGQu1uuAYuACIiACIhANgEJhGxG2kMEREAEREAEckdAAiF3t1wDFgEREAEREIFsAhII2Yy0hwiIgAiIgAjkjoAEQu5uuQYsAiIgAiIgAtkEJBCyGWkPERABERCB44VAITWQikkMiuPG758+F6eazPnG/3Q419F+Yyrnn8RQw64SCGVA0yEiIAIiIAIvcgITTcjFhpUlKgpmBStYBQqhnEmc4wt+EquoOnyC5O8qyjzvFG+RBMIUAepwERABERCBMglMZpIu8hOF0egEFZXjZuX0eePJ1yfv1Co/MQiUMqGPRtYBn7D9/44915hLS50vub4wwaeui39Lrns8h3GWCX63gnOMt1JwXWyVZfLPOEwC4dhw1VlFQAREQASyCBTMdu3aZcPDw1l7Fv332tpaa2pqspqamiNW7qMjo37evr4+GxwcMl+em1l9fb3V1dVZVVVVNOmWIhAK5ufq7++3gYEBGx2NZubKikprbGq0GTNmWGVlPEunzrd3zz4bGR62GbUz/Herq6ptZHTEent7bWhoyLhGrqG+IbomzhGEABaJocEh6+vrt+HhIRsZGbWqqkqrq62zmhk1PuaioqEsksUPkkCYRpg6lQiIgAiIQOkEWBlv2rDJFixaaJWVrMsr3FTvc/kEE3fYhz8PHTxke/bssY6ODqtvrPfjmLz7evts+47tPok2N7dYfX2dVVZV2kD/gPUc6vEJmkl9dvtsm1Ez46gWiOGhYdu9e7f19PRYU9NMmzmzyY8Nv3Po0CEbHBq0lpYWmzVrlv9O2Lq7uq2xsdEn+kM9h3xCZ6JvaKi3mTNnWm1drQ0ODNr+/ftdCLS0NFtzc7MNjwzbrp27/N9mNTdb08xGq6jg+vt9zAODA9Y2u80aZzaNxQS3abQmSCCU/ixrTxEQAREQgWkmsHP7Tps5a6bV1deVdWYm3+3bt9v8BfNdYGzbts1X+wsWLrDq6uqi50SYDPQN2M6dO90C0Dq7NfL/p10VBXMhwbnnzJnjE/34f/fZuWA2MjJi+/ftt57eHps3b75VV0fWia6ubmttbXELAS6F/oF+txQkK//U1Y0Mj9j+/Qesv7/PhodHrK1ttjU0Nvi+Y1wMZsa+XDtbx7yOyOUR3BISCGU9RzpIBERABETgBUaAVX1XV5edcOIJRSfOUi5365at1tLc4itxJvxZzbOyzxVP7Ey0VZVVNmfunDFWiwP7DxjWgbkdHVZdVRVdRjGrRrB2FMz337N7j4sVxAkWhNa2VncvlLrxu4gIrBRHc38gOHbv3uOnnT271SrcPVHqr5S2nywIpXHSXiIgAiIgAseAABPdgQMH3IRPXID78j00IJrtfAVNMGI8+WHGx6efbAWzzZu3uJ++tbXVWlpbDv9ToeBmeuIQhkdGrKa62gWExx/EGQfEAezcsdNX61gy2HoO9drePdFEX1UdiwOL4hBwBQwNDvp1EgPhlo+U9aG3t8/27N5t8+fPd2sG1omGhoYx5LA4HDxw0N0UiAEERFHrhJnHKuAyGRoadtcEbokQ78DxXVu7bU57u//9hCKmzPsmgVAmOB0mAiIgAiIwdQJh8sdszkTO5IlJnUkwZA3w54EDB62qstIWLFpwOCDQzPbs2mO79+x2n/68+fOSCyKgkNU8xzKRIwpC0CL7Nrc0J+chzmDL5i22eMliPx6LBm4FjgtuhH379rmQqamZYXVMxgXzgEViJhAmaRcJv4uwYTz8Gy4G3wrmgY7bt223hsZGd0Uw+SMOsFQQhJgWPvzevr37ElHDsXBpb29PYh36+/pt7969Nm/evCNjKaZ4eyQQpghQh4uACIiACEwDgWK1BuK/w+x+8NAhmzevY8yKHp/9/n37fCW+cOFCj+5nQwgw4c9ua/OgQvf5x+dCMOzYscOFw9yOuYlI4DdYpdfUVBuTLv8WrBa7d+22wcFBa5/THmVMxJM9fyACsEDgoghCgOvZuGGjVVZW2dzU3yOCNm/eHF1rdXQeBMbBgwfdPUHcRNiwHHRt7bIFCxYkv8k1EzDJn+4Sia9jw8aNtpD94vFPw93wU0ggTBdJnUcEREAERGB6CKQmc1bpO3fusoULF4zJEOjt6fVAvba2NmNyn79wfuKO2LJli82ePdtX3kdscVGjbd3bPPCQeAU2JnVEBa6H9rntSdwAYgFXQWfnYquqPjICkMmafXbt2j3mGjk/kz5iIAiHgwcP2eDAgLW1tx3O1IhjIbjmzsWdiWDZu2evW1Nmt82O/i6u58Dvbd3aZfPnz7PqmigIk98i3fOIQMop3g0JhCkC1OEiIAIiIALTTIB0xULBeg4esp27dtoJJ5xQVBx0Lur0NEdiEsJEPybocaLKhgVziwCWhEWLFiWWgvXPrneBsPiEJW7uZzJmFY+7YcKgwVjMkO1Q39Bgs4hjiF0JmzdttkWdixKBQBAlAZFNM5vGACMOoru7210kuELYsFpgrSDmIlrOm8diYA1BsCCAPBajYD4OxAH/K6muQ4m3SwKhRFDaTQREQARE4PkhQMHCvp5e27M3DhQMWQSY9HuocbDDV+uY1Fk9UzsgrNLx24+OFKyltfmo9RSYWLEYMCmHlfiWTVu8kNGSJUt8onVXwXMbowyL8dUax6GgPgHxBHM6ItM/LoLn1m+wznECAdcCAZHpDYFA3APuhFBHgToIxEAQLxEEgsUVHcmOaJvTFokWM49pcAtCMYvJFG6ZBMIU4OlQERABERCB6SeA+4AJkiyCtF8d68AO/P1z2q22ts4qKs22dW3zgMMgEKhHQFGhWc3xxDrR5SEQtmyxuXM7bEZtFA/AxEvWw+ITFvtKHYGw4bkNduJJJ2amTSIQenp7rYPYBRcIw/bc+vXW2dk5xoIwkUCILAjzk0BFAh1JlUwsCMQrkC1RYW7VIB4iZHPs2C4LwvQ/hTqjCIiACIjAC4oAq3DM6wThJal7ZpGff+cujzkIVRNZ5WNBYBINq3IqJfb09NrceCU/0eDCqt1TGWMLxeZNUbokgoANk/7GjRvdonBUC0LBPNtgaHgoCR6kgNP69ett8eLF0y8Quro8kyEIBCwIwcWQZemYzM2WBWEytLSvCIiACIjAMSGAW4DJmckuHSSIK2BwaMiFAAWBMKWnqwYS1V9dWW3NuBTIYBga9kwB4haK9lqICxv19vTZgf37o9TIuMbCc+uf83N3LulMqjAiSqhTMFHAY2jiFCwZQahgBdm0abMtWVKeQEAk4UJIXAyuWKJYBKwNBDoGF4MHKTY2RbEN01gsSQLhmDzqOqkIiIAIiMBkCAwPDlu3B9+1Hp6M4wj/rVu6rK09Lj0cz4ChvTK+foL0SBEMJYy3b9vhRZGoYnhEWWPOOTpinLO9vS2xPERFh7o8YwCLRAgkJGWSSo0UPjoiUDFuG4HQIN0xXYeBeAZKK6ezGAhSLOZiwFLBpN8xjyDFKFMiEQhNM8dM+ox7W/d2v/bgfkGcIGBcTEggTOax074iIAIiIAIvWAKjZsOjIz45sypuTAXw4QbYtGmTm9OZsEMUf5gE3ScfFzaigmKoWOipgFu6bMaMGo/2D5UTRwujnr2wffsO75EQMh9gg+UCS0FVVbUdOLDf4x/ChjWAY4gvIPaBxlIEAxQKo0bHxkOHDnq2QnBVICo2bdzkRZWYyJP4iKMKhG3eVyEIBLpc0rkRy4A3YIqtB4yNa6XGA+Nj697a7ZYVrwQpgfCCfdR1YSIgAiIgApMgwGRKOuDcuXPHmPFZ0W/dvNU7F9bX1UfllytIPRw9XGFxtOCFk4j2p8pg2orAREpcABUQKVhEFUbKLTMBk7aYrnzotQ66t3klRSwOIW0wnY5Iy+gd27Z7dkJ1TY2Njo54nQIqJaarMvK7BDuSWcFvI1BKFQgUgkqyGI4iELhWYjFCDAIWBFwbHtAogTCJp0+7ioAIiIAIvGAJDAwM2vZt0eSc3rAWDAwOHm5AlG4BHaoukoo4Muq1EOiR0NTU6CWHfYs7LSI0ECHUVaDpEoIi7XYga4EaBrSMDlUS2b+7e5vNpdxyfW2yP5M/1RD5X0VVhVVXVY+pz8Aqn7LHiIj2tnbbtj3qxRCaNR3dxbDNK0WWIhAQIOkgRQRDfX2DNbfENROm6W4rBmGaQOo0IiACIiACkyfAZIsbYSrdHBEJxAkQwc/kny44VOyKCqNRuqBXadyx01paWyPXhpdkjnIJ+ymhHFdqDG2Xi44uFi5cg4uDwaGoTDMVDuNmTUEgEPDY2Nhk9Q3jWlvHxY64juA2mMjFgAjx2g+p1E53j9TVRy4TWRAm/xDqCBEQAREQgRcggYJ5fwEmdlbbRwQVlnjJ3iDJKry3ASWOm5uJSaiPrAKpSRMrADUKKM/c39/nLoAkdsEKSZfH0IwJAUHgYmvbbKurja0JqfNhoSC1kgJNtTNqo9LIVZVu2UgEQl29Byzu2LbDFi1eNKbZVBiep3fSBXLBAneDICbo9Dg+BoHrYnxYI7CWEPeABYQxKEixxIdFu4mACIiACLwICHhZ5VGPzCcSj0mxnFVwf9+AZxm0tc32yZnJtqe3x+MT+B+TPDEDZBsgJAjoI7CPCRbRMD4l0v8uFhwEKWIdCO2ZcS1wzVg/mPgJXGxtaYnqNsTiARfJ1q1b/ZpIvcTF0UY8QmPc2XHcreH36L/A5I81gPO2tLT4NXptg+BigddoZK2gRTbCgD+JhUgHXU7HnZeLYToo6hwiIAIiIAJTI+D1DgZtaHA4yhIoY2OyJ3MAT0FUKrlgIyPDLhiCCCA1kIl/TEGh1OQ7RpykYh2Y8DkH8QkhxZIfqZlR7ZP3EQWK4n4MoWW1ixRKPx7Z72nMSBETHjMxOuoWCc+MSGUxhJ29TXZc0hnh4+dPt4sug9/4QyQQpgGiTiECIiACIjBNBNLBiOWespxzlHNMqddXrJV1sWPT+6VFSxGBUOpPT2U/CYSp0NOxIiACIiACL34Cx1IcQCdliTgqLAov0bHR6yzEx3GsBMKL/xnTCERABERABKZAgMlwKpN1eZ6JKVzwMTh0PAMJhGMAWacUAREQARF48RFIm9kne/XHg0BgzLR1zohVmCyacvaXi6EcajpGBERABERABI5zAhIIx/kN1vBEQAREQAREoBwCEgjlUNMxIiACIiACInCcE5BAOM5vsIYnAiIgAiIgAuUQkEAoh5qOEQEREAEREIHjnIAEwnF+gzU8ERABERABESiHgARCOdR0jAiIgAiIgAgc5wQkEI7zG6zhiYAIiIAIiEA5BCQQyqGmY0RABERABETgOCcggXCc32ANTwREQAREQATKISCBUA41HSMCIiACIiACxzkBCYTj/AZreCIgAiIgAiJQDoH/D/CTpZ+tyJhUAAAAAElFTkSuQmCC;" vertex="1" parent="oLrsJeIFUzb5wXI0BTTU-1">
          <mxGeometry x="140" y="160" width="324.78" height="183" as="geometry" />
        </mxCell>
        <mxCell id="oLrsJeIFUzb5wXI0BTTU-4" value="" style="shape=image;verticalLabelPosition=bottom;labelBackgroundColor=#ffffff;verticalAlign=top;aspect=fixed;imageAspect=0;image=data:image/png,iVBORw0KGgoAAAANSUhEUgAAAggAAAElCAYAAACBJhoWAAAAAXNSR0IArs4c6QAAIABJREFUeF7sfQecFFX29enckwMzMIAiIAZAxeyuYV1zArOCmBXFnBMiZlcxKxjAHNewq6665oyCCgZARSXnzBAmdPd0+H7nvvd6eoaBHtT9C1/fclmG6eqqV6eq3j3v3nPv9aRSqRR0y20E+ASs7Snw5jY8OXP1+hzkzK1e64Wub89Bem5KIRaL4d6770As1oCg34tQKAC/34+A3w9/IIiA3/zb5/PB6/OZv71e+dnr86b/7YEH/J/bUskUEskkkskE+DOQRAopJJPJZlCZf/OzlOyfAk2oM6OeVMJ8zt/xM/5nTWwykUQyZf7IZ/Z7PAf/zb/5J8ExpMy/3d9uH/k3v5/5Xbsvz2uOkUIibr+bSsHj4XiAlPzgkeMn4on0ccw1tPxEeJQg6Jwg5EAJgj4I+hzoM2Cs3/o1H2QQhIZYDPfcdQei0Qj8Pi8CAR+CgQACQZIDP7xePwKBAHwkCSQGXi88/GPJAQmDx+OFl8aSf+yWouG2BpoG04HA33PzpPelwTUGtXH/RhLRhCBYI54mCBkGXwiBPWeTn2nsHZGw+9OYk2jwf+47jjysRiTkuxkExRIKXlMSniZjlnHJdbRAECw0ShB0Slj/JgS9J38OAuubYfhzUNCzrm/PQRMPQhR3Dr0NsYYYAj4vggGf8SAEA/D5/PD7+LcPPr8PPq/zIpAgZHgTSBg8HiEKZjOrfbd6z3ArGMNsN0MSDDhNVvYZHgSvR6xz2phnehfSq/5EMy+BeC8SaW8FCUKmN8N4FMw4ZYyJRJpEZHoShLAk6PloRgScdyTj9809EJkeBIONYQhKEHQ6UIKgz4CbJ9evlaPelz8HgfWWIACxWD1uveUmNDREEfT7jfcgEBAvgd/nh1dIgiEDmUQhTRCsJyHTCIrptW76zJCCJyM8IMbSm0kQmoYX0iEGJIUgCEdIexBsWCLjHC5kwOPSKxBPxI3Rz/AepEMOCRNyMMe0BMGSARIJ5/1w1xFn+CDhCI8dD0hCgHgGuXD789iZIRdiQ8+LEoQ/5/Vb/866vk0I6x9CuTEifQ5y4z5nu8r17TnICH/GovW46YZrEWuIGN2Bz5AEehG8XpICG2JwmgOvTwy7IwiGRDgPQmOIwbjZaWwbwfHQ2IuVbAwxmIV1oz6gkQTQyHJXE/uXiACNuiUZaQJCAkDjbkMXcrRkSggCQwniLcjwKLjPmnoKjP6B+8bj8XTYwJ0jTv1B5jGEmDDEACTk/OZaOUaSAfNJyoRjLDnwCUZe9SBke1dy4vP1bULICdDXw4vU52A9vCl/wpDWt+egCUGow5BrBokHIRQIireAAsRgMCDhBZIEESk6DYIVKXp8HitQNKJF50Fw0gLnAWi6mm4aXmiULDQlCM4LwOgCza14EDKIgTs2QwP84zQHjkiIaDBjZe9CBU5vYL5H74IJQziRY6aHgccweoIkGuJx2d+RivSxzejShIKj9VqvCK+NhCsQINEiVkanoSGGP+H9W+9Oub5NCOsdQDkyIH0OcuRGZ7nM9e05yCAI0Wg9Bl15GWKxKMLMYLAeAWYvUKhI4y+ZCxQi8mdqEShMFKNndQhOf5CZxWBdB0IQMsSL4kCQ/RiXNz83kgqHY4b3ISPDwBAAm60gq3dr4Pm3/J6r+YywQcJkQKSJhP0u/+08BcbwmzCD6BTssTIzHriP8RQ0ehJM9oNHSIOQFHudQgS8EGzCwYAQLQo//X5qOdSDoBOC8Zhp7FmfBH0O9BkwCKy380EKkUgEl118IUgUuNr1+30ma0FCC/y3SXFsdJXbNEe6zi1BaPQeZGYxNKYjuseA2QriZvegifvdiRXFADOkYNMZ02GFdJyCRtkIIMXLkM6SMMbb/Y7GmgSAYQMSisywAb9PIpAQr0Bj+qP8XkiC9UhYIaMRMSZBHcJqQsok9Q6NBIHn9/u9QgrywiHk54UQDocQDPrldyRZ6kHQScEg0DzdN/2WmBicbjmCgD4HOXKjs1zmevkckCDU4/xzzkYsZtIcqScISoojUxsNGRDCwAwGqX9g4+r0KMhqeXX9gckgzAgn2BoJhiAYRb8hHI0/u0wGFz5w4gWjO7BTagYh4Hkb0xqtDsBqGegFoEGX/EQhEjbkIOEEQzIayUCjODJBYaOtp5D2Toho0aUuGrLhPkslDFlxpILnCgR9yMsLo6SkCMWF+SgoyJfaEsFA0Gg3tA6CzgeKgCKgCCgC6z8CKUTq63HmgNORiMfEe8BMRXoNaNAcAXAeBP5tiIPzApjUxuYhhObXnU7x8zjhHvdoJAluxeRqE6RJgiuQlFH/wK3iyTmEPGQURHIeBP5NQ06CQG9FYygiCVZASKc2isfCHSMhGQmu4JIx+rbgks20zPweBZDxhpjxKkgIIiEEIBQMIL8gD+VlpagoL0ObijYIhyn69BnRpRKE9f+10BEqAoqAIqAIGIJw+qknoyEWlVg5SQEJAv9khhUaSQJDDibOLh4F60HIxNKJ+dJOU+sx8PlMul+mF4GEJFOiIDIDW2hIiIIUaPQYI59KitBPMgiaVUV053LkQrwG8YQYZclmsOGDRAbZcEJEpyPI1BKkXG2FZBLx9LnseRMJNDQ0gEWmhBzYbAlixAyQoqICVFVVoH1Ve1S2q0B+fgh+Zn8oQdBXThFQBBQBRWDDQMAQhNNOOclqEAw5cPUOaJhp0CXl0WoOzOdNjXzL12rc+4ZM2LAEayZ4bU0AF2ZICxVN3FVCAOnUwUZPQ6b7P3MlL2mFGYWVSCLShIIiRRdOSDCsEEeC6Yj0PriyzS6kYLUHkqIoMYXGCoyiP5CiSDZrgpqEhgYJy1DLIGGHeMIUmAr4UVxciA7tO6DTxhuhffu2KCrMN6EZJQgbxmuho1QEFAFFQBFwBOFERCK1Ji0vaComMq2xuTDRZC3Q4DeKFtPegExhlRh9hhNIBkwVRgr06EEw9RVcfQBbYdBpE2iEWeRIVvxcmTvhoctQMNoBpwMgMRAtgl3hG6LA73gbww/pks+GIPBzeizEC8HPbBZDujS07evgcb0fnOBRQhM2uyKRFO9BrCGKhlgDEg0NMgaGEYhbUWEBOnRoj006dcJGHdujtLQ4LfTUEIO+dYqAIqAIKAIbAAIpROrqcfppJyJSX4tQgGmMxkNAQ05LyoqKrkFTulFTxu+oQXBeAufeNwSA3gOuqA1BYPqkS400tRZYF4CnYKyCVRUNaXBufkcS4g1xMcBS4TAJ+TsWjaEh3pAuoCSeB5vFIA2fUsYb0TTrwBQvcr83n9k0ybT4kRUTze9Ef8DURde4STIpOGBDNBhioBfB1UTwIGEaWHl9ki7atqICHTt2RIcOHdC2ohz5+XmGGKkGYQN4L3SIioAioAjkPAKGIAw4/SREI3UIsPiR3xAC0SCk6x4Yb0K6q6OtDihpjhkNnEyRIB7DIx4DETuGTNMnV2iJq2w/iwdZ4YFp/sS8R2PUm2YPpNDQwHh/DPEGigLtyj1G934DotGoGHmOLZk0oQvjQTDjICEwhMNWY0ynlpkUzETSVE2U6ooME5AwMJwghIHehhS5i5AECbFY4iOhBksqJOVS0jYhWJDwMBuksCAf5WVlqKqqQvt27VBWVgI/S1grQcj5t04BUAQUAUVgA0CgkSCw5LLfl5IYemPfBfuz7eAopZgz0h3pIaD3gPtDQgnG2EvvBtZTIEEIhtKiR35uPrMEwdVDECtsCicZbQB1BQkhAVLJsIFx/gQikQTqa+pQW1uPpUuXYv78BVi5cqXg3K5de5S3KTPCSVtrodGDQBIhfgZLIFwmA70QxtNgwhamUFIiTs9A3JADJOVv8aqwiJSkZppb6zpb8ppY/0B0BjYnk9ceCoVQXlqG9lXtUFlZiby8PCUIG8BboUNUBBQBRUARgCEIZ55xKmLRWvi8SamB4Iy+8yRIeqMtudzYuImVFP3GG+BjmIBG0pRp5u9IAqSng+0OKWTCkghWFTQZEK5csxcpWxfBtYbmyp8Egat/EoRoNI66uhgWzl+EHyZOEtM9b+48U8AIKRQVFaG4tNimaNJzERDPQ1lpWTqckZLiR+YPPQDSZtpmRPA4pimTyU5IJRpMlcdUCn6PBwFLeHitvA4SAiNKZLXEIIIhZn4E5Dvs3SDHSAElxUWoatcWbdu2RWFBoRIEfesUAUVAEVAENgwESBDOGngqotFaBHywvQOMV8DVPaBxDPoCCNjQg4QJbKhAQhGMvVOgJ94HL3xSXpjFgUgQWL7ZNH1KEw8hCDZDgv0eLLEw5YopOqTnIIVYLCYre2oO6usTWLKkGp998gUikQbU1tYKgSguLkZdXR3qIxHJkOByn9+nIJLfz8/PR/v27VFaVCTEhZ/J5mG2gynclEimRGxoshFiiDF0ESdBSCHA2gZ+XovRF7jS036/B6FAAOFwGOFwEOFwHkIhU5o6Fo+jpqYG0WhMiia1rahE27aVKCkuUYKwYbwWOkpFQBFQBBQBpjmee9YAxGK1CFKkSBJgvQA0dmwBLR0efT5jKGnoSQ6CzHgImnCBVe97bR2FABs9WXIg+gPbAMoZV5/XNjCSFXjQhCACwXSFWZdRQAPLlXhdfRS1tVG88u/XMW3yDAk7xOIN1ksRlM6N3DfuhIsseSzeCT9CeSEhKwXhMCoqy1BcUiBhA+oGjGbA1FUgmUjG44jGIkIQEg0xIQi87rxQEKEAMzcYVrD4+LxSRtn8CSIvL1/IAgtMkSCsXLUKdfUkLT6UlZRIiKGsrFQJgr5yioAioAgoAhsGAiQIF5w3AA0NEclioJs8yB4M0o/BB7+H3oMMgiDG3I9AKIBAKGT6MQQavQgkC5LKyOwF2y5ashykn4MLKzSGILjyJtEIhsLikjcFmYwmgCLE+vp61NVF8eGHn+Dddz9CpCYqv6exDobDRg/g8SAai0lNAgoMafR9thQ0SQIFhikkpORxt26dUVpakJGq6ZHviAgyTuFjRMpP05PAb4X8fhTmhRGU6pFGqCnpjF5P2nvAPgv54TDy8gtEdxFPplBTa7QSJDP5eXloS4JQXq4EYcN4LXSUioAioAgoAtH6Olx80TlIJU03Rxo7iuvC7OTI1MSUB0EWS/J4EWDaoiUIjPFLt0f77xQ1BRJ2CEjIQYoRmYLK1oNgCybZMAVX9RTt5Ylrnm76MDxeZktQEkjdATMVGFqIYOqU6bj22huQiKcky8Cb8kiPg4KCAsQaYpKt4A+GUVdfL6596hd4clf9kXfZZDsApWVF2GarLcWrwJ1MHQcSEtZfaBBywD8MRXAk7MhYmBdCyKZ+plM+vR7ROYSCQcGN1yEEgcf1eFFXF0FNbQ2ikahgUlZWhpISDTHoG6cIKAKKgCKwQSCQkvTGwYMuhwcNyAsHbXtiGrywhBbohvdRQJhieN9kKDDTQdzp4TBSppiBMbSiRTD1Dphs6MojS6MnW32R3ga64UPhsNQGyMsrsMY1H14PjbbYVwktMMWRK/HHHn0CL738L+QF8+FNJVFSWIjyklJUtCkBhYc1q1Yhr6AAkVgci6qrsXj5CkgjJQoMWc9BMguYjpiC3wds1q0rNurYUWo0mIZPzFxICtmIRiJSAIliRb/Xi1DYj8JwHsJ+n/RZEI8E9RMMUfi9JlMjRA0C/xQgFKRXxY9YtEEIwqpVNeJxIJnJz8tXD8IG8V7oIBUBRUARyHkEUohF6nHzjUMATxz54aAI7agxKMjLNx4CxvIZtWdfg1RKXPfUJYTz88XIkxwISaBhl2wGVj0CGigujDWIJ0DqBNiCSn56J0Ih+W5Bfj4Ki4pQUFBkUgDhF5+D18f+CUlpnrRwwSKcdda5WLx4KcLBMLzxOHputik2aluJwoIwOrStxLIlS1BbX4uVNfWIpIDJs2ZjZW0EsXgSkVjUll6OS30Chgaq2ldg2217CdlhLQRXnMlUaSQxoUgyLqJMtmrOJ0EgsQn5BYvGDAxDnoT0iOclT4gTvQwcPzUITMNkyiR/T8+M1kHI+ZdOAVAEFAFFYENAIAXWP7jz9luAlPEg0DtAQ5YXCsMfCojYjwvwZAO7IybFQHLVHA7niwdBtAWynDYhBBIErsqpCWBmAV3s4vJnLQGmCpIg0HuQlyepiYWFxSgsLESYBMHjs3EJxidMdsF7776HG264GUF/kC4JdKqqws7bbIWwz4vKkiIE/F6wsVKsgSv2CGYumI8VkQiqV9UgAR+qV9YgEouhtq5OyiqT8JSXF2Kvvfe0tQ2MFyHd00GKIJniSqz5wNW/hFUkEwM2k8NkNEjzKdElGNLE8EIgaAmCNHRi7YYIWA1SsGFIQwslbQgvho5REVAEFIFcRsBU9GmI1uO+e+9AMhlDiOJEGrsgVfsByVRwJZK5CmYDI4YaaCyDAeMFoLiQWQsmxdEnoQWu/KMxCgwjqI/U2xV5UsIV9CAwtFCQXyAEoaioGHn5+ZIF4PWYHg+mqrEXiYYE7h82HC88/wIKwvmoqqxEm6JiJGMRFAV86NCuEuUlxfAHg4hGGrC4uhrLa2sQTxlS4wsEEY2nsGDxEsxfshgrVtVKaKCsNB8HHrg/yspLxWiblE5XBMlUYCRBoHdAIhNSEMEUTSKBchUlTYaGLf7kM62vjSjSK9+Tnk9JtoJmxUarg1CCkMsvnV67IqAIKAIbAgKWIMTqMPz+e5CIR4zWQBoq+YQgBKhJEMPP+gFJWalT8c/YvM8XSIcJQvl5JvYu/RuABqYdxmKyemaWBEMNXJVLO2RJC6QoMQ+FBQUoKi4WDUI4L1/ICA/AkaVSJqxx621D8cZ/3kBlaRk6ddwInkRChIOkIvkBH0qLiyTzIhZPYNHSZVJwqbKiraQW1kWiWFVfh7nzFuHXGTOwbOUqU0gp6MUxxx6JjTfuKESAK38x+raxlBACWe1DVv+mi2NSMiHEo0Bs6DGwf0ynRlNh0WPbOnP8osuwPSFYzMn2dhD+o5sioAgoAoqAIrCeIcClrRsSK/5FMOLB+xCLRuChq13qB9CLYEINVOrTsEunRFv2mNUH6X6np6GktBQFRYUiNqRan4aQjZQo+GMsPxKNSlMj6dFgMwGCVodAkkDxHj0RJAjUPPAc3DeRMAb62utvwOjRo1FWWIIe3TZHWUmxeD1qalZh1fJqqZZYXFSIumhUwhU+fwB+eFFcUIBwntFI1NbHMPb78Zg+ex4SqRRCIR+OO6Eftthic9vG2ivZCE5IaTQGXhkLiQ7HT00FMaCGgftKESh/wHaqNGRAmlWZfk5CDExhJfeZwVxDDOvZ66DDUQQUAUVAEXAIOIIg63RDEB64D7FYBEiZxkdcJdNzEAybMsIMKdCDwD/UFMQZy6dYkQWICgtRWlaKosIShPPzhGAIQYg3SMyf9QxYyEiKErGhkYQnzHFJCOh5CAbDEmJg0STpn8AhSmvlFG6+5VZ8/sUotC1tg3blbbBk8VIZa2FRIfIL87Bk8WL8bffd8cOPP6JD+w6YPnU6VlavQFVFG7QpK0N5WSkq27XFipoIXnr9Dayqj6KwqAAXXHAOKtpWysrflUs2BIGdIIwQ0XSOjEq4RMowU4PBglEccygonhTXutoQKNKjpBAw+hRcNUqTSmlCDkoQ9E1UBBQBRUARWE8RaIEgpD0IKXi8TAWkG57FkCi8M673RDwhhp9Fiii+4yYVCvMLUFJagpLScuQXsA6AD3Fpo2zcFNJSWVbeXE2bJoumlwErMbIoEyspUhzJYkkhMbI0qCQg1DI88MCD+OCtt9F9s80RDoWlJHJtJCK6g06dN0aXLl1x0IEH4ptx32LWrJmYN3MmqyijMD+MPJ8PRQWFqGrfFnWROB5/8UVMnTkHnbt2wcUXnw+P32geJGQQMP0h0o2YqIGwraUNQWAZZrZ09spYmYlBL4q0qZbmUknTkpqdI901UHPBstIiZuTFK0FYT18KHZYioAgoAoqAUc8RB+dBqMfIB4fJqlxaGUgigtcIFoOmKyONG8MF/OMIAo0gjSVz+0vKy1BaUi6r+kDQzwSEjDCGOZeo+D0kCqYlMv9N8sFuj9QzmN4OAbBbs7RMlhLISXz11dcYfve92HevfUTUWML6B+2qUFRejkg0gsIC8zuWQl65YgWQSGLlsuVYsWwJllcvgY9BD7ZzTiTx/qefYfaCBei+9dY4pu8xUhHSjUWuM+0REFMuHhATJokYHUUinvY4MPwS8Jk0UNmXBEG8DMyAMORIGldJDwoTalCCoO+fIqAIKAKKwHqMgJXXWyFCQ6weIx8aJg2R/NKUke51NihiuWTbwhgwjZMa4qIpYHdFwzNSEhoopgehpAylpaUIhUMmCN9s40pbOIL1DtAYG8Gf6edgsgiMi58GlyWeWexo8q9T8e7bb6NXr+3QoUMH5IcK4A0EUM8wRqwBlZVtUZBXIN0XOa6a2lr4JWzAhMyE/H7RwoWI1tXh++/H45cpU7HjLjtju112Ngbbdmd0FRKlM6UZgvxNDQLDDCQJ9CKY4ksB8SAw9ZI6AxMWMQRBikMlE6J9cKJHyQSxYQYNMazHr4YOTRFQBBSB3EbAEQTTsKghGsEjDw2X6oEBGnEfDZsHQbrfpf+AMZQUHZIkRKMNRtlvawewfgF1COXlbVBcXIK8/DzpqGjWy2YlLup+ZyCtaM9VV5RQg7jhTTMk01pBCjQzHQIrVqzEnLnzUVPXIGLGyvI2SHl9iDbEJQuirKxcajOwoiI9EOzdQC8HDXcg4EWCFRFTHgS8wPPPPYOpU6aiz5FHoFPXLhIGIUFwTaSklTPHYUdPw8+wCrMxqL1grQUaf2kCJfqJsIgcuTHLwWQ7mIwH4zUxHhhqOExmhEc1CLn98unVKwKKgCKwPiNgCQID9RQpRqNCEFjamDUQSA640mfhH4/PgxRX9CkWVIqZUsTSNZGpf/QfeIQQ0PVPQ83Wy/y3ywYwqjxDMozRl6ICNlPChC64r0sxNCSCe6XE8PqSKURjCfwyeQa8/rAUVMrPL5QaDDw/v0cPBosMMJuhTZs2YuyXL18u4QkzDkh55hXLq/HeW2+ivq4WBxx0EAJ5YTBxkeOTctJswGRDAlL4SS67kSBEIlHBSNI1ST4osmSraksQOB5HECQlVK6dZMsWkHLER+sgrM8vh45NEVAEFIFcRmB1gjBSCEIEAem66IXXk5Icf6n34zExfHoP3B/jQTBGnz0QSAzKy4wGgWmLNNxGtZ8ZajBNkWz+n00vbIz7N67cbVEihiKYTeDxY8XKOuno6A+EUFpcLoZ91qxZqFlVI4WaykpKkYgzlRLiyejQob2QGf6OOgP2VZg7ezam/PoL2rWrRJuKCqnVwONwnCYUYDpMsiGVCA85fl639GcwIQaGNNjQyegn2Po6JOEYUXPYLA8KK/k9eli4iS6TYkZLJDTEkMvvnl67IqAIKALrNQIZGgRPUkIMIx4chngsanoVcNXtTSHo8yJlw/EU69GDQDU/RXsmFs+iSj7JXCBBqKiosCv8fFNDgGl/liA440htgkQsxEth3PlcgdMgm58bYxNW0ifll1lGoa6uAamUiffPmD5DtAY8RlVVB1S0aYNEQ4NUbqyrq0MsFsWmm26KTp06imeB3SFnzZyJ5dXVKC8vNmOT3zZmTBhPRsCEA2wYhDtJymbUlI3msaS3hM3gCIpI0ZsmCEZ/YNJB09dPoiOZDjbgoh6E9frt0MEpAoqAIpDDCDQXKUbw0PB7kWgwBIHCQfYc4M/MRqApFXGiGEiTyUCCwLUxV9zUH5AgVFZWiveATZe4OQNpFs4urcF4EFjtsLFtMgmJccWbcsZSjtCmG/J77M/gRSSSRF2tyaIwokDWcIhJgSaenyERZ8g56pKSYlRUVpisg6AX06dNRV1dDfIL8m1LaRmlZCqY2g/MqDAGP7O2AT0G0Zg5bzQakTRLblIPga2trfGXMZEc8G8hCqZcs1wRCYcShBx+5/TSFQFFQBHYIBBYvQ7Cg/ffLa5zkoIA0/1Yblm6NJo6BpLeyBi8VBTkSt7I/B1BYPYC4//UItDIOo+BqYXQGGZgiEF+I259hjOM6106Ropb35YndgUTjGRRyEi8wY9IpAGJOMs482/jyqeBLi4qRjgUlCwGpiLm5xeYLpEMeeTnoT5SixnTp0pra9ZdcKt+t9rnGJlpwLCBhDqcWhIeqaJIcSK9EiQJJCFSUVEKJpljpemP6BCMWLHx2E6gqWmOG8TroYNUBBQBRSB3EWiBIAy7VwyhXzIYTEEj9mXIJAhM9WN8nUaYBlKMungQrAahvAwFBYWmsJL0VDDK/kyCIFUGTZpCRoiBK3bjUXCufbeCN/UI6Y3wIpkMYumSaiEV0q8hmZKwAn8uLCwQ74Uc1+OR2gpSdInej0QCwaAPC+bPkxABszMaCYIt6MTrsQWQXF0DVzCJRMQQBGoRIhJmIT9iKCYsZMPUOKDnwOkQWDDJeBGsDsHkd5pwioYYcvfV0ytXBBQBRWD9RqBpLwauqi++4Hxp+0wDRh0AV/r8mSv9JJJmFU0FfyIhJYclaMDsABZKys+X5kt06fNvpixKGMHqD4yJzNhsRoOcy0tBoFP62zRAKdbkvAlu9e1DMhHAwoVLUVdfJ6WZN9+sGzbqsJG48UkGmOHAEs70KNDTwUyGFStXCnHgn7q6VcjPN2mJkqRgwxQ06tJEicJDEVfaXEtJcGBPCONBoeeAQkV6EegGcR4E5/mQgIWEGZpmM7grZ0EmObQShPX79dDRKQKKgCKQ2whYt38qhUh9HU45+QTU19VI6WAx/lT1e6hBMO5y6acgqY2mt4Lk+DNuH/BJV8ZQKCgGmi53U52wEd2EDTE40aExpCaUYKormpW1/GyNbNrND1O+2ByCPRvysXDBQunt0H2LLdGzRw85Dlfz/A7bSHNFv2xZNWpra4WwsJASaQ69B0xlNDkHcibbhlmSHdPZDGn9gSRxmlHzmpnNQBEkvQgAilulAAAgAElEQVTcTLXJjJCEPaq0d7ZCRXoRhHzYGgimQ2TT3I7cfg716hUBRUARUATWMwQcQQAi9bU4+aT+qKutkfCCMX4++dl1ZmTuP1fGFAW69sVccXPFTnKQlxeWksv8mcaaGgYXWkhKn4IMHQJd8h4T5zdCRmucbeyfHgHntneGnKtvn5clmUNYuNAQhG5du2KLzTezhY1M1kQwaOoSsM0zt5KSEhFN/vzzTygvL0dlZYUdi211HaeewPo47BCdeDJ9wzzOi8AaEFFE6iMSTmBYgSmRzHpw5IYsIx1mYMEkeidsTwp3PCUI69mroMNRBBQBRUARaI6ACTWQIJx4wnEi4JOcAW8AO+20E+YvmC+1BuISTzd5/a5jIQ00t6p27STEwNV6RUUl2rdvh4UL5kn9BMl/SKWw5ZZb4pdfJ4urnmQgEAhJBcL6SL0Y1u7duwtZmDx5si1xbL7HrIJe2/TCxB8mmqJH3oAIIV9//XW0b98eO+6wAzpv0lnG4WNGhQ2PiAzS6xXvQV5BPlatqsGYL8eIQT/wgANMGWQ7NgozjWzSdFokWTAaDKYumuwGbpLmaYWKzObgeEhaWHmS1RtFW+D2tVkMTofgdBiOEClB0DdREVAEFAFFYINAIFJXgxOP749IpC5dv+CyK67CmNFjMHHieDTEExhy7XUIhfJQWlaGSKReehMsXDgfUyb/it59jsCKFcswe9YcMZyjvxiF6urF6NSpE/x+D0457Rz887nHUVNTj+nTp2P3PfbA5MlTsGTJElw16Bp8//03ssreplcvPPLISCxbtkR0EMxEOP+Ci/DgAw+grq5eDHLvPn3w4gv/xPvvvIOjjjwS2267LVixiW2X/RLj9yDJIk8UD/p80nJ63LhvMHvObGy++RbYe5+9pbeC0QoYkmMIQ0ZhaNtQypAGk6rI8Ukmh/RlYE8G2xbb5zNloiU8YqlGyhyzOUFQD8IG8TroIBUBRUARUAQcApG6Opxw/HFizG+/406pVtgQi2LcuHHYtFs3PPvss+jf/3jceOON6Nv3WPz88yTMmDETV155BUpLyzBz5hykUgls3GkTrFyxUrIannryUVx22SB88fko7LX3Pvjii1Ho2bMHRo4cgSOPPArDht0nrv/rrrsR48d/L4aYBGHkiBFS6Gi//fcXw8sGTRMmfI+GeBxzZs/G0qVLxGtw8QUXSN2FQ3v3QedOG4t2QpoukyCkEiIurF6+Aj//+guWL1+ByVOn4qyzzkG3zTZDRIo9kSQwG4OZFgnjPuAm5aCNMFK8BOJpEBohQk1mMDDMwLoQon2wwkanpeB3RaQopIJ6DZPJ4LwUcgrVIOjLpwgoAoqAIrAhIFBfX4cTjuuLaLQelRWVeOChhzFzxkx032obDL//Hrz73nu49bahWLFiBTbptAlWrFwhRjwUDIjx3Xa77SXMUFdbi0mTJokn4u23/4MbbrwVP/wwEb167YCffhyPzl264OGHRuCggw7B8OHDRNx4yy23YPHiJbaxkQdff/01JkwYj6222loqM+69z36Y9NMkzJw5EyuWL8ecubOx77774rILL8KCBfNQ1a4tumyyCbp26oJiZjGEAqipqcHyFSuwYPFCrGJnR3+AwQKcfMppaFvVDsuWLpMVf15+WIgC6zswFdKpJkzfCOMRoMjQJDWwWJSpJGl6UjSYcIwtsJTWINgb7mogiGDRChXTHEQJwobwWugYFQFFQBFQBOrra3F8v2OFIGy++eYYOPBsLF1WLa2bly5divvuuxeDB1+DJ554Ar1798a0adNEm9Cv33HSXbFjx44oLCrGIyMeQr/+x+OVl1/CuHFj0bvPYXLMvfc9ECNHPISamlUSKjjuuP54+OERUrvgiiuuwLRp06V6IzemUr755ptScGn//fdH27ZtRSHwn9dek89qamrRvfuWuOX6G1BQkCddpfODAZQUl6CoIF+OI9UOEwnEEnHU1tVLwaRYPIXiklKcOXCgGGyppZBKobJdWzH01ClIt8oomzHFTQEmERwavQIJAr0qHIOQClZzREq6SEqjKVubgWSCAkYem54E09nRhDJEsMiMBiUI+tIpAoqAIqAIbAgIkCD073s0gkE/7r1vGP5x8004tm9/fP7FKOy22+5SYbC4qAiPPPoo+hzaB7/+Mhnz5s3FYYcdikQihY06bYL2HTri1X+9hP0OOAhv/OdVfP75KHTtsimuuPpqTJs6FQ8++KCkCtLonnHmQNx3733Ydtte2HLL7pIeWWDLH3fs2EGISPcePbDzzjvjxRdexJ577inFl9555x0xsMuWLMUzTz6JHbffToz1soULkBcKScVEVoLkkj+WaEB9LIpwXgHC4Xysqougc5euOKRPH3H/U+S4ZMlSCVO0qWgjVRnpRWBIwLS0joKelfraOqkwCSQQj9XL5/QkiFCRmQxgSWqfeCkogmzMzDBCS+LjqipKO2h6JJQgbAivhY5REVAEFAFFgASh3zFHoaEhgnbt2qFLly649LKrMOSaQfj1119RWlKGCy+6EMFQflrQx5LESxYvwtCht+H440/E1ltvLWr+D9//EHvt/Xd89+13OOrYY/HtuHEIhEISXigpLsYHH3wgq/X58xfgxBNPxDfffCupkVyFd+y4kRz/888/xyGHHCKeBHoweK5DevdG9bJl8vPTTz+NN159DVv17I4tttgMM6ZMRk11NUJ+v9RloLs/jhRq6uuwSeeuaFNRiTFffYNzzz0XsURCSEFVh/ZYtmwZqqqqRHxYVFSMlStXCTFgUSV6ENizQbInPB4sW7IEc2ZNF48IMzgYlnC6RqNDcCWjvaI9sE6EtFCRpRyMN0EJgr5xioAioAgoAhsIAoYgHIlIhN0R2S0xKSWTmbpoRHambwKNp0t1ZMXBvPw8+ZxiQ6liyCJJ/iBCoZC42H2+IGINUURiMRQWFIqjngSAwsZ27arEM0G3Pjd6F2jYXUogSzVzZU6DSr0DjTX3r2pfhTGjR+PTjz5CRZtydOvWDW1KizD9l5+xorra1GDwehBLJZFXUIQuXbthwsQf8fe998Ffdt0VE378AT179pR0SZ6TOgdqEopLilFXF5Gfy9uUSxVGXo+rllhaXCLVGmfPnoYpU36VLA5uJBJSpEkaPNGDwJLQJpRgKiqaQlO8LoYYSC7Ug7CBvBg6TEVAEVAEch0ButL7HnO4VFJkeiFJAA2jUfg3VlI0jZcaGw/RoNOIkhDQeBbksaJivpQsloIGKR8l+9T/m46GHi86tN8Yefn5iEZjcg56BEz55rgQEhINkhQWPOLnNLAkCPx+OBSSKo0L5i/ALz//DL8HYEgi4PGgIC+E+fPmYt6cOaYqYsCP3ff8O2bNmYNff52K8y64QISFLPjEeg1FRYVCbAryC7B48WIJK7Srao9qaQddjvnz5mP5iuVy3rKyUpSVss9EPirbtMHsOTPxzTdjjZ5AtAUJ0SKkKzBKF0fbyTHFsIIJLTCEwX2VIOT6G6fXrwgoAorABoKAEISjjpDCRaaAkCkjbIojGSU/DRsLDkq6nvwvKWEBFiMK2cZI0pMhFG4sMsTEQzYxgqkzQMPfrdsW0shp5cqVqK+rT7vxSRiYBVFUXCTdFkkEWLCI32dzKI6RRITphewmOW3yFFSUl6OkpAhLFy9Gu8o2QjYmjp8oq/SevXqhqKwUM2bMEK3BYUccIZkWTJ0MBINi7PPy8qU0M0MNSxYvQXFJCQoLi2Q/VmtcumSp9F6gWJOkgYZ+o406yjlHffYJllezcZRX9AvcXLlopkN6UqZ5E8FMWfw0xLCBvBA6TEVAEVAEFAGDANsnfzturMTOTRMF2zWBvRhs0R8xdE0AM90PpSSy68zo94ub3XRqMlUI6U1ICUGgV4FdFoP2Z9YLSDYxsPQi0MiTnPDYrEjA/+jRIIFwmQ4kDXWrahAM+JFfUICV1dXSZIkaiLr6eglFFJYUI55MSFlkruYLCgvF8Lt20q57JLtRStpiLGbKS0vLZ78pihSNineDY+a4+DvqE4KhIKqXLjHeAFtGWlIY7TU7T4vASG+CxCL4t/EsqAdB3zxFQBFQBBSBDQSBzO6OGV2WWjt610yBLgbXpcn9Lk0rbIsk8f9LwCHd8dH9LKeTobjmRhkDsN9z+6T/luIF7KVgwxquE2OTHW1biMwOUo7tNL9cd55MNuT2aTKGpnRpNajWAqMShNY+WLqfIqAIKAKKwJ+MQKZV/A0EIT36tRnN33PcZvCsdpoMy93kNM13/CPHoAThT35o9fSKgCKgCCgCGx4Ca1uG/wFXsybbvJr9z1zy/wHnbX6I38iH1IPwP7gXekhFQBFQBBSBDQGB5ob5f2CoWzLOf6CDYJ1RXgdnhRKEdUZXv6AIKAKKgCKgCKwDAutglNfhqL9v1zVpGzKOqgTh90Gs31YEFAFFQBFQBNaOwPpIEDjiLA4TJQj6YCsCioAioAgoAorAaggoQdCHQhFQBBQBRUARUASUIOgzoAgoAoqAIqAIKALZEVAPQnaMdA9FQBFQBBQBRSDnEFCCkHO3XC9YEVAEFAFFQBHIjoAShOwY6R6KgCKgCCgCikDOIaAEIeduuV6wIqAIKAKKgCKQHQElCNkx0j0UAUVAEVAEFIGcQ0AJQs7dcr1gRUARUAQUAUUgOwJKELJjpHsoAoqAIqAIKAI5h4AShJy75XrBioAioAgoAopAdgSUIGTHSPdQBBQBRUARUARyDgElCDl3y/WCFQFFQBFQBBSB7AgoQciOke6hCCgCioAioAjkHAJKEHLulusFKwKKgCKgCCgC2RFQgpAdI91DEVAEFAFFQBHIOQSUIOTcLdcLVgQUAUVAEVAEsiOgBCE7RrqHIqAIKAKKgCKQcwgoQci5W64XrAgoAoqAIqAIZEdACUJ2jHQPRUARUAQUAUUg5xBQgpBzt1wvWBFQBBQBRUARyI6AEoTsGOkeioAioAgoAopAziGgBCHnbrlesCKgCCgCioAikB0BJQjZMdI9FAFFQBFQBBSBnENACULO3XK9YEVAEVAEFAFFIDsCShCyY6R7KAKKgCKgCCgCOYeAEoScu+V6wYqAIqAIKAKKQHYElCBkx0j3UAQUAUVAEVAEcg4BJQg5d8v1ghUBRUARUAQUgewIKEHIjpHuoQgoAoqAIqAI5BwCShBy7pbrBSsCioAioAgoAtkRUIKQHSPdQxFQBBQBRUARyDkElCDk3C3XC1YEFAFFQBFQBLIjoAQhO0a6hyKgCCgCioAikHMIKEHIuVuuF6wIKAKKgCKgCGRHQAlCdox0D0VAEVAEFAFFIOcQUIKQc7dcL1gRUAQUAUVAEciOgBKE7BjpHoqAIqAIKAKKQM4hoAQh5265XrAioAgoAoqAIpAdASUI2THSPRQBRUARUAQUgZxDQAlCzt1yvWBFQBFQBBQBRSA7AkoQsmOkeygCioAioAgoAjmHgBKEnLvlesGKgCKgCCgCikB2BJQgZMdI91AEFAFFQBFQBHIOASUIOXfL9YIVAUVAEVAEFIHsCChByI6R7qEIKAKKgCKgCOQcAkoQcu6W6wUrAoqAIqAIKALZEVCCkB0j3UMRUAQUAUVAEcg5BJQg5Nwt1wtWBBQBRUARUASyI6AEITtGuocioAgoAoqAIpBzCChByLlbrhesCCgCioAioAhkR0AJQnaMdA9FQBFQBBQBRSDnEFCCkHO3XC9YEVAEFAFFQBHIjoAShOwY6R6KgCKgCCgCikDOIaAEIeduuV6wIqAIKAKKgCKQHQElCNkx0j0UAUVAEVAEFIGcQ0AJQs7dcr1gRUARUAQUAUUgOwJKELJjpHsoAoqAIqAIKAI5h4AShJy75XrBioAioAgoAopAdgSUIGTHSPdQBBQBRUARUARyDgElCDl3y/WCFQFFQBFQBBSB7AgoQciOke6hCCgCioAioAjkHAJKEHLulusFKwKKgCKgCCgC2RFQgpAdI91DEVAEFAFFQBHIOQSUIOTcLdcLVgQUAUVAEVAEsiOgBCE7RrqHIqAIKAKKgCKQcwgoQci5W64XrAgoAoqAIqAIZEdACUJ2jHQPRUARUAQUAUUg5xBQgpBzt1wvWBFQBBQBRUARyI6AEoTsGOkeioAioAgoAopAziGgBCHnbrlesCKgCCgCioAikB0BJQjZMdI9FAFFQBFQBBSBnENACcL6dMtTGYPx/M6BuWO15jiZ53Wnbc33fucQV/v6+jKO33pdyWZf9P7WA+n31gkB99xkPvN/xvO7ToPO0Z1bescJhd6v9fKBUILwZ94WvizuxbAvTjwehz/g/zNHtf6ce11Izh85andf1uX83Lf55KcE4Y+8K3/ssZq/e/8/GKjMa1oTWs2f0f8frvuPfTL0aJnr1FQqtSZOp0D9jxEg8r9M+hnjvhmHoqIiFBUVIz8/DztsvwMCgQCgBuZ/fAdaOHzGJBuLxlBfH0FxcRE83jXMpJkkojlJ+L+4f60xCv/3KP6fnjGVTIHvkoe3yAMkE8aV4/F45I8j4R7+YG9jtD6KVatWIZFMIJFIIBQKo6AgH6FQqMl3/k8v5PecLAXEYjH88vMvqGrfHm3alMPrW8MD+Gc+MykgHk8glUzKveD98fl8a36/fg8m+t3fjYB6EH43hM0OkPHyceJazbBkGBQaoHvvvRdDhw6F3+9HZUUlDjzwQFx73XVilNxkxuM032Tia8k1l4JMfAsWLJBJ08ycZnWbMv9n/rabmVj5knrhJlByRv4uLy8fVVXt4PP7/miUVjsez7lq5Sp8//14LFmyGF6PV7Dr1m0z9OjR/fdNILzmFI1ISgxCXW2d4EPMu3TtIucSTJLA0mVL8d2332Ha9OkYN24stu21LU466SQUlRQ1eggs9DzOv/71LyERG2+0Ebr36I7KyrbIy8sTPFt0m/5eF6sjIZz73c/WMLbqJq2LV4QHzBivw7C54W3xvNmWHc08Zy0+yy0d2L5ffCdo2N2zOWvGLDz62KOorl4uv//LLrvg0MMOQ1lZaeNRMjjezBkzMez+YZg6dSr8gQAKCwtx+umnYdddd4XXa+/dWgxpIp4Qg+zeFXcSYuN+Jz/zPzsPyN/uvW12bUkazIzNHAfwej1wXkW/PwC/z7fac5XiVz0pTPpxEi677DKE8/Kw19//jv0P2B+bbbZZI1FIAZFIBHPmzEEymYLf7xMy5daIbl5oHL8jGGbc/H1eOA8VlRWGSK2JNK/hvvF6li+vxtNPPY2ZM2cKNnz3tt5maxx99NEoKCjYMMlZq168DXMnJQh/9H2zE2MylRRDJJOqnWWNryZlDDGAxYsX4/zzzsc7770j/y4uKsb111+Pk04+CcFAcA3zrjHywg28HoTDYTF0mQZ/zOjRuPHGG7Fs2bL0ZOfOmTmBNX4nhSRJgV11yQQJ4KCDDsKFF16EouLCPxqlFo83d85cXHzxxfjmm29QX18v13XppZfivPPPk1XGb96SACfgXyf/ildeeRVjx34tBIGT5x133IG27drJtXOf0V+MxqCrB+G7779DbW0tem2zLUaOHIGdd9nZkCvi5PXIvl99+RVOPfVULFy4EMXFxejUaRNcdNGFOPTQQxEIBtY83Ezj2dxQZnP5ijGwf5xNaa2nwo7fPTutwjODWGauxlv13VbsJMbJktTWxKFp0GpqavDTTz9h0qRJ2H///VFVVYUvv/xSjMyChQvkrMcecyzuvONObNxpY/l32tZbfMd/Nx4Dzhgg3jteV1FhER555BEcc8wxxvDZ10x2t9+hIaZ95/s8YfxEPP7444hFo/JvMfDNQlM8jnvffF4fYg0x8O/05ji+JQM8No+TEA+ImSeCoWD62EcedST23Xffpp4BO876ujrcfffduPnmWxCNRdBt02645+57cHDvg80cYLf58+Zj0FWD8NOkn+Q3TchQhtclfT32+rkfiVf3Hj0w+Oqr5d1pzf3KfATq6+rx8ssv46KLLkL18ur0R+3atcPgq6/BqaeeIkRtXY/bisdMd/mNCChB+I3AZfva0iVLcf/992PWrFmGodvJgysPzjLxeANWrarBxx99hLpInRyOk9Ree+0loQay+8wX2wWCuKLgpNPQ0ICysjKcfvoAbL3NVunhcL+PPvwIp5xyMubMnZNtmGv8nMyexu/OO+9EaeYq7DcfMfsXp06ZitNOOw1jxnyJhriZTEl0rrjySsHjt25u5cbV4nnnnYd333tX7kebNm0wbNgwMSwkI5zo582dhyuuuAIvvvii4EwCduWVV8rvOFk7crZy1SpcO2QIHnroIVmFJVIJ7LH7HnjooYfRvceWLa4U3WotkUwap07KEDOvxwOvzyerKa9vzQyBz45babpVH4mTkKdmX4s3xBFPJMyvadTsKtbv86+TR4jGKhGPN64y7YPIZ5NhsOarSBoRecbFxLXsRqDhEy+E15P2FK1pZd38ns+ZPUcM4SuvvCKesgsvuFBI5Y8//SjGfc7cuXLmE44/Af/4xz+EuJFsNl/p/zzpZ1x8ySX4fvx38Hl8KC4pxu1Db8chvQ8xBtgO3eFMrxDfT3e977//Po4//nisXLkS8UQcAX8A5eVtkEwm5L3lAiFSHxEyw38T94LCAsHMLRpqa2pRV1cvpIPPH8dqyD4JaAKRaAQ1q2pJPwSvO4begQsvurCJR4DPg8frxZdjxmDgwIH44Ycf5HwnnHACht42FOUV5fIeuWuaOXMW+vXti6/GfpW+p+YRMd6ObNuOO+yIp556Cj169FgnQ05vy7vvvIsLL7wQ02dMN+TEY4gLsapqW4Xrb7hexk2cdFs/EFCC8D+6DwvmL5CV5DfffiMvHycWThKGKFg3pGXsdHuLS91OmnT/JRJxmSz4exqUVMq4AjkBy+SbSmHjjTfGiIdHiCvRTVycv0d99hnOOecczJ41G3X19WJUkqmEHC8cChvvBI1GKiVEIxqNihuTEwTHGA7nIT8vD8f2PRa33HKLTJ6t2dIu1Gyr4BYOxrHMmjkLp516Gj4b9ZmEAjjRXXftdbjyyqsQDK1lRd6qwTH2Gcdjjz2GIUOGYHn1cvnWfvvvJ0Sua5eu8Pg8YtxeffU1DBx4JpYvXy6T1992/xseHkHD3z2NPUnY2WefjSlTpsjvSNY4cR58sF2x2bCO3G+7gPv2m+8wevQXgrnEzS1rZDipT+8+aFfVbq1uW7rRP/jwAyxbukzuXzAYxDbbbIO//e1vTYwGsRz//XiM+nwU6uoM+XTPYK9teuFve/4N4bxwdtRSxsv1+n9ex6qaGnkm+fxx7F037YqDDjwIhc28S9XLluPNN9/A0qVL06tnMf7N3PX8nTOKbdu2FfzbtmuL/PwC+ANrIIMpyDNNQvDKa6/I87vtNtti2PDh8Hm9OLZvX8yZO1uu64T+J2DItdfigQeGCxbizvZ6jXFOplBdXY1fp0xOewBo4DfffHNUVFSktQuOtBC7o44+CmeccYYcg79/7733hCCsWLFC3q8999wTN9xwg3lnSRCSSXz44Ye46667wJVzx44dxQBuuummci/4XL300kt4+OGHxbPQaeNOuOvOu+Sdjsaiss8HH36IO+68XYgGSSCPdc6556Q9hk5rQaz5nnIuiMQi2Kzb5nj66aew9dZb4/XXX5dz9+rVSwjI/PkLZPEwYcIECZHwnSCBIskRQsz5IRiUecB5RvgM8XNi95dd/iKelp5b9cz+/Ng9+Mx8Pupz8UZOmDjekDV40jjxXMSrTUUb3HLzLejbty8Kiwob34U/UzPR6qv8/3NHJQj/g/vKF4CuPBqLiRMnymTA2N1hhx0mzFsmKuoK1tGQcsX03HPPYe68ubIq6NChIx4ZObIZQUiB5GTs12Px9dixGD58GFasXCHn7N+vPw46+CAZCw0wY5qTJv2E++67DwsXLZQJYpedd8F5552PvLywTGY9e/ZsdVYFjStXKplisNbCS8xmz5ojXotPPvlYMONke/1110uYoVUGrYWTid5g/gKZ4IjBlClTMWTINeJaJvkqLCjEJZdeij59essEysmM9+7MgWc2Mf5XXXUVjjjiCMGIoRuGgt57/z0hFFwV0gvB+G9+Xr6MvbS0DJWVFU0EWM889QwuvexSLKte1kQLwu/QU3LO2ecglBdaI2RjvxqLU087FZN+niT70KgNGjQIV199dWNIg+GUVFJCKWeeeQZWrlrZ5Hj77L2vGM1Nu3Uzor61bPQePPv0M7jk0kvkGTLsyPx1wAEH4oknHhejnrnNnD4Txxx7DL797tvG/ddyHj4rFOi2a1eFHXbYXjQ4Bx10sIjsWno/GmINePPNN3HmmWcKCeEzcsYZZ2K//fbFueeci3kL5hmCcPwJuPKKK3HueecKUVptk/i+JQxIyfuU9s40W0n7fH5cfNHFuOWWm827kEKaIJBE8hr6HdcPI0eOFI+TId/AC/98AZdecgkWL1ksxpqEoNtm3eT7NMwjRozAxZdcLD9vsfmWcl2bdusqQyX2/3ntNRx33HFGg+D3y3vKsIgImAFEI1G89tp/8Nyzz+Krr7/GosULUVJcIkb2jIFn4OuvvsaAAQPked1n730w4IwzsP1222H8hAlYsWI56GX65ZdfcPc9d4v2hhtJ37HHHiteTN42ejEeffRRfP755zKOXf+6q5DlrbZu9Fq2+AhZo85zvPPOO+KF43PrPDIVbSrQu3dvjB07Vrw/Dn+Gi+hl4DxQ2bbSeOIYcWltGK21E47u1yoElCC0CqZ12Ilat2RSYtwHH3QwJvwwQV6KslKzwtx3v33TrjX3srT26JwQTzjhRHz22WfiURAPwogROOCAA1ZbeXJ18fbbb+PEE0+UeF8oGBIjdMkll5hVkBUYMY5Ot97UaVPlZTzm6GNw3XXX4ZNPPsXiRYsa46sySDPTO8PiQiduJXzAAftjl13+IuGAdRIwWcMze/ZsnHLKqfj444+MN1M1e9cAACAASURBVMPvx0033iQTRl5+XmthSu/H8VHVPXjwYPDYJARcnfFnNyFycmcMlFiKyz+ZlJXV5MmTzUqfIQCvV1aWXOURI3pcqGfgftyfn3fo0EH24c8Unx5yyCG46uqrZMJ2hu6F518QY0vNgludOl3KDjvsgHvuuRe77b7rGq9z3NfjcNrpp2HiDxNlH97Ta665BiQv6dRYCYWn8O9//1tIjnhKrLeI18ox/uOWf+DU009ds67DkoC58+ZhwOmnCxFy3iHnHu99SG+MGDESHTq2bzJeeoH69e2Hr77+qomokwaAYRi3epRbbsWw6Z+9HpSXlePkk04Ww8mVb3OSwHEsWbIEF110MV5++SUhdD17boVjjj4awx8YjkWLF8l4TjzhRAkLnX3W2Rg7bqwZY4bew91rY4wTsmIWzYDXePecled94j3lM0gPgWhLUsC7774r7w2fI+6zSadNhNxwpe88CNRJjBkzRp658rI24PtB/PnM8BTfffctRo8ZLUMrKSpB7z690aa8jYyBY/r555/x4UcfyvlIvO+56x6cdfZZMgY+Yy+99DJuuOF6eXe5D58BEiPqakgi+FzQY0YPBT00DKdxgeDwNtfxnngUiFsoGMagQVcZoluQL8esrauTOeSt/76FWEMUO++0M5544gn06Nljze+j1a2QnPM5vP32O/DTpB/T5y0tKcUlF18iZIfzz7XXXSuhEd6DeDIOfk7CfcH5F2DL7t1NeHEdF1PrPFnoF1pEQAnC/+DBSCZSWLRooXgQxo83LjW67Sj622ijjWQCIRv3MKyQaXGzjGXVqpV44403sax6qaxaaNS4aqFQq4lBTkI8BCQIA04fgIWLFyIvlIfrrr9OJtZAwJ92SVOUd/LJJ2PK1Cky0fU/rr/EMi+//HJZaZhUiMYt7Xa1YRIxGKmUTEi33norTj/99N9kzHkGxpc5lo8//jhNELgaOv/883/TMTmuHyb8IKGeGbNmrNOddqJOkxlnZieuzN0mmQ8ZAtTmBz/qyKPEFVtWXpb+6PlnnxfDt2TxEsGax3NxXxr7c889F9deey1KSktaHOs3474RfMdPGC+f0xNE78EVV1zZGIKxBIHZFSQIK5avMK5+p7oDBI/hw4djo403Ws31705MI/bSiy/hggsuEINMFCQWbrEg+WXWQFX7qiZjFYLQr5+sXt310Wgyfk+Ph6wEM/Q4FIJGY7Em839paam483ltq2FhPSSffvqZhIG4QqX7n94uEltHEGgob7rpJixYsFCU8+Y186RDOzNmzJDQElfQXq8P4VAI519wvqyQncDU7c8QX9euXbDFFlukid0nn3yCs88+BytXrUh7g0RD4vUJeXebCwkST2YQkFzyeAyJFBQWIhgMyJiIEfUozFIQjElUGBoUMmGyCEiWTzzpRBnf8mXLcfqA08XrYOYSD7pv2R0jHxmJv/zlL6LRuOyyyzFj5gwUFRZi4JkDcd0N16PQxvd5TGL33LPP4eJLLxGMOEfcfc89ks0hXgoPsHL5Shx/wvFCiBriDdh5p13EcyQaBAE1UwFqrzoFzJ8/X+amRx59FPPmzU0TQ4oQafgpPGZIjeEThmtIvr4f/33aw0Cysttuu4pmaO+990FJaevCnOv0kuvOWRFQgpAVonXfIZVIiVE+5OBDRA3PCZHpWB3adxB3qttEc+BIQpbTcE7l5DJr1kxx+3FFxhXWyJGPYP/992sar7OronfefkcmEcaRmcp16imnoH//49OCP55/3NhxuG3obZg3f56ssEkQzj7nbNEwME7pJoFs3g7qGu655x5xaZIMceLgCpyTIidAivBk4mRkpaX0qBQk/WrAgDMwZsxoMS6cNK8dcq0YTiMihHVFJlYXVFklPFdRNJxccXHMEydMlNDAtOnTZOIlZnRnMw2REzUH5PQf63qn3cTtvArTpk1DTU2t6D36HtsXDzzwgMRV3fbP5/6Z9iCIQbCTv8O4S+euuOP223HY4Ye1KCT8Zty3GDDgdJlIuTFeTO8I3bfprAkaUCTx73/9G2eddZbE2jM3EoW2lW1FfNq3Xz8ErSGQfZwwDyksXLBIBKPvvfeuGWdG9g1/5rP92GOPo11V0xBDU4IgUWxR1FNYWF5ebodCkW0M8+bNF00GjY9bBZshpLBp103x+ONPYPc9dmsi1nXkYuWKVXj11VdQVdVeCO8HH3wgeLuQyvHHHY877rwD7Tu0Nwbcag/o/qI27qcffpJwDb0LvP8MLzGGT7KRVvZnAJcmjPZ3JDZz585NZxw4+DwZacRp4aUHoDbj1lv/gbfefkvwzM/Pl2yCww8/XJ5zzg802K6eQyYRd/MH8aPWhc82iceoT0dhyLVD8OVXXwmZoCfsxhtuxC677CJk54svvpD99ttvPwwbNhybbd6tybNQs6pGQlQPPfyw6EvovXj66adlIeM2kkN6SkjaSRCoxxkxciS23HIL87jYNGohU6mUZG5x3uDz9f4H74uQ1G3tq9qLwSf5Y6qkzAUi2I5j9OjRQo7pUSEO3Hgf2rZth379+uLkk0/Blt23kPTK5nqWdX1vdf/WI6AEofVYtW5PG2JYtGiRvGhc7fHF4QqK8XSKmfiCS3EQV8glvS5b8yn4Mi5dskQMDEkHJyx6Ix555FER2jWJJ9sx0INw2mkkCCZUQNcdCQonDU5SXCVQgEShFX/H8dA9fMWVV8jq97XXXhPiwHNx8th9j93TcVu+1HQLUpHMz2mgHhn5iMRMaaR5fIrDXnjhhfSx0wVsMgiCIx6cDLjaffW1VyW27MjALrvsjJ122tkuVDKEZmvwbNCwHNf/ODHMhiD8gMMPP0zGGfQHJcTCVTHHyGt2orPW3dyme7n7RwK0aPFiIVWjPv9Mrp04cpWeSRCef+6fuOyyS2VV69LleESq6I0a3SPPDFe2nbt0Xi0TgmSOBMx5EAxBuAZXXnVFOi7N4xFnIQhnnyV6h0zj5sR6TAOkal/SADNc75Jml0zgtVdfE2K2ZOmStMu9cbeUiCoZm26uQWhOEDibU9j2zLPPomPHDvb5Mfn9JH0kvXRzX3DB+eJBMtLNlGhDaLwYJsisLErjwcwBholYM+PTTz+R+Dg9AnwmjaFO4fj+x+P2228XQ+SyP5y3i6v8n3+eJCJTRxCYg8/7dfQxx5haA9xsaEYMuHgGDH3h+SdN+hnRSCSdt98YMmrqcXPPV/Wyatx73334+JOP5Di8d+eccy4OPvgg4z1wXoSkDcNwbhCvjSHUxJ7vK70YDFd6/V65rlGjRglJHDdunDxDDCV06tQJH3/ysdzHzp064/5h95vsjIx0R+5LjxRJ5HfffSfX9de//lXuqYhxyeVTKUyeMlnEmEw9Jq7UKJBIbbyJSR91G9+B+Qvmi9eJwkt+T55pK9DuvElnuZcnnnSSCKCbex74zE6YMBFDh96GN994E7V1tfb594iXZauttpJQB8nOpt02NYsQc7M1/PBbJq9WfkcJQiuBau1uEttkiGHxQtEgOIJAtykLhDCP2a3I5OFuLGuQ9RTLq6vR//j++GL0F/I9hhgetQQh00frJkKmFTGeu3jp4nQaU5OViY0Du4mPn/U9th/uv/8+ia/TmP7r3/8SD8COO+4oLz8NCgVUtTU14iZ84cUX5HoK8gvwxBNP4ogjjxAPBaul/evll6XIEFce67KlazZQ7S0KpdZvB+x3gLhZO23SSSa4CeMnyCqNrlZ6OZgVcdnllwlJkwksm1Ivy6n5fRoP6gqoD6HAkhPzcf2Ok5hvJkF47tnnRaS4yGoQuBqioaAAkB4TXjddsFdfPRgXX3KRWS1lbCQIpw8YgAk2xLAmgkDDwdiveBCWV6cJQmYaG/UUw4cNx8GHHNyYJmlX2nPmzBVxHcmaqNslLZEeGXMveJxD+xwmJLJtu8omY2weYuCHjFu/+NKL2GSTTRr3zYgpr1pZg0svvUQ0OvQ6OUyP698fjz76SKMoLxrFW2+9hX/+8wUR15IU1NTWyDH9XqO6l/cvlZRY/G233YYff/xRsHAhPaYPciMpZphi6bIlJr3U6xUD2U3Emy4UYYzkoYf2kXChKw5EXQtFdFLsx2pU3Ap6tcfFuuCpA6AexJEYno8eAYoa+TOv222NCwezwub9JEno0qUr7r33HslccVoHHo8Ea/DgqzFhotE7uY2pmRRXMgRVWFTQhAzTtc80UOoV6JHku0HCxDCGKwrG94Mpx8f374+Zs2fKYY8+8mg8+PBDIsCVZyGZkiwIkjTWheCiZFXNKtETOLK5/Xbb44rLrxBdTn5hflOPUAZgJH8ffPAhbh86FJ9+9mmTkB53I2nceeedcdihh+GAAw9Aly5d0t7K1s8Quue6IKAEYV3QasW+hiAk4TwI7qXlJMQVP0VYNOZ8sSUPOCPGne3wNNrMYKDbjpPhxh03xmOPPybCx0xDl0kQTj3lVAl38Fx0QfKl4kqEEwz340TJCa+23jB25xonAblq0CA8/sRjMglsvdXWeOnll7D5FpsLOaFBpPGna5fH4bU9+eST4iGhu9QZKbJ+To4tbY4IOLcyxyihBQra7ESenjRtnnbmajhzUnbG75CDDhGxGlfgQhC+n4DDjzhcakJwErzmmiE44YTj8ewzz+KnSZOMoJJCNJuTvbZ74HBtnMmBzTbbXFY25BnEWlI0Ewkce2xfIVqrEwQjUvTCK5/Rm8E0wu/Gf5eOJffs0VNCR/SeZJbLZRbDgDPPaCQI4TwpWnPlVVc28SAI9taDkCYIHsjzQkV9faRe9u/X9zhRxpeUFKfPw0n9v2/+F2cNPEvi+bxmZsssXLggbcTWiSB4IJkxjIm3b28FjRmLbJdKR/3KLf+4RUJSvBdcIVIwSxIimR22lPDDD4/ANYMHY1VtjdSP4PcD/qDgz/fDERiKFKlfIckhIcw0wNnes8zPOZYhQ67FFVdeLmEB4jHpp0niQRHvmiWYmRoPp01JE13qTeiZiSdEqMmNn0lKpK25kCar4jkwJCwzmYIkonPnzvLcbrf9dkZMKaE7r2QzkLwPHmLEuB6wMmhSjDlriKxcuUIqRtJAd9yoo8xPXKUzDDFr9iwZT1W7KjzzzDPYgymz1rNJ7w69giwcJmFNnw+XXHyphAJIOJhRQmLA73EemD1nthA1Cg3dNTrPJQsrHXnkkeIBTa/+HdDWC8BCafTCMdzAVF7nTeJufF+4WCA6JD4UhXLeo/eEWgbd/jcIKEH4g3FdE0Hgg80XwzH/loxba4bCF8WpnKmcZ9yVXgkjbDJHcIbsnbffFSPOVVIoEJLVq4vny8okkRDXJEWAXA3xEI4gcDJkbjXLQNMD0K5tO/zzn/9Mh0gm/zpZ4oJfffWlnK979+6SxkXxkowvnsCHH3wok1C9TPqm5jq3JrF3e9GcABnXZUqW5Nrb2ZFkgQWNSkqMcM9dW9q9b1dM/L3EW/fdT1TRFODxd0xZZD46QymcULfbfntJoWMslDFaToKtTcsUd7HNYXfjIE4UDp577nmYM2e2HX8SHTq0F6+LE3tx7MaDYLMY4EFlZSWefOJJiWUPvuYaCQVx43co1mS2AVXv7r5+OeYrDDxrYJog5OcViOq8iQaB+hNLEAaePVBqOYgxCvgx6MpBklv/5ZdjBBuu6KlI33333dNu/IULFmLw1YPx+JOPC1Gj+I+ixieffErIhbNaa/YgzJaY8VeMi9v4ND0Ir77yqoQjWiJiDYkG3HzjzbjjrjuEIBjjGcBJJ50oz3coHDIub08Kn336Gc4YcIaEjJgSR5c6n3/idP2N12PJoiViSEgQbr75ZlCHc+HFFwpBkDokzvyKwNTG0O0zmKkZSL+LKYhg9+rBVwtB4JdWrlyFn378UQgJixSJOc+oCOk0DJK6lzJZLvQeUADIOhb0xNBzwAwLGk0Zhi3DnNbnWBLlimpJHRV/QCoYsny08zpI4SWkMGPaDCmi9OZ/35SxbLP1Nrj11tski+Kxxx8Vcnz/ffejz2F9MGb0GMlw4PPvUrDpPWBGDPUgn302CrFYVPQrNNYktDwHFzf0OJx62mmiPWAKN59TZmvwnXbeJqbtMg2SZIVhB46Hcx+FkrffcbtJBW1hY5EypoIznCEEw+uRzCEWm2LY0WyGPpEkUMtAIaroujTLoTXmY533UYKwzpCt/QtrIgh8aej2ZD60rN4bp6omK4W1Ht15G2x5vHA4JAabE72UcG0snS4vPgkCFcl8wTmRXH/9Dbic7nUKI23Fvi8+Hy37TJ4yRd4x5kAzhkhXN0VojJnTZch0PSqNSTA4fk4uXDFPmWayH/b6+954+pmn0LFDx7RhqK+LYNmypenmOSIQsyuk5q59GurhDzyAYcPul4nGbSzadNmll4pLl+flRJcWzNl8cwLo9A2hcFhWxK7qIXFwhIT3hseYO3uulLNm/DYzMyHbo8AxSwEZm7nhUhTplmaRmwMPPtCsKK34ylxrI3FrThBYIIhhJ06mdAPTDe+U6/yMlfCop5BrAfDlmC/FqHw/wYgUGdah0I2aEZd+x9OlCcJZA7F8hSkIxXAEPTwUUpL0MaxBl/kpJ52CobcPlWwB4vTB+x+Iq5miTj5TFCqyuifH54oQ8XhrIggsZET9xZeWOHI8O++4M/79yr/Fg9Bc7MdjLV22DCeffFK6rgR/V1RcJKWSed/TpcQ9wML5C3HPvffIWPfee29st+12UsiLcXQ+u/SwcXMhhunTp+O///2vrHZpcJhJIdUebSEuJ1B1hDTTRc/j0BDvttvuOODA/U0Wht2aewkyv8/7znoQfG+40fgTbwo133jzjbQGgSWHpYqnfab4/jZmzzQiRWLClT+NrAt/SOqj37zwfM9YDpyEniSO3gCGV1g46uWXXpLCUiTIPN/uu+2OobffLsSenj2emzgyHEb9Dr04FBuTrMsKPmGujMLbv+2xJx5+6CGjUfBASA9JBUkuq8HyWFwo8JqYBkvP1kdMWU6aLCc+V3z23PPc/H2jBuWoo44yegrWjsmjh2wwtttuOzzzzLMy5zAjgveOXinqJViw6feGCbO997n8uRKEP/jur4kgUFj09NPPSEGXzAItmW7ENQ4lsyC80+SIIXIt7KzoiyskG/M0BOEdESkuXLQAAV9AXIUsOhQMhexqPiW9Byh8mzqNKn9IudqRI0ZKHPLtt96WlEe65/mC07vAugtc0dGlSc8D88CN6/ESqVBYyHK0bhKVGvUUFjrBlV0WtcD26VK86MKL8Nzzz0m8mxOSm6D79D5U3PU0MDQWTVZ6TnmfkVMvX2x+DufW9kDcl0899TSmTp1iY8J2Z3sMHt9lUchKLdYghaQ4QZlVtNl43VToc7XK9DOKw1rc7OFb8iDQZbzn3/cUssJwA/sLSB59Kom9/r6XrPq692RxLQ++/vJrnDlwIMZbgkDDcfVVV6+ZIAwciOUrDUFgGiUFowwF8b6xsA7FeHRb043PaowU3zFV8IEHHxBcKiva4tlnn5GVslTmnGOqFHJbK0Ho1096I2R6EFiDn+dO3xurd2CpYeoMuNoVMsmVNIDtt98ezzz7jIS0MkkFx1VTWyudF92zwPN8/933uOCCC9OhkMMPO1wMFFeXjKNPnvyrEGNm83TuvIkQi8x4eEvERYy7zXJx76yrIUK3/rhx32DJ4sWGsHo86Nq1qxQWY90Dvg9ffz1WsgPoveB1MZWQz48T7zHkR22S84aRkLk6DHwH5JxIoWePHhIu6dS5k9EsJVNi3CORqISLvhw9RqpG/vTTj0Ii9t5rbww86yzxVLBgGgsbMdTEUuB9+vSR2gis88HzscfILbf8A3vssbvcGoYL6F1gTwvn7aFBbt+uvXjm6DGQmiQ2W4NCR2qVVq5YKS5/6n122mknIWE09sxkkG6ZwZAQBBIX8Qi1sLFSKOefsd+MlWeHBIEkmSSRhIWppf957T/yjvB5PP2M09MiyD94GtfDWQSUIPzBj8KaCAJXcHR/04Pg1NGcNFrjPkivRJsZPefW5CTSvXsPHH30UaaOObMYrAeB1fS4quIESBHWjjvuhFAwKCtO/o4rLLolWUrXEYQHH3wQ5W3Kwd4IJAgs1sLJgrHxp55+WnoNXHXlVenSrhQPcdKhu5SubHGXtuTzW0s1NBZMYV+JH3/6IX1HnHiMKyKubPr3729Wk7/HnZgyhXFoaFxc2q363X2Re2hz0BnyIDFgZcJPP/lEDC73LykpxV57/l1c/nTRG7EZJ/g1P1AthhiefFLqWNC1TtEYV2+uABMnSCr5SRyKiovxzbimWQz0Spk6CNaDYE+d9iBkEAQag3/969/Yb999cettt+G+e+8VpThJDgkDvUMTJ/6A0047Fb/8ytoAXlmFc9X77TffSoGmzN4erSEIYmDp7t5mG1mhUv/isGWKHUnpBx+8Lx0xXfEo4k7vyc033dy0mJNrlEUtCnMJ3WYNFTuBTp48BfX1denCVl06d5FV/E033SyrTepNTNXLY3DzzTel0y4zxZst3j177syMF+qAWFCIJJqjIYFjmfAh1w0R0d6RRxwpoS0aV2LMFNa2rjKgYR5pnUHz80shrl9/TQswGaKh90dW7tb1yFAQydy0qdMkRXTWLJI3knGfnIfkkYSPngO66Pk9xur5njID466778LOO+6Ey6+4XOomuLDIF6O+kHopTG/kMx0MhoRQUaR54AEHiqfJNbMSLVVDXDxbfO+ZaeCaLbHPBMmC8yCQuGQjCPQ+HX3U0U0Iwh2332FSp0NB8YwtWrhIrpehTNH3aJXFP9iCNT2cEoQ/GN41EQSehgaPE5SkGVrVemtFitkmsQP2PwBPPflUOr+YcdhMDwJXJFwxOgGgc9O7GuuOhJDBU91e0bZCashT1UyXLictuqTpxmQpXHZe+/rrrwU9xkXpUei1bS/5t8xhTbO9mj11Gf+kwU4mcNddd+PGG28Qo+U25ynwenxS64GNkTbpnKGEzzyq41okD60kENKdr5lBJ7mhh4EGhR3vOFHTLc/JlhMUJ6qtt94GZ599lsS+mWefSTDW9jitiSBIJUyPR1bBjCO72DCP1bN7TwwbPkxCSUwb5Wpq/MTGQkl0waZDDGshCHT/0oPASZtxaZICV0+hR/cekrfOrJcHH3pQMlDKy8vw7LPPSgotww6sT9HqEIP1IDiCQFJHvQBj6I4QuxoZxNURNT6TbHl+6aWXCb7Ne4DQGDFzgX8kpJZxn2kYSQB4j3zS8Mis6ikWZtoo0/64MUzAVDmWtWZqoyOFa7pvRkjskfoDdJ8HgqbUMlfMNHjU3Ujoyu8TD8bQ22+T4j9cPVNvQCLavqoDbrvtVuyzzz6mQFZG8SPnPZBCVLbfCgWFvD+uYibd6cwQ6t59y3TlTtY2Ya+UTz/5NO3lMO8e9RAWGvbrCATFeJMoEDOu4I855lh89+234p6n18Nlf/BaSXyWLl0m42atEM5XxIk9MphuKKXU06VUqScS9pQOdzgcfwtBoEiRxIoeBGLM8uoM3VFrkJnqynCi1Dlx7bNb+b7/wVN9ThxOCcIffJvXRBD4cvJlZEydL5S4Lm3jl4zI42qjcbHO5rFR7pieXFLArrvtKislqWFPD4IQhHdxxhkDTBEkKps9qXQbaRECGpWWicdaS0mCQEPMCoA853/f+C8uuPCCdAc2ur23334HPP3UU5I+yWtgTv2w+4cJOeF3ZIXhmH1zJ0mmAberoelTp8sK9dNPP01fP1cjdKEyDEBvBDtKXj3oahE9Zsbb01/IPM/a6rZn5k03/9nWEFi4iEWCTpWYuKz0UimZJGkgmL7Yt19fWY2JlkR6alBbkf1BaokgMLa67777mBLNsZgYZYoOWX+AGyd4Zknce9+9EGHoSSdj4o+m1DILQglBaFYHoSUPAg0j0/2Y1shiNowd8z6TIIaDYSEgrInPYlWcfJlK9sDwB1DVoUrEpieddDLmzTfxfW7r4kFwZLQ5yc3s5sfxbbnFlrjo4oukEiO9J2KIMmo0MOOG2Q70ajiXfyObNEW0XM8N073SpGby+aHbn5vPyxCVEYK6EMiawguZxz6u73Gi1XAFfij+pB7kxZdflHeH5JkEgcWQ6A6nHoIVAjkekh4K9Lbsbrp88r+WNA9CHJIpScllFULn+WPhIxaNoufObYz/083O7AEac67QOQYSIhHeejwiLGaLaAo4X331VfkqQ467/vWvUjmVhpbvkhP48vwOQ/5MjF22k3zm84mXgMRC6kKIB9TMQ817JZAgHHH4EeJB4Pyy1hCDfQ/nzZknRc0yCcLdd96NM848Y7WOpdRGpAWdrXj3sr+dukdLCChB+KOfC1ukiC5TVpujoIwvIBXAdO8xzCDs16YxrW2hnW1o6bmTJVr9fiNisr3snQaB7jkqiTkx0hX+d6Yh2ip+nClZmZGTx/IVK9IhBooUaZA5AVBhzy5srFrHMft9TJH0pidcFlBijweuMAPW/Z+ecF1ZXZlFWr4aumPvufteaYRTV286D7Ypa4OHHn5IVooUNbl699236C6r6T322KNJdkATktDsXJwEaRxoNFsiWe67/Mx5d3jNpu30GBk3y75Smc+4MmP2DmOXouaOK14hmx1CA+cqSrpztEQQnn/+eey1917G4FnvBV3XTz/zdNrLxHz5oUNvlxUkV76reRDWRBCsSJH3g9dGHQAb5HCM7OdBbwSzAVwRIEdGWWmRRpiGms8KXeXMhiHRXFeCwP3XJARtTHNNSQfChx9+yHSmZHtiRw4yCAKNMj1Yd951Z7ZXo8nnmemGLguFO0inVKt1aX5A1zyIzzx/PvXU03DnnXeY0s8piKr+vHPPE4LAY9I4s18Dx8dnmqt0IZj8vscnjYckZOYz2gLndVrNM5iChJv4zLv04L/s8lepMcD7bywyGzXFJOQ1f8ECVFS0kYwYelgGXzMYn3z6iezGVEx6T1glkqGIDh07avAZ7AAAIABJREFUygLisUcfw5WDrjQZIxnM1j3Ha8rqoReKxJLPp3SEzXzXmr3fJAgMOdKLQnLBd4GtuZl1sJoGoTUE4Xe0e1+nh0V3bvrupNY2aypY646AXXGyWRMnY1Y9JMQUSw0eNFh0AM7AiB9B2v7+lq3xW4w3UklPN2hzgsCJjUWbyOC5AmceshR8sRPwF59/Iav36dNnrEYQXO45hUt0fdN1mi7yJBOsDzvttCOeffY5bLpp17R6P301WTqwEReWi6Wr1nUo5Pi58qBwjm7UgQPPwqhRpjohJ6jddt8N99x9D7butfVqbuaWUKTq/YYbb5CVMbdG3UbTvWURZCvNMWbLuDvL9nJ/usZZwc5VAmyqmnbeA1M737lgKQZjidrMJlNrJAh77WVLQ1OAlsSoUZ9L6uS0aVPT7mOSIhpslsx1jW9ML4bBq1VSbJ7F4AjCiy++hEMP6yOGimGUqwZdJf0U3AMo87QHIo5kiMWRoY8++EhEmOtKEERxn0pJiuqJJ55k6i3YdFa65pmDL54tpCRmzhUxUwq54l6te18KoM7g8SceF82CKdxkBI3ybAT88nzOnDVTBHbNt0wy4sgBiVCXrl1MVVO7qqdXLd7QgGnTp0s5aL5XHBuLnrEwGDNHeFLG6BkGYOZJI0G4CDffcrPoII45+li8/8F7UlSMGpoh11wj4j0ngHXTrvnbPEPOI0gRHg0pV/n87K+7/AWPNSMInDcYNqALnv0keB2swsnqka+/8bpcPhco9HLQM8T5iEWGmLLKcspMeWYI0T3Ljhw6q2+1zmmiRoyZKs3SzuzxELKZNU4U3XwBwHvFc31qG8tRz3DdkOtw6eWXNqnZYV5KQ3rW6kFQgvBbjMTv/o56EH43hM0OYMVHC+YtQJ9D+5i2t+zF4DP5/BTxyMuYoZj/LUNITzBIyQTEfPFtepkKa06k+PZb7+CUU07BkqWLxR3Ngi9MdWJ6pJB/rwejvxgjBIGxdidSdB4Ec5wUZs6YIdkPrGInimxbUY8K7Msvu1xEcq5GQBPj2RJBsJMBxz9l8hSZZCmCdBXmNuq4ER544EH07n2IuNw5mTE7gkV7OBHz+thPgkpr1mZfY4qTC19Mm47999tf0jHXdXMu8KaTZ+NRmhsd9wmx4OqSefhM13NbSwSB7buZZiaVHROmUiFd1Fz50XtCxT5jQYzHMiecnimXuuiaNa2tUJLUQfAYDwLrWLDPA8dHEsH7SQ+Tw5bnpjFn8Rk2lXI1Nz7+6GOccOIJ60wQ3OTPjnxPUWTXs7vcQ95XutAZLnDXwn3pjWIb7XTDr8wQkK3vwDAD8/Pd+8Pv8d8U29LdTt3NrDmm+I/bSI6ZwkeM2SFR8vU9Hmy/7fZS38ClHvMFoNGkx4SiShpVEhauhLlCLy9vk/aSCUE47/xmHgRLEOrqRI3//vvvi3udHjE+r0xnTff9SCfOZLjprbt+ypQpUi9g5oyZgpcJMTyOLbpvkTamct3LluOwww4VzQpd/8STAuP/vvVfuXSSGmpOSDZcYTOmjtJrdenllxlBp8cradLsaUENh9MvmEqjKVRXL5O251JtMRiU3ihCEMLWg8ATtSAU/H/tnQuUXmV575+5Za7JzGQmmdwmAQ6hWC5eKIKiLRXqUUGOYovAObVVMVWRrtN6QbwAgarBVkQlXuCsBmsBLbWrQYEEb4cjLoVQu1RcRYSQ60zu97lfvrN+z97vzp7JN9nffDNByP7vtVyRZO/97fe3L+//fa6828RhUCuBMdQ31tsXPv8Fe+e73+UBnWM2CYTJfpqet/0lEKYZdfDL0c0MfxqlXkO3NUzFHhgVfwg8nS0u9xuZ76P+AJ7qVRGJiiGCheK+9aHSIJM0L3wwyRMhvXr1v0c92j3ob9SVP/nffGxJraqtrbObl9/klgA+rqw++LCyWv3EJz5utPYNAoFUxmBK9Ujl4WG771/u8xUeQWVBIJyy9Pc87fH8P/4jLy/t4QXh5Z/ILxgLqOfWP+eR8/jFve46Ztq6WjdDUqkNEz0sWOkSyU/6Y6iUx4oOHy9/f/LSqDTuRBvxDazm+ch59Htco6DY/mHF62lkw3QYjOo2BF+1p6El/TOi5bavtFLFmsK/Uy/ipptvssb6xmQ1nCUQgl+VVeezzzzjk8qatWttcGBgjM862JymIhAYPxHh11zz1/av374vEa30TaCK4xlnnu73lI/5VASCp+m95DS771/vs1NOOSXhx+SLYF111ypPBQzb0pOXusvqT/8sqg8wfmXK+0KrY0z85M1jocMKRk8F0jAx74f7wfEER2LJoww2xX9wE+GiYR8mvDe8/g2eIUPlTSqKYtn41re+FTdiGvGJ84brr/eOhmQIVRSiuIijCgS3IEQCAYE9o7rG6xjw/keWiqRcU9Is1VOB4+ZtdG2lcBlj4V179bmvPiwQUg8uAoLUY8Z+/vnnu3uDdMgHHnrAx0dVUSw/VA99dv0zniFArBAWGOJW+AaQCYOw4H0K/Vg4NsR4ILh4Dok3Qmhxz6il4i6GsACIBUIU9xEFYVLJkwwo0ivZqI9CavHrLvjjI99XCYRpnoWm73QSCNPHMjpTKgaBF6K3pyepfEi61ylLT4na4LoVgaCpyJ9POt3uXbt9kqR6Hf/GquhpUs4qKj2IrLmlxV/iTRs3+ur0sXWP+U+efNLJvmoIZZA5P/7I79z/He/MiEDgY0nTlT987R/atu3b3eROPfvf/OZpb00dPqqsfFwgNDfHE2OFHdi/37688st20803+0c2CAQaUFGSl1K2bhb2eTrqljfRxscDccD18zFm0g+BZRe87kJbuZKuc0ujynkEUI6M2H/8x8+9YBMxAcH6gumeiGcK+Jx22u9HH9ciXSKprEc8Ax/0UrINWMUjWNasWetBeayiKUhzztnnuIWGj2SI+g5jDG4LJoNgKsaXjok1HYdQqkDgfHAi6+Daj1xrW+PrCJNlsGhMSSBgSh8Z9jLPWGiIXieOBYsCee1YLDxavLJyygLhjNPO8EnX2yXHBboYA1kbFPFhgmelHQJ3z/6Dsz0G4txXxel3sfVg06ZN/gxggqdSIyWPsX5Q6ROXAy9N9GxWWHtbm2cN4Oah0BEmblbI99xzr33s49dZV1cUT8GYz/+j8+2ss87yVupP//Y3Pu7wjM+aOcuL/uA6OOHEE6NbUDAPIp3IgtDf15fUAOA+En+0/Mbl9prXvjYpDx2UT+hvEYQlf/76yV+7WwzXAUyKCoSCeXEoJv31G9Z7UOnf/d2n7NprP2Jr1qzx68fFQIosgpuMo/POO8++8U/fcMvRh6/9sAsEUpS/8uWvuABKlVVJJvoHH3jQ43H4hhDMSr0F3kWCSsO9dAtCSqNzXoQY7qDQhwXhibXsJFyR4zcJhOmehabtfBII04YyPlFcM55VF9XkKAXLS0GENhPPL37xC++VzsR3ySX/w0vy8tGjQxp+eMydKz6zwlcr/LnqrrtsXkeHR5yfdfZZPsk9+8x6o74BEcL8N5PXvd+8133GmEjXPrzWmxRRJvWRHz/iwUhsdbX1NjwylJjzw9CTanKFQlQo6Y47PLCJjzgFYXyi+ui1iSk6rGCpu04wI5YFShd7WeC0FSHNNq7N8Phj63zF8tBDDyaWFXZj3F/84pfsNa8573D/gZRI+M53vuPukVA7nmOYvC684EL7xMc/YeeNbwscbkdo8xu7S8aYN4vUlUAQMOngmoEjk0HTzJm24tOfsWXLliUiZExwl8eRRNaJ0ATK/drjBEtJAiGeQLn8fXv2Ofe7vn5XVAkw1P2Ps2CmJBBiPrRNpvkTq3JS9Sj8tGDRgshXXq5AiCspRnNp1McDgUAUfyKqRgs2NESb35/Yu9/1bp/kYnnpDN/0hjfZl26/3ZZQHMiifHueQ1xSabdEOF8V1gbKbcc9PJjUb7vtNu/8l8406e/t914dlAzmPk+0IRxI/+TaaAGNJYHgXN+yBEJ/v73t0kvte/QpGR111yKxAhTE8jiXpM1Cqt9C3DkSC8OTv37SXRsIIbZXnRsFKbqLIfVc00+B4FGsetQQ+ehHr3U+WJ1oSgUDrGzUlOBZxs1CP5VHH/2JCwkskAgE3rs/f8f/8mDKEIfi93901L773e/asvcs834u1HJBbOBunEggcAylklmMEBhJECjWBgKdl994o7sajtiCQNja5fFHRbMYFIMw4bN6LP9BAmGa6TKpUlOctKY1a9d4gBMFhoi+x2SIomdlgKuB7nV0JaM2Oq6Ap3/7tJviWOW8+tWv8nbLTIqYU3lJb1x+o6cfsj8rPfL0sQxQAwFTLZHStJUlmvqee+9xEVJsYxIMLZmDC8FXMFaRVFKc1TIraepCMNt/PfVUFJFNehM55qklA6vNq959leevL1y40CrDJBfiKCuiADMa9lAMiLoCrF6j6Hnz3vJU0qMYC6u85NSxQGAMiBwmGdob+8reg9SiAjWdizq9YBBmaQI1j8iYCNcR/kxbOGLzqJtXaXNTVemmdz68kYl41ONGKNjCZAG3o6bFpQtcjhMgkxII8UeTSngIE4RlxD2u/U89eg9SPHqzpoliEMY8F+N8/cEGPmmBMGq2YeNGu/LKK+IaGVGoG0VtsBYhEIIbJaTY8hzc+bU7vTgPkfshtqChrsGues9VHpOACOWamHh4T+iQ6k9rZYWbyEkfxiX1y1/+0isLspGOigjAtB+20eEoywSBwbu34pYV7qpjI8snpPzObJzpqXVwR2AghNNlzNl/vIsBCwWTM88377kH6MVpu1iRiGHgWkup0YEoJ9AyCHsKGZEB5YWS4o3nlQUElg1Y3LT8Jm+lTNl0Oiry3CIQuB7EBS2faffOKh53G7UzuE6CLrEYUoQsEb3xc8tkv/ahtfbOd73TK4kGgfChD34oqmIZrEFxPQKeT74/iBJ+04uNFaIW1IiQiy56U/HxJwKh2976lrdIIEzznDSV00kgTIVekWN5cZkIrrnmAx5sxormHX/+Dlux4hb3+f/FO95hT/z8CZ/Y+YDRkpeoecy6+NmZNEkj4iXjBcb/9817v2mnnnqql8A959xzvBMbHy9yngk+u+TNl9g/rlplM2c2JZHNy29e7gIhWAeoiFZTU+3ZFFSqoywwNc75d4rjkPsfYhCwVjAp8juIkl89+WQUzRz3jL/44je7eFm3bp2NxJ3bGhuavNEKbXvPPPOlPnHzscdqggmZD8aPfvQj27N3D113QkkXbwWMz5l6/6F/Qjr33X80/mAdOthj9933L26BIMI7uEXYobWlxaO4yYh42UtfZk2zmuKVWlQw5/As4a3hks0nrKpotcyGQNi4YZPXHnj0Jz/238DM/NlbPuumVm++VOo2ztUyKYEQ/wYWodtvv90DzUJt/xBxnwiEa6+NakOEySPVzbEkgTDBeEoWCCkhSLvnK664wqiM6a40rEOnn+4+6aW/tzTJmEjfY66RiQyLQX9/X5LZwMobAcSzjkWN3H/eGSwJPLunn3a6p0USP/Dojx/1UuIh04K6BX//D/9g7XPaPKZnoL/f3VnEd+AmIwYCUzzdUGkqxHvHu0AnQt5Nzvue9yyzV7zi5R4EjND3DBUuvNJs185dLvZpd87fIRCIO0HoDg8PeToggoX4HQJCQwqs93SKuUz0GPG0YmlwEUwMx2mnuUWBcbJhEcEtyaKBhQBlkBEAZLpQJ+OhNVR3LLgVhvoZ1LH4zIrPWM2MGV66mKZi/n3p7/NJn9U9719wd/gr537Cgr+7t37+Vn+Pw/NGUDKiJ5SMDkKB+gtfX/V1bzy2e/cuvwYyH3iXcCl2zD9618Xurd0eVCkLQqkfmGO/nwTCNDN+5uln7P1Xv9/Ni7zomN1v+/xtXvWMtD1W9wRsMWnR7AjTY9PMJk8r48VjEsCkyIqBmAKsBd/73vftla8826OZmaCYIHnxMQvz35TEJXqZtriYolevXu0vJB8EJjfcGJSdPfGkk9yU39Ex1yujNTTWG7XUWS2z8uN6abSCGZHVDyZaypp6VbPaOvcJL19+k5111ivcfXHD9Te4GyWYdflo/MmFr7dbb/2cf0DoL8DHiahwVkTsF/LQOR8+YsrFUncf8/ZRt6hgm/X193o7YsymWFBC58ewomScrDLf+773Gv0v0gKj2Pl3bN9pj/74x26lCe4BVuuIMsQMH7nmWS12y4oVft6kcVApz81kBUIc5BUmgZCK+uxvn/UCQqwMA0Ouyz/Y133MA8481iFeiaXbPU9FIIRKdZlBiimBQODc5ZdfYevWPZ4IOCLsqbR5yqlRkOIRWxxvwyR4//33R/c0Dvwkc4Pn/dI/vdTHuHnjZp/YcIGx+ucdGBwash/84Pv2+c/f5q2N2UgppDQwVgb2oRYI5YmJtSAzpL6+zj74tx+0+oYGu+WWFd47Il3REcGAlY/y0PjPefYRJGeceYbHCe3etcf++ppr7N5v3ZukOVKjgkqFVTVVHk/kHQ6HRzwuxeNGvKhWqsDZUZ4hJmiO8xTO6mqbNavZK6GGNEmCGMnmeXzdY95Xgu9FZ2enT8ZYLtne+IY3+ncBbuvXP+c1EBYvXmKr/nGVt6+GI+9NQ2NjZLkLWxxI7BknQ4O+UGEbIxBIc0wFJ7LP6tX32/Wf/KQ3+goxHK94+Ss8ngTxkm5dXmzoEgilfFSe330kEKaBd4jeJQ+bWvqY/dw8WDDPZPjc5z7nK3Z8hQSE4W5go6kKNdYxg657/Ak3D+J+wBzJqpHoe6wLFLVh9YRCf+o3T7mpnlUPLyEfjk9/6lNuiWCSZUVMACK+esztCBQ+AOQtewGauHFSaKLECoHOhrzUfHwuv+xyu/J/Xmkf+fBH7Onf/jaugjbDU/FYdVDHgQ8WK6Mf/uCHnonws8dYLUa+RkyVN95wo/8+xZOInvaqbHHeOtd4wpIT7e2XXWbvvuoqW7y4M/PD4bBSgVBwIG4DRqwC0+WZmcz/5m/+twsxN01nbKR3stp0s3VcG4KVc/DB8icBm0xSuHVCGmnWef3fjxAId7v/FnMtPNra2u3ee+6x113wuiOrT8bZEfw+JucHH3rIPvCBq32FHCZZAia5J1Re9OIzsUDg+lmxL3vvMm/3zG9hnbn7G3fbW976ltJ4hxbElRUu8mjSQ+xMEFyXXHyJfe2Or7k1Kkk5rDDb8NwGN+8/vu7xEKrvEyv1AjxIsUggqd/ekVEXnVjPvJvfKHWw+ZcKI7OBtM8/ef2FyXOEoGNfBC6TGCZ/T3+M3V+hGFFSsTAVJ8LM2zF3rgfnXfzmi72HA90QKRhGv4m05S10fVwwf4FbcXi+mXDhevX7r04EAs8Fk+FrXvsa719ADICPIb4n0YQfqgtkPz3h+QvnYDwhMPf0M8+wxx97zP381H2gINJXv/JVf//5u6hAk7kFYeVXVnpskt8jq7DhkRH78sqVbpkM7phgkUpfVbpYUhBroe4GWQw8e1HaUhQf8uCDD9nHP/4x7/PgDc6GB61j7jy7/vpPejyPt8qeONnIfxrXLIHHjz9Bs6ZRd8mQlrnsr5ZlLyCykWqPMghIIJQBreghBbOH1z7sBUgoTBIiqakpQO45HxBWMnyU8OkT3du5aLG3Yz3rD87yjxtKm8mPoK5zzj3XTjllqQsBPoSkLPLiMVkM+0o82lidYXKlDHCSPzX2TT9s1uVjlapuyH/+7Kc/9VUHlgIXCG+/3PPguZa777nHVxZve+vb/JrTPlB+AmvFI4/8P1u+/EaPKsfC8YUvfMFe+tKXelYGk+E/3313VAeiutKjuek7gKmeLnJ8NIK4yrwNaT953HAJczaxFxRq2rR5o38Er7ziSrcudCI8CAjL+CixIkUQPfqTR6NMiODjD6mLVnAfKm4X+hL4h7PUylap9tsctubBNW75wTzNJIOAQTCec865h+M2xoOIu/ft3b/XVn5ppUegh0mLcyBaWElW11QlKzomW2oCfPazf289PTThqvAPLK4cTOeZ1ppx14AV69Of+rT77kMWCULxuus+ZrPbWpOa+Ez+1P/46HXX2VNP/VfkjimYdS5e7L0IWOEGE/0R97tgNjAw6BU7V61a5Sv9pOKnmZvAicdpb2v3e4r7jmd1zcNroiqZcdfFYjUrQoZAcLdxXjqDUnTqoovf5JeC++qRR/6vpwBSIhnBwTvq6ZA1tXbZZX/m7oNFixb6xE+zKdxZwYIQVsylZMpkPuvjdggTOJ1S77zjDrfydXd1uzimsRbvG2mKLED+8i/+0h5c86Bf9xv/+xuj/iUnHu5fgrD/6pe/6lYnVv2hRTPxCaHKIz8fYkSwelI7gmcOqx+lvWnw5Nk8bg2Jmp8Rq4BYpQw410sfjQ/+7Ydc1JYi1F0gbOnyOCK+JfDEbUPsD4ufdC+GyfLT/uUTkEAon11yZFhxsvK5887/Yz/4/vc9QhrTP74/CgrxoSQga+3atV4ICBMn6YzUuKedKx89rAV8YLwjY1wrAVMlq/m7/umuMeZZJoeTTvxvdsMN17vfLt2rPjp4goGlFjF86HADeNU+LAhWYW9/+9vt9ttXet91AsSYHEljnNsxd+wJ40mSMf3nz//Tbv3crZ5SRtAlE9Dw0Ih/cMlwwPd70UUX2aWXvs1e/vKXOY/E3Dg+QK7U+xEfR0lXrCBMvPCjwA3piF7vIC47fTSRsGf3Xnv/+95nq+9fnaSfcgmYmEOTIYLPaBhDIJxbXkppvMBJ0gLBzONDsATBjBtEaWp6OhzV9BqnzfJcYCnhePzodMOi7HVra0vUSZII+8MJ9m7BooZEaBLBigxrUlKOu1TOBIj29rsLJvjROZSeIi3Nzd4YyfPmY+sLZnpW1/wZVq0INTrvJc/oRGmwuJD6+jzQbWhkKCpNjC++stItVlw/VUDDf2Opuu2Lt7lQDfEBTP5u5aHfQnWN3zMsacQzYAmiP8HJS5fa0qUnexdDWi4HbogM+JI+iJWOdxU3BoGKt39ppb36vFclLjIEQrAgMJli/sedx2o9acQ2CcYT7lpR4VY/3lUENeKdZlPBigQvLIN19bg9drv4JvOAsVDjgYyNdGohkznt3LH88V7y7MCR9zO0svZH12uvmH3v4Ye9mBRpnWRBkf1AauqYOghmvvjBAsM3A3FFTBUTO/VUQoXSLBzUtSDY+bHHH4uqa9Y1eFrlsr+KezFknUD/Pu0EJBCmA2loRVtR4TEET//mafvhD3/oQXsU8gkR93y0CJaiKhlqnAko+rBF/sZiEzsfgG/f9203G6LaUfIcR+ASFQI5Px/EUPUvGU6x842bjFm9U+mMldS27m6/FvytV3/gav9w4LOl7TMfWT9/+sOe8jtzHj7qVA0MjZT4oLHKQ4AghBYvWXK4gmOpE2wJ9ybUICBgk9/jd8b4UzPOweTyb9/+N/vpz34WuV/cYWxusqfIDnESlNtNm/B9QinFijBOIIwXKr5KC82til1n+jeCsEsJvzABjzk03i+Y1n31GX6jXDEWfiB1vBfzCimt8XWmXQ3JNaXHUCyLpIR77Luk3rEoTbBga9c+bA8+8IALQZ5XIvLJ8sFSgRig8iH1EDDNY83wfiW1uGKiBlseckgkfnBfBbZuzRgwugtSpRBhcsGFF9qM2sgi4sG3h3rsjjvvtCeeWOcTNGLv7Fee7WId8ZQ8S1kmrIzx8zgitngu3c1QX+8iKcQzuEslLt5FphA9O5781a+cz0tOfYkXRuM5Di4D/p46C3yjPMupwuzMM850EeTCKjRfiuMm2Hf1v6/2lEj+HcsR70RNzYxoZOjSOIuhp6fXFwVUu+Tb19DYUNyqOcGYcdGSqcJ4Q6EmYkBwz04RY6lPmfYbR0AC4Rg8EmHSSvytqcl0sj/HyxdaMqeDnHylRMvbrIkq9hNO9LuszJgkvchP/HEgbbFoMNlkLz7lRy/j0OftkGA2H58W6t3sxrUVLuuipjoxZ/1osTRF/9JnHThN/17K8z3dDOKJOvQGCX7yMJGGtN2pMkifNy16+Pvggghpr7zvSZzPNIrgUu5SqODqlps4DgMGno4Yx32EiTyIxyC0gsAI4meMSBiNa0vE9y9YdSbiWpRXKQOI9zmcmRT9xXR9hyZxCdo1RUAC4cXyOEwkBCb6+wxh8GIZtq6zBALTPfmW8JNjdvld/376YsZbd47Ve1CKKJosx6nsX+w7kCUQj2YJS3OLMoDjGft5FJ5T4aFjp4WABMK0YPwdnqTYS17uR3G8Sft3OCz9tAhMmkB4fsc/x1kT5aR/6Dg5ID3xjx/SRAKB/TK6tB4ndDQMtKDaPR8Hz8H4F71cgXAcoNAQRGCM203i4OgPxNEskOFILRxy+1JJIOT21mvgIiACIiACIjAxAQkEPR0iIAIiIAIiIAJHEJBA0EMhAiIgAiIgAiIggaBnQAREQAREQAREIJuALAjZjLSHCIiACIiACOSOgARC7m65BiwCIiACIiAC2QQkELIZaQ8REAEREAERyB0BCYTc3XINWAREQAREQASyCUggZDPSHiIgAiIgAiKQOwISCLm75RqwCIiACIiACGQTkEDIZqQ9REAEREAERCB3BCQQcnfLNWAREAEREAERyCYggZDNSHuIgAiIgAiIQO4ISCDk7pZrwCIgAiIgAiKQTUACIZuR9hABERABERCB3BGQQMjdLdeARUAEREAERCCbgARCNiPtIQIiIAIiIAK5IyCBkLtbrgGLgAiIgAiIQDYBCYRsRtpDBERABERABHJHQAIhd7dcAxYBERABERCBbAISCNmMtIcIiIAIiIAI5I6ABELubrkGLAIiIAIiIALZBCQQshlpDxEQAREQARHIHQEJhNzdcg1YBERABERABLIJSCBkM9IeIiACIiACIpA7AhIIubvlGrAIiIAIiIAIZBOQQMhmpD1EQAREQAREIHcEJBByd8s1YBEQAREQARHIJiCBkM1Ie4iACIiACIhA7ghIIOQF9JOpAAAS6klEQVTulmvAIiACIiACIpBNQAIhm5H2EAEREAEREIHcEZBAyN0t14BFQAREQAREIJuABEI2I+0hAiIgAiIgArkjIIGQu1uuAYuACIiACIhANgEJhGxG2kMEREAEREAEckdAAiF3t1wDFgEREAEREIFsAhII2Yy0hwiIgAiIgAjkjoAEQu5uuQYsAiIgAiIgAtkEJBCyGWkPERABERABEcgdAQmE3N1yDVgEREAEREAEsglIIGQz0h4iIAIiIAIikDsCEgi5u+UasAiIgAiIgAhkE5BAyGakPURABERABEQgdwQkEHJ3yzVgERABERABEcgmIIGQzUh7iIAIiIAIiEDuCEgg5O6Wa8AiIAIiIAIikE1AAiGbkfYQAREQAREQgdwRkEDI3S3XgEVABERABEQgm4AEQjYj7SECIiACIiACuSMggZC7W64Bi4AIiIAIiEA2AQmEbEbaQwREQAREQARyR0ACIXe3XAMWAREQAREQgWwCEgjZjLSHCIiACIiACOSOgARC7m65BiwCIiACIiAC2QQkELIZaQ8REAEREAERyB0BCYTc3XINWAREQAREQASyCUggZDPSHiIgAiIgAiKQOwISCLm75RqwCIiACIiACGQTkEDIZqQ9REAEREAERCB3BCQQcnfLNWAREAEREAERyCYggZDNSHuIgAiIgAiIQO4ISCDk7pZrwCIgAiIgAiKQTUACIZuR9hABERABERCB3BGQQMjdLdeARUAEREAERCCbgARCNiPtIQIiIAIiIAK5IyCBkLtbrgGLgAiIgAiIQDYBCYRsRtpDBERABERABHJHQAIhd7dcAxYBERABERCBbAISCNmMtIcIiIAIiIAI5I6ABELubrkGLAIiIAIiIALZBCQQshlpDxEQAREQARHIHQEJhNzdcg1YBERABERABLIJSCBkM9IeIiACIiACIpA7AhIIubvlGrAIiIAIiIAIZBOQQMhmpD1EQAREQAREIHcEJBByd8s1YBEQAREQARHIJiCBkM1Ie4iACIiACIhA7ghIIOTulmvAIiACIiACIpBNQAIhm5H2EAEREAEREIHcEZBAyN0t14BFQAREQAREIJuABEI2I+0hAiIgAiIgArkjIIGQu1uuAYuACIiACIhANgEJhGxG2kMEREAEREAEckdAAiF3t1wDFgEREAEREIFsAhII2Yy0hwiIgAiIgAjkjoAEQu5uuQYsAiIgAiIgAtkEJBCyGWkPERABERCB44VAITWQikkMiuPG758+F6eazPnG/3Q419F+Yyrnn8RQw64SCGVA0yEiIAIiIAIvcgITTcjFhpUlKgpmBStYBQqhnEmc4wt+EquoOnyC5O8qyjzvFG+RBMIUAepwERABERCBMglMZpIu8hOF0egEFZXjZuX0eePJ1yfv1Co/MQiUMqGPRtYBn7D9/44915hLS50vub4wwaeui39Lrns8h3GWCX63gnOMt1JwXWyVZfLPOEwC4dhw1VlFQAREQASyCBTMdu3aZcPDw1l7Fv332tpaa2pqspqamiNW7qMjo37evr4+GxwcMl+em1l9fb3V1dVZVVVVNOmWIhAK5ufq7++3gYEBGx2NZubKikprbGq0GTNmWGVlPEunzrd3zz4bGR62GbUz/Herq6ptZHTEent7bWhoyLhGrqG+IbomzhGEABaJocEh6+vrt+HhIRsZGbWqqkqrq62zmhk1PuaioqEsksUPkkCYRpg6lQiIgAiIQOkEWBlv2rDJFixaaJWVrMsr3FTvc/kEE3fYhz8PHTxke/bssY6ODqtvrPfjmLz7evts+47tPok2N7dYfX2dVVZV2kD/gPUc6vEJmkl9dvtsm1Ez46gWiOGhYdu9e7f19PRYU9NMmzmzyY8Nv3Po0CEbHBq0lpYWmzVrlv9O2Lq7uq2xsdEn+kM9h3xCZ6JvaKi3mTNnWm1drQ0ODNr+/ftdCLS0NFtzc7MNjwzbrp27/N9mNTdb08xGq6jg+vt9zAODA9Y2u80aZzaNxQS3abQmSCCU/ixrTxEQAREQgWkmsHP7Tps5a6bV1deVdWYm3+3bt9v8BfNdYGzbts1X+wsWLrDq6uqi50SYDPQN2M6dO90C0Dq7NfL/p10VBXMhwbnnzJnjE/34f/fZuWA2MjJi+/ftt57eHps3b75VV0fWia6ubmttbXELAS6F/oF+txQkK//U1Y0Mj9j+/Qesv7/PhodHrK1ttjU0Nvi+Y1wMZsa+XDtbx7yOyOUR3BISCGU9RzpIBERABETgBUaAVX1XV5edcOIJRSfOUi5365at1tLc4itxJvxZzbOyzxVP7Ey0VZVVNmfunDFWiwP7DxjWgbkdHVZdVRVdRjGrRrB2FMz337N7j4sVxAkWhNa2VncvlLrxu4gIrBRHc38gOHbv3uOnnT271SrcPVHqr5S2nywIpXHSXiIgAiIgAseAABPdgQMH3IRPXID78j00IJrtfAVNMGI8+WHGx6efbAWzzZu3uJ++tbXVWlpbDv9ToeBmeuIQhkdGrKa62gWExx/EGQfEAezcsdNX61gy2HoO9drePdFEX1UdiwOL4hBwBQwNDvp1EgPhlo+U9aG3t8/27N5t8+fPd2sG1omGhoYx5LA4HDxw0N0UiAEERFHrhJnHKuAyGRoadtcEbokQ78DxXVu7bU57u//9hCKmzPsmgVAmOB0mAiIgAiIwdQJh8sdszkTO5IlJnUkwZA3w54EDB62qstIWLFpwOCDQzPbs2mO79+x2n/68+fOSCyKgkNU8xzKRIwpC0CL7Nrc0J+chzmDL5i22eMliPx6LBm4FjgtuhH379rmQqamZYXVMxgXzgEViJhAmaRcJv4uwYTz8Gy4G3wrmgY7bt223hsZGd0Uw+SMOsFQQhJgWPvzevr37ElHDsXBpb29PYh36+/pt7969Nm/evCNjKaZ4eyQQpghQh4uACIiACEwDgWK1BuK/w+x+8NAhmzevY8yKHp/9/n37fCW+cOFCj+5nQwgw4c9ua/OgQvf5x+dCMOzYscOFw9yOuYlI4DdYpdfUVBuTLv8WrBa7d+22wcFBa5/THmVMxJM9fyACsEDgoghCgOvZuGGjVVZW2dzU3yOCNm/eHF1rdXQeBMbBgwfdPUHcRNiwHHRt7bIFCxYkv8k1EzDJn+4Sia9jw8aNtpD94vFPw93wU0ggTBdJnUcEREAERGB6CKQmc1bpO3fusoULF4zJEOjt6fVAvba2NmNyn79wfuKO2LJli82ePdtX3kdscVGjbd3bPPCQeAU2JnVEBa6H9rntSdwAYgFXQWfnYquqPjICkMmafXbt2j3mGjk/kz5iIAiHgwcP2eDAgLW1tx3O1IhjIbjmzsWdiWDZu2evW1Nmt82O/i6u58Dvbd3aZfPnz7PqmigIk98i3fOIQMop3g0JhCkC1OEiIAIiIALTTIB0xULBeg4esp27dtoJJ5xQVBx0Lur0NEdiEsJEPybocaLKhgVziwCWhEWLFiWWgvXPrneBsPiEJW7uZzJmFY+7YcKgwVjMkO1Q39Bgs4hjiF0JmzdttkWdixKBQBAlAZFNM5vGACMOoru7210kuELYsFpgrSDmIlrOm8diYA1BsCCAPBajYD4OxAH/K6muQ4m3SwKhRFDaTQREQARE4PkhQMHCvp5e27M3DhQMWQSY9HuocbDDV+uY1Fk9UzsgrNLx24+OFKyltfmo9RSYWLEYMCmHlfiWTVu8kNGSJUt8onVXwXMbowyL8dUax6GgPgHxBHM6ItM/LoLn1m+wznECAdcCAZHpDYFA3APuhFBHgToIxEAQLxEEgsUVHcmOaJvTFokWM49pcAtCMYvJFG6ZBMIU4OlQERABERCB6SeA+4AJkiyCtF8d68AO/P1z2q22ts4qKs22dW3zgMMgEKhHQFGhWc3xxDrR5SEQtmyxuXM7bEZtFA/AxEvWw+ITFvtKHYGw4bkNduJJJ2amTSIQenp7rYPYBRcIw/bc+vXW2dk5xoIwkUCILAjzk0BFAh1JlUwsCMQrkC1RYW7VIB4iZHPs2C4LwvQ/hTqjCIiACIjAC4oAq3DM6wThJal7ZpGff+cujzkIVRNZ5WNBYBINq3IqJfb09NrceCU/0eDCqt1TGWMLxeZNUbokgoANk/7GjRvdonBUC0LBPNtgaHgoCR6kgNP69ett8eLF0y8Quro8kyEIBCwIwcWQZemYzM2WBWEytLSvCIiACIjAMSGAW4DJmckuHSSIK2BwaMiFAAWBMKWnqwYS1V9dWW3NuBTIYBga9kwB4haK9lqICxv19vTZgf37o9TIuMbCc+uf83N3LulMqjAiSqhTMFHAY2jiFCwZQahgBdm0abMtWVKeQEAk4UJIXAyuWKJYBKwNBDoGF4MHKTY2RbEN01gsSQLhmDzqOqkIiIAIiMBkCAwPDlu3B9+1Hp6M4wj/rVu6rK09Lj0cz4ChvTK+foL0SBEMJYy3b9vhRZGoYnhEWWPOOTpinLO9vS2xPERFh7o8YwCLRAgkJGWSSo0UPjoiUDFuG4HQIN0xXYeBeAZKK6ezGAhSLOZiwFLBpN8xjyDFKFMiEQhNM8dM+ox7W/d2v/bgfkGcIGBcTEggTOax074iIAIiIAIvWAKjZsOjIz45sypuTAXw4QbYtGmTm9OZsEMUf5gE3ScfFzaigmKoWOipgFu6bMaMGo/2D5UTRwujnr2wffsO75EQMh9gg+UCS0FVVbUdOLDf4x/ChjWAY4gvIPaBxlIEAxQKo0bHxkOHDnq2QnBVICo2bdzkRZWYyJP4iKMKhG3eVyEIBLpc0rkRy4A3YIqtB4yNa6XGA+Nj697a7ZYVrwQpgfCCfdR1YSIgAiIgApMgwGRKOuDcuXPHmPFZ0W/dvNU7F9bX1UfllytIPRw9XGFxtOCFk4j2p8pg2orAREpcABUQKVhEFUbKLTMBk7aYrnzotQ66t3klRSwOIW0wnY5Iy+gd27Z7dkJ1TY2Njo54nQIqJaarMvK7BDuSWcFvI1BKFQgUgkqyGI4iELhWYjFCDAIWBFwbHtAogTCJp0+7ioAIiIAIvGAJDAwM2vZt0eSc3rAWDAwOHm5AlG4BHaoukoo4Muq1EOiR0NTU6CWHfYs7LSI0ECHUVaDpEoIi7XYga4EaBrSMDlUS2b+7e5vNpdxyfW2yP5M/1RD5X0VVhVVXVY+pz8Aqn7LHiIj2tnbbtj3qxRCaNR3dxbDNK0WWIhAQIOkgRQRDfX2DNbfENROm6W4rBmGaQOo0IiACIiACkyfAZIsbYSrdHBEJxAkQwc/kny44VOyKCqNRuqBXadyx01paWyPXhpdkjnIJ+ymhHFdqDG2Xi44uFi5cg4uDwaGoTDMVDuNmTUEgEPDY2Nhk9Q3jWlvHxY64juA2mMjFgAjx2g+p1E53j9TVRy4TWRAm/xDqCBEQAREQgRcggYJ5fwEmdlbbRwQVlnjJ3iDJKry3ASWOm5uJSaiPrAKpSRMrADUKKM/c39/nLoAkdsEKSZfH0IwJAUHgYmvbbKurja0JqfNhoSC1kgJNtTNqo9LIVZVu2UgEQl29Byzu2LbDFi1eNKbZVBiep3fSBXLBAneDICbo9Dg+BoHrYnxYI7CWEPeABYQxKEixxIdFu4mACIiACLwICHhZ5VGPzCcSj0mxnFVwf9+AZxm0tc32yZnJtqe3x+MT+B+TPDEDZBsgJAjoI7CPCRbRMD4l0v8uFhwEKWIdCO2ZcS1wzVg/mPgJXGxtaYnqNsTiARfJ1q1b/ZpIvcTF0UY8QmPc2XHcreH36L/A5I81gPO2tLT4NXptg+BigddoZK2gRTbCgD+JhUgHXU7HnZeLYToo6hwiIAIiIAJTI+D1DgZtaHA4yhIoY2OyJ3MAT0FUKrlgIyPDLhiCCCA1kIl/TEGh1OQ7RpykYh2Y8DkH8QkhxZIfqZlR7ZP3EQWK4n4MoWW1ixRKPx7Z72nMSBETHjMxOuoWCc+MSGUxhJ29TXZc0hnh4+dPt4sug9/4QyQQpgGiTiECIiACIjBNBNLBiOWespxzlHNMqddXrJV1sWPT+6VFSxGBUOpPT2U/CYSp0NOxIiACIiACL34Cx1IcQCdliTgqLAov0bHR6yzEx3GsBMKL/xnTCERABERABKZAgMlwKpN1eZ6JKVzwMTh0PAMJhGMAWacUAREQARF48RFIm9kne/XHg0BgzLR1zohVmCyacvaXi6EcajpGBERABERABI5zAhIIx/kN1vBEQAREQAREoBwCEgjlUNMxIiACIiACInCcE5BAOM5vsIYnAiIgAiIgAuUQkEAoh5qOEQEREAEREIHjnIAEwnF+gzU8ERABERABESiHgARCOdR0jAiIgAiIgAgc5wQkEI7zG6zhiYAIiIAIiEA5BCQQyqGmY0RABERABETgOCcggXCc32ANTwREQAREQATKISCBUA41HSMCIiACIiACxzkBCYTj/AZreCIgAiIgAiJQDoH/D/CTpZ+tyJhUAAAAAElFTkSuQmCC;" vertex="1" parent="oLrsJeIFUzb5wXI0BTTU-1">
          <mxGeometry x="544.78" y="160" width="324.78" height="183" as="geometry" />
        </mxCell>
        <mxCell id="oLrsJeIFUzb5wXI0BTTU-10" value="" style="rounded=0;whiteSpace=wrap;html=1;hachureGap=4;pointerEvents=0;fillColor=#fff2cc;strokeColor=#d6b656;" vertex="1" parent="oLrsJeIFUzb5wXI0BTTU-1">
          <mxGeometry x="544.78" y="50" width="120" height="60" as="geometry" />
        </mxCell>
      </root>
    </mxGraphModel>
  </diagram>
</mxfile>
